<?xml version="1.0" encoding="utf-8"?>
<!-- Generator: Adobe Illustrator 25.2.3, SVG Export Plug-In . SVG Version: 6.00 Build 0)  -->
<svg version="1.1" id="Layer_1" xmlns="http://www.w3.org/2000/svg" xmlns:xlink="http://www.w3.org/1999/xlink" x="0px" y="0px"
	 viewBox="0 0 160.9 60" style="enable-background:new 0 0 160.9 60;" xml:space="preserve">
<style type="text/css">
	.st0{fill:#0030A6;}
	.st1{fill-rule:evenodd;clip-rule:evenodd;fill:#00ABC3;}
</style>
<g>
	<path class="st0" d="M95.6,15.5L95.6,15.5l-1.3,0c-7.1,0-13.8,5.2-14.1,15.4C80,40.2,84.8,46.7,93,46.7c6.7,0,9.1-4.7,9.1-4.7
		c0.4,3.1,2.1,4.1,5.5,4.1V19.8v-4.4H95.6z M101.7,33.5c0,4.2-2.4,8.3-7.7,8.3c-4.7,0-8.1-3.2-7.9-10.8c0.2-7.3,3.7-10.5,8.4-10.5
		c0.4,0,0.7,0,1,0h6.2V33.5z"/>
	<path class="st0" d="M48.1,15.3l0,21.3c0,3.1-2.6,4.7-5.9,4.7c-3.6,0-5.9-1.6-5.9-4.7l0-15.9c0-4.5-2.9-5.4-5.3-5.4v22.6
		c0,5.7,5.1,8.5,11.1,8.5c5.8,0,11.5-2.8,11.5-8.5l0-16.5C53.5,16.8,51.8,15.3,48.1,15.3L48.1,15.3z"/>
	<path class="st0" d="M61.2,27v18.9l5.4,0V26.8c0-4.1,2.2-6.5,6.3-6.5h1.6c4.7,0,5.4-2.4,5.4-5h-7.5C65.7,15.2,61.2,19.1,61.2,27
		L61.2,27z"/>
	<path class="st0" d="M17.1,29l-6.6-1.8c-1.8-0.5-3.4-1.3-3.4-3.5c0-2.3,1.4-3.4,4.3-3.4h5.8c2.6,0,5.6-0.8,5.6-5l-11,0
		c-6.7,0-10.6,3.4-10.6,8.3c0,4.5,2.9,7.1,8,8.5l5.7,1.5c2.4,0.6,3.2,2.1,3.2,3.6c0,2.3-1.4,3.7-5,3.7L2.3,40.9v5h11.1
		c6.7,0,10.6-3.6,10.6-8.4C24,32.7,22.1,30.3,17.1,29L17.1,29z"/>
	<path class="st1" d="M137.4,52.8c0.1,0,0.1,0.1,0.1,0.2c-0.8,1.8-1.6,3.2-3.3,4.1c-3,1.5-4.5,0.6-4.7,0.5c-0.1,0-0.1-0.1-0.1-0.2
		c0-0.1,0.1-0.1,0.1-0.1C130.7,56.9,134.6,55.4,137.4,52.8C137.3,52.8,137.4,52.8,137.4,52.8L137.4,52.8z M137.7,47.4
		c-2.1,1.2-6.3,3-9.9,4c-4.4,1.2-7.9,1.8-10.2,1.5c-2.1-0.3-3.1-1.3-3.4-1.6c0,0-0.1-0.1-0.1-0.2c0-0.1,0.1-0.1,0.2-0.1l0.8-0.1
		c1.7-0.1,4.9-0.2,8.5-0.7c4.2-0.6,11-1.8,14.1-3C137.8,47.2,137.8,47.3,137.7,47.4L137.7,47.4z M138.1,49.2c0.1,0,0.1,0.1,0.1,0.2
		c-0.6,0.8-1.6,1.7-2.9,2.6c-1.3,0.9-2.7,1.8-4.3,2.5c-1.6,0.8-3.1,1.4-4.6,1.8c-1.7,0.4-3.2,0.6-4.4,0.5c-1-0.1-1.8-0.4-2.4-0.9
		c0,0,0-0.1,0-0.1c0-0.1,0.1-0.1,0.2-0.1c3.8-0.6,7.3-1.5,10.5-2.7C133.4,51.8,136.1,50.6,138.1,49.2L138.1,49.2z M154.8,34
		c0.1,0,0.1,0.1,0.1,0.2c-1.5,1.3-8.4,7-12.1,10.1l-0.1,0.1c-1.1,0.8-1.8,1-1.9-0.8c0-0.4-0.1-0.8-0.1-0.8c-0.1-0.4,0-0.4,0.2-0.5
		c1.2-0.7,3.5-2,5.4-3.1C149.4,37.2,153.3,34.9,154.8,34L154.8,34z M149.7,41.7c0.1,0,0.1,0.1,0.1,0.2c-1.5,1.7-7,7.8-9.5,10.5
		c-0.3,0.3-0.4,0.1-0.3-0.1c0,0,0.5-1.2,0.7-2.1c0.1-0.6,0.3-1,0.6-1.3C144.4,46.1,147.5,43.4,149.7,41.7L149.7,41.7L149.7,41.7z
		 M156.5,31c0,0,0.1,0,0.1,0c0,0,0.1,0.1,0,0.2c-0.7,0.5-16.2,6.8-16.3,6.9c-0.9,0.3-1.8,0.4-2.5-0.7c-0.3-0.5-0.5-0.9-0.7-1.1
		c0-0.1-0.2-0.3,0.2-0.4c0,0,4.4-1.2,8.2-2.1C150.1,32.6,155.2,31.4,156.5,31L156.5,31z M158.1,28.8c0.1,0,0.1,0.1,0.1,0.1
		c0,0,0,0.1-0.1,0.1c-1.2,0.2-22.7,3.1-22.8,3.1c-0.1,0-0.2,0-0.4,0c-0.1,0-0.2,0-0.4,0c-1-0.1-2-0.6-2.9-1.6
		c-0.5-0.5-0.9-1.3-1-1.6c0,0,0-0.1,0-0.1c0-0.1,0.1-0.1,0.1-0.1c0,0,7.2,0,11.8,0c3.4,0,7,0,9.9,0
		C155.1,28.8,157.1,28.8,158.1,28.8L158.1,28.8z M159.5,26.9c0.1,0,0.1,0.1,0.1,0.1c0,0.1-0.1,0.1-0.1,0.1
		c-3.1-0.2-31.4-2.2-31.4-2.2c-0.3,0-0.5,0-0.7-0.1c-2.2-0.7-3.5-2.4-4.1-4.2c0-0.1,0-0.1,0-0.2c0-0.1,0.1-0.1,0.2-0.1
		C123.4,20.3,156.8,26.4,159.5,26.9L159.5,26.9z M153.7,21.4c0,0.1,0,0.2-0.1,0.2c-1.2-0.6-4-1.9-6.7-3.3
		c-2.3-1.2-18.3-8.7-19.3-9.2l-1.9-1c-0.3-0.1-0.5-0.3-0.8-0.5c-0.8-0.5-1.1-0.8-1.6-1.3c-0.3-0.4-0.6-1-0.8-1.5
		C122,3.7,122,2.2,122,1.9c0,0,0-0.1,0.1-0.1c0,0,0.1,0,0.2,0l2,1.2l1.1,0.7l5.8,3.6C139.3,12.3,150.7,19.5,153.7,21.4L153.7,21.4z
		 M157.1,24.7c0.1,0,0.1,0.1,0.1,0.1c0,0.1-0.1,0.1-0.2,0.1c-0.9-0.3-2.8-0.8-5.2-1.4c-5.5-1.5-26.1-7-26.4-7.1l-0.1,0
		c-1.2-0.4-2.3-1-3-1.8c-0.2-0.2-0.4-0.5-0.6-0.8c-0.7-1.1-0.9-2.6-0.9-2.9c0,0,0-0.1,0.1-0.1c0,0,0.1-0.1,0.2,0l3.4,1.3
		C132.4,15,153.7,23.3,157.1,24.7L157.1,24.7z"/>
</g>
</svg>
