<?xml version="1.0" encoding="utf-8"?>
<!-- Generator: Adobe Illustrator 25.2.3, SVG Export Plug-In . SVG Version: 6.00 Build 0)  -->
<svg version="1.1" id="Layer_1" xmlns="http://www.w3.org/2000/svg" xmlns:xlink="http://www.w3.org/1999/xlink" x="0px" y="0px"
	 viewBox="0 0 115.7 60" style="enable-background:new 0 0 115.7 60;" xml:space="preserve">
<style type="text/css">
	.st0{fill:#585858;}
	.st1{fill-rule:evenodd;clip-rule:evenodd;fill:#101C3B;}
</style>
<g>
	<g>
		<g>
			<path class="st0" d="M52.3,39.4v3.3h-0.4c-0.2-0.7-0.7-1.3-1.2-1.8c-0.6-0.5-1.2-0.7-1.8-0.7c-0.6,0-1,0.2-1.4,0.5
				s-0.6,0.7-0.6,1.2c0,0.2,0.1,0.5,0.2,0.7c0.1,0.2,0.3,0.4,0.5,0.6c0.2,0.2,0.8,0.6,1.9,1.3c1.1,0.7,1.8,1.1,2.1,1.4
				c0.3,0.3,0.6,0.6,0.9,1c0.4,0.6,0.7,1.3,0.7,2.1c0,1.1-0.4,2-1.2,2.6c-0.8,0.7-1.7,1-2.8,1c-0.6,0-1.3-0.1-2.1-0.3
				C46.4,52,46.1,52,46,52c-0.3,0-0.5,0.1-0.6,0.4H45v-3.7h0.4c0.2,1,0.6,1.7,1.2,2.3c0.6,0.6,1.3,0.8,2.2,0.8
				c0.7,0,1.2-0.2,1.6-0.5c0.4-0.3,0.6-0.8,0.6-1.3c0-0.4-0.1-0.8-0.4-1.2c-0.3-0.4-1-0.9-2.2-1.6c-1.1-0.7-1.8-1.2-2.2-1.5
				c-0.4-0.4-0.6-0.8-0.8-1.2S45,43.5,45,43c0-1.1,0.4-1.9,1.1-2.6c0.7-0.7,1.7-1,2.8-1c0.4,0,0.8,0.1,1.3,0.2
				c0.5,0.1,0.8,0.2,1.1,0.2c0.2,0,0.4-0.1,0.6-0.3H52.3z"/>
			<path class="st0" d="M62.2,49.7h0.4c-0.4,0.9-0.9,1.5-1.7,2c-0.8,0.5-1.6,0.7-2.6,0.7c-1.3,0-2.3-0.4-3.1-1.2
				c-0.8-0.8-1.2-1.8-1.2-3.1c0-1.2,0.4-2.3,1.3-3.1c0.9-0.8,1.9-1.3,3.2-1.3c1.1,0,2.1,0.3,2.8,1c0.8,0.7,1.2,1.5,1.4,2.6h-6.1
				c0,0.1,0,0.2,0,0.3c0,1.1,0.3,2,0.8,2.6c0.5,0.7,1.2,1,2,1C60.5,51.4,61.4,50.8,62.2,49.7z M56.5,46.9H60c0-0.8-0.2-1.4-0.6-1.8
				c-0.3-0.5-0.7-0.7-1.2-0.7c-0.5,0-0.9,0.2-1.2,0.7C56.7,45.5,56.5,46.2,56.5,46.9z"/>
			<path class="st0" d="M63.4,47.1c0-0.9,0.4-1.7,1.1-2.4c0.8-0.6,1.7-0.9,2.9-0.9c0.2,0,0.5,0,0.9,0l0.3,0h4.2v1.5l-2-0.2l0,0
				c0.7,0.6,1.1,1.3,1.1,2c0,0.8-0.4,1.5-1.1,2.1c-0.7,0.6-1.7,0.8-2.8,0.8c-0.9,0-1.6,0.1-2,0.2c-0.4,0.1-0.6,0.3-0.6,0.6
				c0,0.2,0.1,0.4,0.4,0.5c0.3,0.1,0.9,0.2,1.9,0.3c1.4,0.1,2.5,0.3,3.1,0.6c0.6,0.3,1.1,0.6,1.5,1.1c0.3,0.5,0.5,0.9,0.5,1.4
				c0,1.1-0.5,1.9-1.5,2.6c-1,0.7-2.3,1-3.9,1c-1.4,0-2.5-0.2-3.3-0.7c-0.9-0.5-1.3-1.1-1.3-1.8c0-0.6,0.3-1.1,0.9-1.6
				c0.6-0.4,1.5-0.7,2.5-0.8v-0.1c-1-0.1-1.7-0.3-2.1-0.6c-0.4-0.3-0.7-0.7-0.7-1.3c0-0.4,0.2-0.8,0.6-1.1c0.4-0.3,1.1-0.5,2-0.7v0
				c-0.9-0.3-1.6-0.7-2-1.1C63.6,48.4,63.4,47.8,63.4,47.1z M64.8,55.2c0,0.6,0.5,1.1,1.4,1.5c0.9,0.4,2,0.6,3.2,0.6
				c0.6,0,1.1-0.1,1.5-0.4c0.4-0.2,0.6-0.6,0.6-0.9c0-0.6-0.4-1.1-1.3-1.4C69.3,54.2,68.2,54,67,54c-0.7,0-1.2,0.1-1.6,0.3
				C65,54.6,64.8,54.9,64.8,55.2z M65.8,47c0,0.8,0.2,1.4,0.5,1.9c0.3,0.5,0.8,0.7,1.3,0.7c0.6,0,1-0.2,1.3-0.7
				c0.3-0.5,0.5-1.1,0.5-2c0-0.8-0.2-1.4-0.5-1.9c-0.3-0.5-0.7-0.7-1.3-0.7C66.4,44.4,65.8,45.3,65.8,47z"/>
			<path class="st0" d="M81.1,50.5L81.1,50.5c-0.9,1.3-2,2-3.2,2c-0.8,0-1.5-0.2-1.9-0.6c-0.5-0.4-0.7-1-0.7-1.8v-4.1
				c0-0.4-0.1-0.8-0.3-1c-0.2-0.2-0.5-0.3-1-0.4v-0.4l3.3-0.3h0.4v5.9c0,0.4,0.1,0.8,0.4,1c0.3,0.2,0.6,0.4,1.1,0.4
				c0.4,0,0.8-0.1,1-0.3c0.3-0.2,0.6-0.6,0.9-1.1v-4c0-0.6-0.4-1-1.3-1.2v-0.4l3.3-0.3h0.4v6.4c0,0.5,0.1,0.9,0.2,1.1
				c0.2,0.2,0.5,0.4,1,0.5v0.4h-3.7V50.5z"/>
			<path class="st0" d="M89.2,43.8v2.6h0c0.8-1.7,1.6-2.6,2.7-2.6c0.6,0,1,0.2,1.4,0.7l-0.5,2.4c-0.7-0.7-1.3-1-1.8-1
				c-0.4,0-0.7,0.1-0.9,0.2c-0.3,0.2-0.5,0.5-0.9,0.9v3.3c0,0.5,0.1,0.9,0.3,1c0.2,0.2,0.5,0.3,1.1,0.4v0.4h-5.1v-0.4
				c0.5-0.1,0.9-0.3,1.1-0.5c0.2-0.2,0.3-0.5,0.3-1v-4.2c0-0.5-0.1-0.9-0.3-1.1c-0.2-0.2-0.6-0.4-1.1-0.4v-0.4l3.5-0.3H89.2z"/>
			<path class="st0" d="M103.5,48.1c0,1.2-0.5,2.3-1.4,3.1c-0.9,0.8-2.1,1.2-3.6,1.2c-1.5,0-2.7-0.4-3.6-1.2
				c-0.9-0.8-1.4-1.9-1.4-3.1c0-0.8,0.2-1.5,0.6-2.2c0.4-0.7,1-1.2,1.8-1.6c0.7-0.4,1.6-0.5,2.6-0.5c1.5,0,2.7,0.4,3.6,1.2
				C103.1,45.9,103.5,46.9,103.5,48.1z M100.9,48.1c0-1.2-0.2-2.1-0.6-2.8c-0.4-0.7-1-1-1.7-1c-0.8,0-1.4,0.3-1.8,1
				c-0.4,0.7-0.6,1.6-0.6,2.9c0,1.1,0.2,2,0.6,2.6c0.4,0.7,1,1,1.7,1c0.7,0,1.3-0.3,1.7-1C100.7,50.2,100.9,49.3,100.9,48.1z"/>
			<path class="st0" d="M104.3,52.5v-3.1h0.4c0.8,1.7,1.8,2.5,2.9,2.5c0.4,0,0.7-0.1,1-0.3c0.3-0.2,0.4-0.5,0.4-0.8
				c0-0.3-0.1-0.6-0.4-0.9c-0.3-0.3-0.8-0.5-1.7-0.9c-1.1-0.4-1.8-0.8-2.1-1.2c-0.3-0.4-0.5-0.9-0.5-1.5c0-0.7,0.3-1.3,0.8-1.7
				c0.5-0.5,1.2-0.7,2-0.7c0.3,0,0.8,0.1,1.6,0.2c0.3,0,0.5,0.1,0.5,0.1c0.1,0,0.3-0.1,0.5-0.2h0.4v2.5h-0.4c-0.2-0.6-0.6-1.1-1-1.4
				c-0.4-0.3-0.9-0.5-1.5-0.5c-0.4,0-0.7,0.1-1,0.3c-0.3,0.2-0.4,0.4-0.4,0.6c0,0.3,0.1,0.5,0.3,0.7c0.2,0.2,0.7,0.4,1.4,0.7
				c1.2,0.4,1.9,0.9,2.3,1.3c0.4,0.5,0.6,1,0.6,1.7c0,0.8-0.3,1.4-0.9,2c-0.6,0.5-1.3,0.8-2,0.8c-0.4,0-0.9,0-1.3-0.1
				c-0.4-0.1-0.8-0.1-0.9-0.1c-0.3,0-0.6,0.1-0.7,0.3H104.3z"/>
		</g>
		<g>
			<path class="st0" d="M50.8,18.3v0.4c-0.7,0.2-1.1,0.4-1.3,0.6c-0.2,0.2-0.3,0.6-0.3,1.1v8.7c0,0.5,0.1,0.9,0.4,1.1
				s0.8,0.3,1.6,0.3c0.8,0,1.5-0.2,1.9-0.5c0.5-0.4,0.9-1.1,1.4-2.1H55l-0.4,3.3h-9.8v-0.4c0.7-0.2,1.1-0.4,1.3-0.6
				c0.2-0.2,0.3-0.7,0.3-1.5v-8.2c0-0.6-0.1-1-0.3-1.2c-0.2-0.2-0.6-0.4-1.3-0.6v-0.4H50.8z"/>
			<path class="st0" d="M59.4,22.6h0.4v6.9c0,0.8,0.4,1.3,1.3,1.4v0.4h-5.2v-0.4c0.6-0.1,0.9-0.3,1.1-0.5c0.2-0.2,0.3-0.6,0.3-1.1
				v-4.4c0-0.5-0.1-0.9-0.3-1.1c-0.2-0.2-0.6-0.4-1.2-0.5v-0.4L59.4,22.6z M57.1,18.8c0-0.4,0.1-0.7,0.4-1s0.6-0.4,1-0.4
				c0.4,0,0.7,0.1,1,0.4c0.3,0.3,0.4,0.6,0.4,1s-0.1,0.7-0.4,1c-0.3,0.3-0.6,0.4-1,0.4c-0.4,0-0.7-0.1-1-0.4
				C57.2,19.6,57.1,19.2,57.1,18.8z"/>
			<path class="st0" d="M64.4,17.4h0.4v6.7c1-1,2-1.5,3.2-1.5c1.1,0,2.1,0.4,2.8,1.2c0.8,0.8,1.1,1.8,1.1,3.1c0,1.5-0.5,2.6-1.4,3.4
				s-2.3,1.2-4.2,1.2c-1.6,0-2.9-0.1-4.1-0.3V19.3c0-0.7-0.4-1.1-1.3-1.2v-0.4L64.4,17.4z M64.7,24.7v4.9c0,0.5,0.1,0.9,0.3,1.1
				c0.2,0.2,0.5,0.3,1,0.3c2.1,0,3.1-1.3,3.1-3.8c0-1-0.2-1.8-0.7-2.5c-0.5-0.6-1.1-1-1.8-1c-0.3,0-0.6,0.1-0.9,0.2
				C65.5,24,65.1,24.3,64.7,24.7z"/>
			<path class="st0" d="M81.8,28.6h0.4c-0.4,0.9-1,1.6-1.8,2.1c-0.8,0.5-1.7,0.8-2.7,0.8c-1.3,0-2.4-0.4-3.2-1.3
				c-0.9-0.8-1.3-1.9-1.3-3.2c0-1.3,0.4-2.4,1.3-3.2c0.9-0.9,2-1.3,3.3-1.3c1.2,0,2.2,0.3,3,1s1.3,1.6,1.4,2.7h-6.3
				c0,0.1,0,0.2,0,0.3c0,1.1,0.3,2,0.8,2.7c0.6,0.7,1.3,1.1,2.1,1.1C80,30.5,81,29.9,81.8,28.6z M75.8,25.8h3.6
				c-0.1-0.8-0.2-1.4-0.6-1.9c-0.3-0.5-0.8-0.7-1.3-0.7c-0.5,0-0.9,0.2-1.2,0.7C76,24.4,75.9,25,75.8,25.8z"/>
			<path class="st0" d="M86.7,22.6v2.6h0c0.8-1.8,1.7-2.6,2.8-2.6c0.6,0,1.1,0.2,1.5,0.7l-0.5,2.5c-0.8-0.7-1.4-1.1-1.9-1.1
				c-0.4,0-0.7,0.1-1,0.3s-0.6,0.5-0.9,0.9v3.4c0,0.5,0.1,0.9,0.3,1.1c0.2,0.2,0.6,0.3,1.1,0.5v0.4h-5.3v-0.4
				c0.5-0.1,0.9-0.3,1.1-0.5c0.2-0.2,0.3-0.6,0.3-1v-4.4c0-0.5-0.1-0.9-0.4-1.2c-0.2-0.3-0.6-0.4-1.2-0.5v-0.4l3.6-0.3H86.7z"/>
			<path class="st0" d="M98.1,29.8l0.3,0.2c-0.6,1-1.5,1.5-2.7,1.5c-0.9,0-1.6-0.2-2.1-0.7c-0.5-0.5-0.7-1.1-0.7-2v-5.3h-1.5v-0.4
				c1.1-0.7,2.3-1.8,3.6-3.5h0.4v3.2h2.7l1.1,0.7h-3.9v4.8c0,0.8,0.1,1.3,0.4,1.6s0.6,0.5,1.2,0.5C97.3,30.5,97.7,30.3,98.1,29.8z"
				/>
			<path class="st0" d="M108.1,22.9v0.4c-0.5,0.1-0.9,0.3-1.1,0.6s-0.5,0.8-0.9,1.6l-4.2,9.6c-0.4,1-0.9,1.7-1.5,2.1
				c-0.5,0.4-1.2,0.6-2.1,0.6c-0.3,0-0.5,0-0.7,0l0.5-2.5c0.4,0.1,0.8,0.2,1.1,0.2c0.7,0,1.4-0.3,1.9-0.8c0.5-0.6,1-1.6,1.6-3
				l-3-6.4c-0.3-0.7-0.6-1.1-0.9-1.3c-0.3-0.2-0.7-0.4-1.2-0.5v-0.4h5.1v0.4c-0.5,0.1-0.8,0.3-0.8,0.6c0,0.2,0.1,0.6,0.3,1l1.8,3.6
				l1.1-2.7c0.3-0.7,0.4-1.2,0.4-1.6c0-0.6-0.3-0.9-1-1v-0.4H108.1z"/>
		</g>
		<rect x="44.9" y="35.2" class="st0" width="50.9" height="1.1"/>
		<rect x="103.3" y="35.2" class="st0" width="10.8" height="1.1"/>
	</g>
	<g>
		<path class="st1" d="M26.7,30.9c-0.6-0.8-2.2-1.1-3.4-0.2c-0.3,0.3-0.1,0.5,0.2,0.7c0.2,0.1,0.3,0.2,0.4,0.3
			c0.5,0.3,0.5,0,0.4-0.3c0.5,0,1,0,1.6,0c0.2,0.3,0.6,0,1,0C27,31.4,27.1,31.2,26.7,30.9z"/>
		<path class="st1" d="M22.3,26.3c-0.6,0.5-0.9,1.2-0.8,1.9c0.4-0.4,0.8-0.7,1.2-0.9C22.6,26.9,22.4,26.6,22.3,26.3z"/>
		<path class="st1" d="M26.3,27c0.1-0.5,0.2-0.9,0.3-1.4c-1.2-0.5-2.3-0.6-3.5,0c0.2,0.4,0.4,0.9,0.6,1.3
			C24.6,26.9,25.4,26.9,26.3,27z"/>
		<path class="st1" d="M41.2,23.5c-1.8,0.6-3.6,1.3-5.5,1.9c-0.4-0.9-0.9-1.8-1.5-2.6c0.5-1.8,1.1-3.5,1.7-5.3
			c-1.2,0.9-2.4,1.8-3.5,2.7c-2-1.9-3.9-3-5.8-3.4c-0.5-1.4-0.8-2.8-1.3-4.2c-0.3,1.2-0.7,2.5-1.1,3.7c-3.7-0.7-7.1,0.3-10.1,2.5
			c-0.4-1.1-0.9-2.1-1.3-3.2c3.2-3.4-0.3-6,1-6.7c-0.2-0.6-0.7-0.6-1.4-0.5c-1.4-1.9,7.2-2,2.9-6.7c-0.6,1-1.4,1.5-2.4,1.6
			c0-1.2-0.5-1.6-1-1.8C11.7,2,11,2.5,10.1,2.3c-3-0.7-8.3-0.4-5.6,5.1c-0.3,0.3-0.7,0.6-1,0.9C3.1,8.1,2.7,8,2.3,8
			c0.2,0.3,0.3,0.7,0.4,1.2c-1.9,3.5-1,5.3,0.9,6.4c-0.5,0.5-0.3,0.9,0.5,1.1c-0.3,1.1,0.1,1.7,1,2.2c0.1,0.5,0.1,1,0.2,1.4
			c-0.6,0.9-0.4,1.6,0.6,1.9c0.3,1.3,1.2,1.8,2.8,1.6c0.1,0.8,0.2,1.6,0.3,2.4c-3,7.3-2.7,19.7,4.3,26.4c3.7-6.1,8.2-9.1,13.3-10.4
			c-5.1,2.4-9.2,6-12.1,11c0.4,0.3,0.9,0.5,1.3,0.8c4.5-7,10.1-12.8,21.5-13.3c0.4-3.9,0.3-7.9-0.7-11.8
			C38.2,27.2,39.7,25.4,41.2,23.5z M39.5,24.9c-1.8,1.7-3.6,3.4-5.4,5.1c-0.2-0.8-0.6-1.6-1.1-2.5C35.2,26.7,37.3,25.8,39.5,24.9z
			 M34.9,19.2c-1.1,2.4-2.2,4.8-3.3,7.2c-0.6-0.7-1.3-1.3-2.1-1.7C31.3,22.9,33.1,21,34.9,19.2z M25.3,14.6c0.6,3,1.2,6.1,1.8,9.1
			c-1-0.4-1.9-0.5-2.9-0.3C24.6,20.4,24.9,17.5,25.3,14.6z M21.9,24.1c-0.7,0.5-1.2,1.1-1.5,2.1c-1.4-2.3-2.8-4.6-4.2-6.9
			C18.1,20.9,20,22.5,21.9,24.1z M19.7,28.9c-0.2,0.6-0.3,1.3-0.3,1.9c-0.6-0.4-1.2-0.8-1.8-1.2c0-0.6,0-1.2,0-1.7
			C18.2,28.2,18.9,28.5,19.7,28.9z M7,3.3c1.5-0.6,3,1,4.7-0.4c0.1,0.4,0,0.8-0.2,1.2c1.4,0.6,2.7,0.4,3.8-0.7c0.4,2.9-4,2.1-4.4,4
			c-0.2-0.2-0.4-0.3-0.6-0.5C9.5,7.6,8.9,7.5,8.4,6.7C8.2,6.5,7.9,6.5,7.5,6.6C7.1,6.7,7,7,6.7,7.2C6.3,7.4,6,7.4,5.7,6.6
			C5,4.9,5.9,3.7,7,3.3z M3.2,12.9c-0.3-0.5-0.4-1-0.2-1.6c0.6-0.8,0.6-1.5,0.4-2c0.8-0.4,1.1,1,1.8-1.1C6.1,8.3,6.8,9,7.6,8
			C7.7,7.7,8,7.4,8.3,8C8.6,8.5,9.2,8.7,10,8.2c0.8-0.5,1,0,1,0.6c-0.1,0.8,0.8,0.6,1.6,0.4c-0.6,0.7,0.9,2.4,0.2,3.6
			C12.2,9,3.7,9,3.2,12.9z M10.3,12.8c0,0.3,0,0.6-0.1,0.9c-1.5-1.3-3.1-1.3-4.7-0.1c0-0.3,0-0.7,0-1C7.2,11,9.1,11.2,10.3,12.8z
			 M5.6,18.2c-0.2-0.3-0.4-0.6-0.6-0.9c-0.1-0.2-0.1-0.3,0-0.5c0.2-0.2,0.4-0.4,0.6-0.6c-0.3,0-0.7,0-1,0c0-0.3,0-0.6,0.1-0.9
			c0.2,0,0.4,0,0.5-0.1c-0.5-0.2-0.5-0.4-0.4-0.6c0.7-0.3,1.4-0.6,2.1-0.8c0,0.3,0.1,0.5,0.1,0.8c-0.2,0.1-0.4,0.3-0.6,0.4
			c0.4,0,0.7,0,1.1,0c0,0.3,0,0.6,0,1c-0.2,0-0.4,0-0.6,0c0,0.3,0,0.5,0,0.8C6.2,16.9,5.8,17.3,5.6,18.2z M9.1,21.4
			c-0.8-0.4-1.6-0.5-2.4,0c-0.6,0.2-0.8-0.7-0.2-0.9c0-0.7,0-1.5,0-2.2c0-0.4,0.1-0.7,0.3-0.9c0.3-0.2,0.7-0.5,1-0.7
			c0.3,0.4,0.7,0.9,1,1.3c0.2,0.3,0.3,0.7,0.3,1c0,0.5,0,1,0,1.5C9.8,21,9.5,21.8,9.1,21.4z M10.3,28.7c-0.1-3.3-0.3-6.6-0.4-9.8
			c0.6-0.2,0.4-0.5-0.2-0.5c-0.7-0.2-0.2-1.7-0.4-2.7C9.4,15.2,9.2,15,8.8,15c-0.7-0.1-1.1-0.4-1.2-0.8c-0.2-0.4,0.1-0.9,0.4-0.7
			c0.6,0.3,1.2,0.4,1.8,0.5c0.7,0.2,1.2,0.8,1.5,1.5c1.4,3.6,2.7,7.1,4.1,10.7c0.4,1,0.8,1.9,1,2.9c0.1,1.3,0.4,2.6,1.1,3.7
			c-2.2,0.3-3.6,2-4.4,4.9c-0.7-2.3-1.5-4.6-2.2-7C10.5,30,10.4,29.3,10.3,28.7z M12.9,49.8c2.3-5.4-1.6-16.5,7-16.1
			c0.5,1,1,2,1.5,3C14.5,36.6,18.6,45,12.9,49.8z M16.9,46c1.6-2.7,0-8.5,4.6-8.2c0.4,0.9,0.8,1.9,1.2,2.8c0.4,0.9,0.9,1.2,1.5,1.2
			C21.1,42.9,18.7,44.4,16.9,46z M25.3,41.6c-0.3-0.7-0.5-1.5-0.8-2.2c0.4-0.6,0.8-1.3,1.3-2c-2.1,1-2.8,0.6-2.8-0.5
			c0-0.5,0.1-0.6,0.4-0.5c0.4,0,0.6-0.5,0.1-0.5c-0.3,0.1-0.4,0.1-0.6,0.1c-0.4,0.1-0.5-0.5-0.3-0.5c0.4,0.1,0.8,0.1,1.2,0
			c0.5-0.1,0.3-0.7-0.9-0.4c-0.3,0.1-0.5-0.2-0.3-0.4c0.3-0.2,0.7-0.3,0.9-0.6c-0.5-0.1-0.7-0.5-1.4-0.3c0-0.7,0.2-1.4,0.3-2.1
			c0.1-0.3,0.1-0.5-0.2-0.4c-0.6,0.4-0.9,0.5-0.8,0c-0.1-0.6,0.1-1.1,0.3-1.4c0.5-0.4,0.5-1,0.2-0.9C21,29.4,20.7,30,20.4,31
			c-0.5-0.7-0.4-1.5,0.4-2.2c-0.3-2.5,0.8-3.7,2.5-4.4c2.7-0.7,5.6,0.3,8.7,3.6c0.8,1.2,0.8,1.5,0.6,1.8c-0.5-0.5-1-1-1.4-1.6
			c-0.3,0.3-0.6,0.6-0.8,0.9c0.5,0.5,1.1,1,1.6,1.5c-1.2,0.5-2.3,0.2-3.2-0.6c-0.5-0.4-0.8-1.4-1.4-1.3c-1.8-0.6-3.4-0.6-5.2-0.1
			c0.1,0.3,0.2,0.5,0.4,0.8c1.9-0.7,4-0.2,6.2,2c0.7,0.7,1.2,0.6,1.7,0.1c0.1,0.3,0.1,0.6,0.2,0.9c0.1,0.1,0.1,0.2,0.2,0.3
			c0.9-0.5,1.4-0.6,0.9,0.1c-0.6,0.5-1,1.3-1.7,1.2c-0.4-0.2-0.5,0-0.4,0.6c0.7,1.7,1.5,3.5,2.2,5.2C29.8,39.9,27.5,40.5,25.3,41.6z
			 M33.5,39.4c-0.6-1.1-1.2-2.3-1.8-3.4c-0.8-1.3,0.4-2,1.3-2.8c-0.1,0.8-0.1,1.5,0.2,2.3c0.6,1.4,1.3,2.7,2.1,4
			C34.6,39.5,34.1,39.4,33.5,39.4z"/>
		<polygon class="st1" points="30.3,27.6 27.9,26.1 27.4,27.3 29.6,28.7 		"/>
	</g>
</g>
</svg>
