<?xml version="1.0" encoding="utf-8"?>
<!-- Generator: Adobe Illustrator 25.2.3, SVG Export Plug-In . SVG Version: 6.00 Build 0)  -->
<svg version="1.1" id="Layer_1" xmlns="http://www.w3.org/2000/svg" xmlns:xlink="http://www.w3.org/1999/xlink" x="0px" y="0px"
	 viewBox="0 0 190.2 60" style="enable-background:new 0 0 190.2 60;" xml:space="preserve">
<style type="text/css">
	.st0{fill:#007445;stroke:#007445;stroke-width:7.941058e-02;stroke-linejoin:round;stroke-miterlimit:22.9256;}
	.st1{fill:#FFC637;}
</style>
<g>
	<g>
		<path class="st0" d="M5.2,22.5h0.2l0.4,1.6c0.4,0.2,0.9,0.3,1.3,0.3c1,0,1.9-0.4,1.9-1.6c0-1.7-3.8-1.6-3.8-3.9
			c0-1.5,1.4-2.2,2.7-2.2c0.5,0,1.3,0.2,1.8,0.4l-0.1,1.7H9.4l-0.5-1.4c-0.4-0.2-0.8-0.2-1.2-0.2c-0.8,0-1.5,0.6-1.5,1.4
			c0,1.9,3.8,1.4,3.8,4c0,1.1-0.8,2.3-3.2,2.3c-0.6,0-1.1-0.1-1.8-0.3L5.2,22.5z"/>
		<path class="st0" d="M13.8,18.7c0-1.2,0-1.2-0.3-1.3l-1-0.3v-0.2c1,0,2,0.1,2.9,0.1c1.2,0,2.3,0,3.4-0.1c0,0.3,0,0.7,0,0.9
			c0,0.2,0,0.6,0,0.9h-0.2l-0.3-0.9c-0.1-0.3-0.2-0.3-1.6-0.3c-0.7,0-1.3,0-1.7,0c0,0.4-0.1,0.9-0.1,1.4v1.5h1.3
			c1.5,0,1.6,0,1.7-0.3l0.3-0.9h0.2c0,0.5,0,0.9,0,1.4c0,0.5,0,1,0,1.5h-0.2l-0.3-0.9c-0.1-0.3-0.2-0.3-1.7-0.3h-1.3v1.7
			c0,0.6,0,1.1,0.1,1.6c0.6,0,1.2,0,1.7,0c1.3,0,1.5,0,1.6-0.2c0.1-0.2,0.3-0.6,0.5-1.3h0.2c0,0.4-0.1,0.7-0.1,1.1l0,0.9
			c-0.6,0-2.5-0.1-3.2-0.1c-1.1,0-2.3,0-3.1,0.1v-0.2l0.9-0.3c0.3-0.1,0.4-0.2,0.4-1.1V18.7z"/>
		<path class="st0" d="M27.2,22c0-0.2,0-0.3-0.6-0.5l-0.7-0.3V21c0.6,0,1.2,0.1,1.8,0.1c0.6,0,1.1-0.1,1.6-0.1v0.2l-0.8,0.4
			c-0.2,0.1-0.3,0.2-0.3,0.5V24c0,0.1,0,0.3,0,0.6c-0.5,0.1-1.5,0.3-2.3,0.3c-2.8,0-4.5-1.6-4.5-3.9c0-2.8,2.6-4.2,4.8-4.2
			c0.7,0,1.2,0.1,1.7,0.2c0,0.3,0,0.6,0,0.9c0,0.4,0,0.7,0,1.1h-0.2c-0.2-0.5-0.4-1.2-0.6-1.4c-0.1-0.2-0.9-0.3-1.3-0.3
			c-1.7,0-3.2,1.2-3.2,3.6c0,2.1,1.3,3.6,3.1,3.6c0.5,0,1-0.1,1.4-0.2c0-0.2,0-0.4,0-0.5V22z"/>
		<path class="st0" d="M40.1,17l-0.5,0.2c-0.3,0.1-0.5,0.2-0.5,0.5c0,0.7,0,1.7,0,3.9c0,2.4-1.2,3.3-3,3.3c-1.8,0-3-0.8-3-2.7v-3.5
			c0-1,0-1.3-0.4-1.4L31.8,17v-0.2c0.6,0,1.2,0.1,1.8,0.1c0.7,0,1.3,0,1.9-0.1V17l-0.6,0.2c-0.7,0.3-0.8,0.3-0.8,0.7
			c0,0.7,0,1.8,0,3.7c0,1.6,0.4,2.6,2.3,2.6c1.3,0,2.1-0.8,2.1-2.3c0-1.5,0-3.5-0.1-4.3c0-0.2-0.2-0.3-0.5-0.4L37.1,17v-0.2
			c0.5,0,1.1,0.1,1.6,0.1c0.5,0,0.9,0,1.4-0.1V17z"/>
		<path class="st0" d="M48.9,23.3l-1.7-2.5c1.1-0.2,2-0.8,2-2c0-1.2-1.1-1.9-2.7-1.9c-0.9,0-1.6,0.1-2.2,0.1c-0.7,0-1.2,0-1.7-0.1
			V17l1,0.3c0.3,0.1,0.3,0.2,0.3,1.3v4.4c0,0.9,0,1-0.4,1.1l-0.9,0.3v0.2c0.6,0,1.3-0.1,1.9-0.1c0.4,0,1.3,0,1.8,0.1v-0.2l-1-0.3
			c-0.3-0.1-0.4-0.4-0.4-2v-1.4H46c0.8,1,1.9,2.6,2.6,3.9c0.3,0,0.6,0,0.9,0c0.3,0,0.6,0,0.9,0v-0.2C49.7,24.4,49.7,24.3,48.9,23.3z
			 M45.9,20.4H45v-3.1c0.4,0,0.7,0,1.1,0c1.2,0,1.9,0.5,1.9,1.5C48.1,20.2,47,20.4,45.9,20.4z"/>
		<path class="st0" d="M56.5,16.7c-2.5,0-4,1.7-4,4.2c0,2,1.3,4,3.8,4c2.4,0,3.9-1.9,3.9-4.4C60.2,18.3,58.7,16.7,56.5,16.7z
			 M56.4,24.4c-1.8,0-2.7-1.7-2.7-4.2c0-1.7,0.9-3.2,2.6-3.2c2,0,2.6,2,2.6,4C58.9,22.8,58.3,24.4,56.4,24.4z"/>
		<path class="st0" d="M63.1,22.5h0.2l0.4,1.6c0.4,0.2,0.9,0.3,1.3,0.3c1,0,1.9-0.4,1.9-1.6c0-1.7-3.8-1.6-3.8-3.9
			c0-1.5,1.4-2.2,2.7-2.2c0.5,0,1.3,0.2,1.8,0.4l-0.1,1.7h-0.1l-0.5-1.4c-0.4-0.2-0.8-0.2-1.2-0.2c-0.8,0-1.5,0.6-1.5,1.4
			c0,1.9,3.8,1.4,3.8,4c0,1.1-0.8,2.3-3.2,2.3c-0.6,0-1.1-0.1-1.8-0.3L63.1,22.5z"/>
		<path class="st0" d="M59.5,32h1l3.7-2.5c0,0,1.5-0.9,0.6-1.7c-0.8-0.8-2.2,0.8-2.2,0.8L59.5,32z"/>
		<path class="st0" d="M10.6,40.7L10.6,40.7c2.3-0.3,4.6-1.5,4.6-3.6c0-3-2.7-4.1-5.3-4.1c-1.4,0-3.3,0.2-4.3,0.2
			c-1,0-2.3-0.1-3.6-0.2v0.3L4,34.1c0.5,0.2,0.6,0.3,0.6,2.7v9c0,1.9-0.1,2-0.8,2.2l-1.9,0.6V49C3,48.9,4,48.8,5.2,48.8
			c1.5,0,3.5,0.2,5.4,0.2c3.6,0,5.4-1.9,5.4-4.2C15.9,41.8,13.1,40.9,10.6,40.7z M6.7,36.9c0-1.1,0-1.8,0.1-3
			c0.8-0.1,1.4-0.1,2.2-0.1c2.1,0,3.8,0.9,3.8,3.3c0,2.8-2.5,3.1-4.2,3.1H6.7V36.9z M8.7,48.1c-0.6,0-1.2,0-1.9-0.1
			c-0.1-0.8-0.1-1.5-0.1-2.3v-4.7h1.8c2.8,0,5.1,0.9,5.1,3.6C13.5,47.6,11.1,48.1,8.7,48.1z"/>
		<path class="st0" d="M29.1,32.7c-5,0-8.1,3.5-8.1,8.4c0,4,2.6,8.1,7.7,8.1c4.9,0,7.9-3.9,7.9-8.8C36.6,35.9,33.7,32.7,29.1,32.7z
			 M29,48.4c-3.6,0-5.4-3.4-5.4-8.5c0-3.5,1.9-6.4,5.3-6.4c4.1,0,5.2,3.9,5.2,8.1C34.1,45,32.7,48.4,29,48.4z"/>
		<path class="st0" d="M44,36.7c0-2.3-0.1-2.5-0.6-2.7l-2.1-0.7V33c1.2,0.1,2.4,0.2,3.7,0.2s2.5-0.1,4-0.2v0.3l-2.3,0.7
			c-0.5,0.2-0.6,0.3-0.6,2.9v9.4v1.5h4.8c1.2,0,1.4-0.2,1.9-1.2l0.8-1.7h0.3l-0.2,4c-2.4-0.1-5.7-0.2-7.2-0.2
			c-1.7,0-3.4,0.1-5.1,0.2v-0.3l1.9-0.6c0.7-0.2,0.8-0.3,0.8-2.2V36.7z"/>
		<path class="st0" d="M57.4,48.6l1.9-0.6c0.6-0.2,0.7-0.3,0.7-2.2c0-1.5,0.1-3,0.1-4.5c0-1.5,0-3-0.1-4.5c-0.1-2.3-0.1-2.5-0.5-2.7
			l-2.1-0.7V33c1.2,0.1,2.4,0.2,3.8,0.2c1.2,0,2.5-0.1,3.7-0.2v0.3l-2.1,0.7c-0.5,0.2-0.5,0.3-0.5,2.7c0,1.5-0.1,3-0.1,4.5
			c0,1.5,0,3,0.1,4.5c0,1.9,0.1,2,0.7,2.2l1.9,0.6V49c-1.2-0.1-2.6-0.2-3.7-0.2c-1.2,0-2.7,0.1-3.8,0.2V48.6z"/>
		<path class="st0" d="M68.3,33c1.1,0.1,2.3,0.2,3.5,0.2c1,0,2.1-0.1,3.2-0.2v0.3L74,33.6c-1.1,0.3-1.4,0.4-1.4,0.7
			c0,0.5,3.2,8.2,4.3,10.9c1.5-3.6,2.9-7.2,3.8-10c0.1-0.4,0.2-0.7,0.2-1c0-0.3-0.8-0.5-1.9-0.9V33c0.9,0.1,1.9,0.2,2.8,0.2
			c0.8,0,1.5-0.1,2.3-0.2v0.3c-1.1,0.3-1.4,0.5-1.8,1.4c-1.6,3.4-3.5,8.3-5.8,14.5H76c-1.6-4.5-4.1-10.8-5.7-14.4
			c-0.4-0.9-0.6-1-1.4-1.3l-0.7-0.2V33z"/>
		<path class="st0" d="M98.8,47.9c-2.1-5-4.3-10.2-6.3-15.4h-0.5c-1.8,4.5-4.5,10.2-6.6,15.3c-0.6,0.3-1.3,0.6-1.9,0.8V49
			c0.9-0.1,1.8-0.2,2.8-0.2c1,0,2,0.1,2.9,0.2v-0.3L87,47.8c0.3-1.4,0.7-2.9,1.4-4.1c1,0,2.1,0,3.1,0c1,0,2.1,0,3.2,0
			c0.3,0.7,1.1,3.1,1.4,4.1c-0.7,0.3-1.8,0.6-2.4,0.8V49c1.1-0.1,2.2-0.2,3.3-0.2c1.3,0,2.6,0.1,3.9,0.2v-0.3L98.8,47.9z M88.7,42.7
			l2.9-6.6l2.7,6.6H88.7z"/>
		<path class="st0" d="M115.3,46l-3.4-5.1c2.3-0.4,4.1-1.6,4.1-4.1c0-2.5-2.1-3.8-5.4-3.8c-1.8,0-3.2,0.2-4.5,0.2
			c-1.3,0-2.5-0.1-3.4-0.2v0.3l2.1,0.7c0.5,0.2,0.6,0.3,0.6,2.7v9c0,1.9-0.1,2-0.8,2.2l-1.9,0.6V49c1.2-0.1,2.6-0.2,3.9-0.2
			c0.9,0,2.5,0.1,3.6,0.2v-0.3l-2-0.7c-0.6-0.2-0.7-0.8-0.7-4v-2.9h1.9c1.5,2,3.8,5.2,5.3,7.9c0.6,0,1.2-0.1,1.8-0.1
			c0.6,0,1.2,0,1.7,0.1l0-0.3C116.8,48.4,116.7,48.2,115.3,46z M109.1,40.3h-1.7v-6.2c0.7,0,1.5,0,2.3,0c2.3,0,3.8,0.9,3.8,3.1
			C113.5,39.9,111.4,40.3,109.1,40.3z"/>
	</g>
	<polygon class="st1" points="138.9,4.3 184.1,4.3 184.1,49.5 138.9,49.5 138.9,4.3 	"/>
	<g>
		<path class="st0" d="M162.4,6c6.1-2.2,10.2,1,10.2,1s-4.1-1.1-7.4-0.3L162.4,6L162.4,6z"/>
		<path class="st0" d="M165.4,8.9c7-1.1,7.2,1.1,7.2,1.1s-1.4-0.6-4.7-0.3L165.4,8.9L165.4,8.9z"/>
		<path class="st0" d="M160.8,31.3c2.8-2.6,6.4-2.1,7.4-0.5c1.4,2.1,0.7,4.6-1.3,6.4c0,0,2.7-3,0.8-5.5c-1-1.4-3.9-1.4-6.1,0.4
			c-2.2,1.8-4.3,6.4,0.9,7.5C158,40,157,34.6,160.8,31.3L160.8,31.3z"/>
		<path class="st0" d="M175.5,20.5c20-8.2,19.3,15.9-14.8,37.6C188.7,35.2,193.9,17.7,175.5,20.5L175.5,20.5z"/>
		<path class="st0" d="M146.3,33.6c-19.8,7.7-7.8,15.9-7.8,15.9S131.2,41.6,146.3,33.6L146.3,33.6z"/>
		<path class="st0" d="M163.9,49.4c12.6-6.4,4.3-13.1,4.3-13.1s4.3,7.2-5.8,13.1H163.9L163.9,49.4z"/>
		<path class="st0" d="M146,35.8c0,0,1.9-4.1,3.3-9.9C149.3,25.8,150,31.5,146,35.8L146,35.8z"/>
		<path class="st0" d="M142.4,36c0,0-11.2-10.9,6.4-18.6c5.1-2.3,11.6-2.8,14.6,1.4c0.9,1.3,1,10-8.4,16.6c-4.1-1.3-4.4-3.6-4.4-3.6
			c1.9,2.2,4.5,2.7,4.5,2.7c7.7-6.4,8.1-14.3,7.1-15.2c-3-2.7-8-2.7-12.8-0.8C134,24.7,142.4,36,142.4,36L142.4,36z"/>
		<path class="st0" d="M149.8,49.4h-1.9c0,0,4.4-7.6,11.2-9C159,40.4,152.9,42.8,149.8,49.4L149.8,49.4z"/>
		<path class="st0" d="M171.8,12.1c0,0-1,1.3,0,4.1c1,2.7,3.8,5.4,3.8,5.4S172.5,17,171.8,12.1L171.8,12.1z"/>
		<path class="st0" d="M151.9,8.8c0,0,0.3-4.6,6.6-6.2c8.8-2.2,12.5,1.5,12.5,1.5s-5-1.6-11.7-0.3c-1.9,0.4-4.7,1.8-5.7,4.6
			c-0.1,0.3,2.6,1.3,2.6,1.3s2.3,10.2,8.6,13.9c2.7-1.1,4.6-4.2,4.6-4.2c0,0-0.4,3.5-4.4,5c-7.6-4-10.1-13.9-10.1-13.9
			S152.1,9.5,151.9,8.8L151.9,8.8z"/>
		<path class="st0" d="M154.5,21.8c-14.3,3.7-8.7,9.8-8.7,9.8S142.7,26.8,154.5,21.8L154.5,21.8z"/>
	</g>
</g>
</svg>
