<?xml version="1.0" encoding="utf-8"?>
<!-- Generator: Adobe Illustrator 25.2.3, SVG Export Plug-In . SVG Version: 6.00 Build 0)  -->
<svg version="1.1" id="Layer_1" xmlns="http://www.w3.org/2000/svg" xmlns:xlink="http://www.w3.org/1999/xlink" x="0px" y="0px"
	 viewBox="0 0 200 60" style="enable-background:new 0 0 200 60;" xml:space="preserve">
<style type="text/css">
	.st0{fill-rule:evenodd;clip-rule:evenodd;fill:#001E60;}
	.st1{fill-rule:evenodd;clip-rule:evenodd;fill:#E7601C;}
	.st2{fill:none;stroke:#E7601C;stroke-width:0.1514;stroke-miterlimit:22.9256;}
	.st3{fill:none;stroke:#001E60;stroke-width:1.0026;stroke-miterlimit:22.9256;}
</style>
<g>
	<path class="st0" d="M7.6,2.9h62.3c2.6,0,4.8,2.2,4.8,4.9v44.3c0,2.7-2.2,4.9-4.8,4.9H7.6c-2.6,0-4.8-2.2-4.8-4.9V7.8
		C2.8,5.1,5,2.9,7.6,2.9"/>
	<path class="st1" d="M8.6,27.3C8.3,13.5,17.8,7.9,26.5,7.9c4.8,0,10.8,1.5,17.3,5.1c9.3,2.1,17.4-0.5,24.7-5.4
		c0.4,12.8-10.1,15.1-24.8,6C29.1,11.5,15.9,14.4,8.6,27.3z M41.3,12.6c-1.9-0.2-3.7-0.3-5.6-0.3l-1.3,0l-1.3,0l-1.3,0.1l-1.3,0.1
		l-1.3,0.2L28,12.9l-1.2,0.2l-1.2,0.3l-1.2,0.3l-1.2,0.4L22,14.5L20.9,15l-1.1,0.5l-1.1,0.6l-1.1,0.6l-1,0.7l-1,0.7l-1,0.8l-1,0.8
		l-0.9,0.9l-0.9,0.9l-0.9,1l-0.8,1l-0.8,1l0.1-0.8l0.2-1.1l0.2-1l0.2-1l0.3-1l0.3-0.9l0.4-0.9l0.4-0.8l0.4-0.8l0.5-0.7l0.5-0.7
		l0.5-0.7l0.6-0.6l0.6-0.6l0.6-0.5l0.6-0.5l0.7-0.5l0.7-0.4l0.7-0.4l0.7-0.4l0.7-0.3l0.8-0.3L21,9.4l0.8-0.2l0.8-0.2l0.8-0.1
		l0.8-0.1l0.8-0.1l0.8,0l1.2,0c0.9,0,1.9,0.1,2.8,0.2c0.7,0.1,1.3,0.2,2,0.3c1.1,0.2,2.1,0.5,3.1,0.8l1.1,0.3
		C37.8,11,39.6,11.7,41.3,12.6z M46.3,14.3l1.7,0.2l1.7,0.1l1.7,0l1.7-0.1l1.6-0.2l1.6-0.3l1.6-0.4l1.6-0.5c0.8-0.3,1.5-0.5,2.3-0.8
		l1.5-0.6c1.6-0.7,3.1-1.6,4.6-2.5l0,0.8l-0.1,1l-0.2,0.9l-0.2,0.9L67,13.5l-0.3,0.7l-0.4,0.7l-0.4,0.6l-0.5,0.5l-0.5,0.5L64.3,17
		l-0.6,0.4l-0.6,0.3l-0.7,0.3l-0.7,0.2l-0.8,0.1L60,18.4l-0.9,0l-0.9,0l-1-0.1l-1-0.2l-1.1-0.2l-1.1-0.3L53,17.3l-1.2-0.4l-1.2-0.5
		l-1.2-0.5C48.3,15.3,47.3,14.8,46.3,14.3z"/>
	<path class="st2" d="M8.6,27.3C8.3,13.5,17.8,7.9,26.5,7.9c4.8,0,10.8,1.5,17.3,5.1c9.3,2.1,17.4-0.5,24.7-5.4
		c0.4,12.8-10.1,15.1-24.8,6C29.1,11.5,15.9,14.4,8.6,27.3z M41.3,12.6c-1.9-0.2-3.7-0.3-5.6-0.3l-1.3,0l-1.3,0l-1.3,0.1l-1.3,0.1
		l-1.3,0.2L28,12.9l-1.2,0.2l-1.2,0.3l-1.2,0.3l-1.2,0.4L22,14.5L20.9,15l-1.1,0.5l-1.1,0.6l-1.1,0.6l-1,0.7l-1,0.7l-1,0.8l-1,0.8
		l-0.9,0.9l-0.9,0.9l-0.9,1l-0.8,1l-0.8,1l0.1-0.8l0.2-1.1l0.2-1l0.2-1l0.3-1l0.3-0.9l0.4-0.9l0.4-0.8l0.4-0.8l0.5-0.7l0.5-0.7
		l0.5-0.7l0.6-0.6l0.6-0.6l0.6-0.5l0.6-0.5l0.7-0.5l0.7-0.4l0.7-0.4l0.7-0.4l0.7-0.3l0.8-0.3L21,9.4l0.8-0.2l0.8-0.2l0.8-0.1
		l0.8-0.1l0.8-0.1l0.8,0l1.2,0c0.9,0,1.9,0.1,2.8,0.2c0.7,0.1,1.3,0.2,2,0.3c1.1,0.2,2.1,0.5,3.1,0.8l1.1,0.3
		C37.8,11,39.6,11.7,41.3,12.6z M46.3,14.3l1.7,0.2l1.7,0.1l1.7,0l1.7-0.1l1.6-0.2l1.6-0.3l1.6-0.4l1.6-0.5c0.8-0.3,1.5-0.5,2.3-0.8
		l1.5-0.6c1.6-0.7,3.1-1.6,4.6-2.5l0,0.8l-0.1,1l-0.2,0.9l-0.2,0.9L67,13.5l-0.3,0.7l-0.4,0.7l-0.4,0.6l-0.5,0.5l-0.5,0.5L64.3,17
		l-0.6,0.4l-0.6,0.3l-0.7,0.3l-0.7,0.2l-0.8,0.1L60,18.4l-0.9,0l-0.9,0l-1-0.1l-1-0.2l-1.1-0.2l-1.1-0.3L53,17.3l-1.2-0.4l-1.2-0.5
		l-1.2-0.5C48.3,15.3,47.3,14.8,46.3,14.3z"/>
	<path class="st1" d="M38.6,15.1c1.3,0,2.4,1.1,2.4,2.4S39.9,20,38.6,20c-1.3,0-2.4-1.1-2.4-2.4S37.3,15.1,38.6,15.1"/>
	<path class="st1" d="M64.6,26.9c0.2,1,0,1.7-0.6,2.3c-0.8,0.7-2.5,0.9-3.6,0.2c-2.8-2.2-1.3-5.9,1.1-7c2.5-1.3,5.5-0.9,7.5,1.7
		c1.5,2.2,1.6,4.8-0.2,8c-4.7,8.1-17,12.7-27.8,12.7c-0.3,3.2,4.2,4.5,9.7,5.5v1.1H26.5v-1.1c6-1,10-2.7,9.7-5.5
		c-5.9,0-11.2-1.1-16.4-3.1C11.1,38.5,7.1,33.2,7.1,29v-1.1h2.6l0,1c0,1.6,2.2,3.2,3,3.2h27.4h21.3c2.4-0.1,4.3-1.4,5-2.9
		c1.1-2.7-0.5-4.5-2-4.8c-1.4-0.2-3.4,0.1-3.3,2.3C61.1,28.3,64.3,28.5,64.6,26.9"/>
	<path class="st1" d="M35.8,22.4c-1.7,1.9-3.5,3.4-6,4.8c-2.9,1.4-5.5,1.5-7.7,2.9c-0.3,0.2-0.5,0.3-0.5,0.5h33.9
		c0-0.3-0.1-0.5-0.7-0.9c-1.7-1.1-5.7-1.7-7.5-2.6c-2.5-1.4-4.5-3-6.1-4.8C39.9,20.6,37.2,20.6,35.8,22.4"/>
	<path class="st0" d="M102.1,32.5v-1.6h8.3v-2h-8.3v-1.8c0-0.4,0.5-0.8,1.2-0.8h7.7v-2h-9.4c-2,0-2.8,1.1-2.8,2.2v2.8v4.4
		c0,1,0.9,2.2,2.8,2.2h9.4v-2h-7.7c-0.6,0-1.2-0.4-1.2-0.8V32.5z"/>
	<path class="st3" d="M102.1,32.5v-1.6h8.3v-2h-8.3v-1.8c0-0.4,0.5-0.8,1.2-0.8h7.7v-2h-9.4c-2,0-2.8,1.1-2.8,2.2v2.8v4.4
		c0,1,0.9,2.2,2.8,2.2h9.4v-2h-7.7c-0.6,0-1.2-0.4-1.2-0.8V32.5z"/>
	<polygon class="st0" points="114.3,36 114.3,24.5 117.7,24.5 117.7,34 125.9,34 125.9,36 	"/>
	<polygon class="st3" points="114.3,36 114.3,24.5 117.7,24.5 117.7,34 125.9,34 125.9,36 	"/>
	<path class="st0" d="M102.2,16.6V15h8.3v-2h-8.3v-1.8c0-0.4,0.5-0.8,1.2-0.8h7.7v-2h-9.4c-2,0-2.8,1.1-2.8,2.2v2.8v4.4
		c0,1,0.9,2.2,2.8,2.2h9.4v-2h-7.7c-0.6,0-1.2-0.4-1.2-0.8V16.6z"/>
	<path class="st3" d="M102.2,16.6V15h8.3v-2h-8.3v-1.8c0-0.4,0.5-0.8,1.2-0.8h7.7v-2h-9.4c-2,0-2.8,1.1-2.8,2.2v2.8v4.4
		c0,1,0.9,2.2,2.8,2.2h9.4v-2h-7.7c-0.6,0-1.2-0.4-1.2-0.8V16.6z"/>
	<path class="st0" d="M82.5,16.4l3.2-0.2c0.2,0.8,0.6,1.3,1.2,1.7c0.6,0.4,1.4,0.5,2.4,0.5c1.1,0,1.9-0.2,2.4-0.5
		c0.5-0.3,0.8-0.7,0.8-1.1c0-0.3-0.1-0.5-0.3-0.7c-0.2-0.2-0.6-0.4-1.2-0.5c-0.4-0.1-1.3-0.3-2.7-0.5c-1.8-0.3-3-0.7-3.7-1.1
		c-1-0.6-1.5-1.4-1.5-2.3c0-0.6,0.2-1.1,0.7-1.7C84.3,9.4,85,9,85.9,8.7c0.9-0.3,2-0.4,3.2-0.4c2.1,0,3.6,0.3,4.7,1
		c1,0.6,1.6,1.5,1.6,2.6l-3.3,0.1c-0.1-0.6-0.4-1-0.9-1.3c-0.5-0.3-1.2-0.4-2.1-0.4c-1,0-1.7,0.1-2.3,0.4c-0.4,0.2-0.5,0.4-0.5,0.7
		c0,0.3,0.2,0.5,0.5,0.7c0.4,0.2,1.4,0.5,3.1,0.8c1.6,0.3,2.8,0.5,3.6,0.8c0.8,0.3,1.4,0.7,1.8,1.2c0.4,0.5,0.7,1.1,0.7,1.8
		c0,0.7-0.3,1.3-0.8,1.9c-0.5,0.6-1.3,1-2.2,1.3c-1,0.3-2.1,0.4-3.6,0.4c-2.1,0-3.7-0.3-4.8-1C83.4,18.6,82.8,17.6,82.5,16.4z"/>
	<path class="st3" d="M82.5,16.4l3.2-0.2c0.2,0.8,0.6,1.3,1.2,1.7c0.6,0.4,1.4,0.5,2.4,0.5c1.1,0,1.9-0.2,2.4-0.5
		c0.5-0.3,0.8-0.7,0.8-1.1c0-0.3-0.1-0.5-0.3-0.7c-0.2-0.2-0.6-0.4-1.2-0.5c-0.4-0.1-1.3-0.3-2.7-0.5c-1.8-0.3-3-0.7-3.7-1.1
		c-1-0.6-1.5-1.4-1.5-2.3c0-0.6,0.2-1.1,0.7-1.7C84.3,9.4,85,9,85.9,8.7c0.9-0.3,2-0.4,3.2-0.4c2.1,0,3.6,0.3,4.7,1
		c1,0.6,1.6,1.5,1.6,2.6l-3.3,0.1c-0.1-0.6-0.4-1-0.9-1.3c-0.5-0.3-1.2-0.4-2.1-0.4c-1,0-1.7,0.1-2.3,0.4c-0.4,0.2-0.5,0.4-0.5,0.7
		c0,0.3,0.2,0.5,0.5,0.7c0.4,0.2,1.4,0.5,3.1,0.8c1.6,0.3,2.8,0.5,3.6,0.8c0.8,0.3,1.4,0.7,1.8,1.2c0.4,0.5,0.7,1.1,0.7,1.8
		c0,0.7-0.3,1.3-0.8,1.9c-0.5,0.6-1.3,1-2.2,1.3c-1,0.3-2.1,0.4-3.6,0.4c-2.1,0-3.7-0.3-4.8-1C83.4,18.6,82.8,17.6,82.5,16.4z"/>
	<path class="st0" d="M122.1,15.9v-2h7.2v4.6c-0.7,0.5-1.7,0.9-3,1.3c-1.3,0.4-2.7,0.5-4,0.5c-1.7,0-3.2-0.3-4.5-0.8
		c-1.3-0.5-2.2-1.2-2.9-2.2c-0.6-0.9-1-2-1-3.1c0-1.2,0.4-2.3,1.1-3.2c0.7-0.9,1.8-1.7,3.2-2.2c1.1-0.4,2.4-0.6,3.9-0.6
		c2,0,3.6,0.3,4.8,0.9c1.1,0.6,1.9,1.4,2.2,2.5l-3.3,0.4c-0.2-0.6-0.7-1-1.3-1.3c-0.6-0.3-1.4-0.5-2.4-0.5c-1.5,0-2.6,0.3-3.5,1
		c-0.9,0.6-1.3,1.6-1.3,2.9c0,1.4,0.4,2.4,1.3,3.1c0.9,0.7,2,1,3.4,1c0.7,0,1.4-0.1,2.1-0.3c0.7-0.2,1.3-0.4,1.8-0.7v-1.5H122.1z"/>
	<path class="st3" d="M122.1,15.9v-2h7.2v4.6c-0.7,0.5-1.7,0.9-3,1.3c-1.3,0.4-2.7,0.5-4,0.5c-1.7,0-3.2-0.3-4.5-0.8
		c-1.3-0.5-2.2-1.2-2.9-2.2c-0.6-0.9-1-2-1-3.1c0-1.2,0.4-2.3,1.1-3.2c0.7-0.9,1.8-1.7,3.2-2.2c1.1-0.4,2.4-0.6,3.9-0.6
		c2,0,3.6,0.3,4.8,0.9c1.1,0.6,1.9,1.4,2.2,2.5l-3.3,0.4c-0.2-0.6-0.7-1-1.3-1.3c-0.6-0.3-1.4-0.5-2.4-0.5c-1.5,0-2.6,0.3-3.5,1
		c-0.9,0.6-1.3,1.6-1.3,2.9c0,1.4,0.4,2.4,1.3,3.1c0.9,0.7,2,1,3.4,1c0.7,0,1.4-0.1,2.1-0.3c0.7-0.2,1.3-0.4,1.8-0.7v-1.5H122.1z"/>
	<path class="st0" d="M132.6,8.5h3.3v6.3c0,1,0,1.6,0.1,1.9c0.1,0.5,0.5,0.9,1,1.1c0.5,0.3,1.3,0.4,2.2,0.4c0.9,0,1.7-0.1,2.1-0.4
		c0.5-0.3,0.8-0.6,0.9-1c0.1-0.4,0.1-1.1,0.1-2V8.5h3.3v6.1c0,1.4-0.1,2.4-0.3,3c-0.2,0.6-0.5,1.1-1,1.5c-0.5,0.4-1.1,0.7-1.9,0.9
		c-0.8,0.2-1.9,0.4-3.2,0.4c-1.6,0-2.8-0.1-3.6-0.4c-0.8-0.3-1.5-0.6-1.9-1c-0.5-0.4-0.8-0.8-0.9-1.3c-0.2-0.7-0.3-1.6-0.3-2.9V8.5z
		"/>
	<path class="st3" d="M132.6,8.5h3.3v6.3c0,1,0,1.6,0.1,1.9c0.1,0.5,0.5,0.9,1,1.1c0.5,0.3,1.3,0.4,2.2,0.4c0.9,0,1.7-0.1,2.1-0.4
		c0.5-0.3,0.8-0.6,0.9-1c0.1-0.4,0.1-1.1,0.1-2V8.5h3.3v6.1c0,1.4-0.1,2.4-0.3,3c-0.2,0.6-0.5,1.1-1,1.5c-0.5,0.4-1.1,0.7-1.9,0.9
		c-0.8,0.2-1.9,0.4-3.2,0.4c-1.6,0-2.8-0.1-3.6-0.4c-0.8-0.3-1.5-0.6-1.9-1c-0.5-0.4-0.8-0.8-0.9-1.3c-0.2-0.7-0.3-1.6-0.3-2.9V8.5z
		"/>
	<path class="st0" d="M183.8,16.4l3.2-0.2c0.2,0.8,0.6,1.3,1.2,1.7c0.6,0.4,1.4,0.5,2.4,0.5c1.1,0,1.9-0.2,2.4-0.5
		c0.5-0.3,0.8-0.7,0.8-1.1c0-0.3-0.1-0.5-0.3-0.7c-0.2-0.2-0.6-0.4-1.2-0.5c-0.4-0.1-1.3-0.3-2.7-0.5c-1.8-0.3-3-0.7-3.7-1.1
		c-1-0.6-1.5-1.4-1.5-2.3c0-0.6,0.2-1.1,0.7-1.7c0.5-0.5,1.2-0.9,2.1-1.2c0.9-0.3,2-0.4,3.2-0.4c2.1,0,3.6,0.3,4.7,1
		c1,0.6,1.6,1.5,1.6,2.6l-3.3,0.1c-0.1-0.6-0.4-1-0.9-1.3c-0.5-0.3-1.2-0.4-2.1-0.4c-1,0-1.7,0.1-2.3,0.4c-0.4,0.2-0.5,0.4-0.5,0.7
		c0,0.3,0.2,0.5,0.5,0.7c0.4,0.2,1.4,0.5,3.1,0.8c1.6,0.3,2.8,0.5,3.6,0.8c0.8,0.3,1.4,0.7,1.8,1.2c0.4,0.5,0.7,1.1,0.7,1.8
		c0,0.7-0.3,1.3-0.8,1.9c-0.5,0.6-1.3,1-2.2,1.3c-1,0.3-2.1,0.4-3.6,0.4c-2.1,0-3.7-0.3-4.8-1C184.7,18.6,184,17.6,183.8,16.4z"/>
	<path class="st3" d="M183.8,16.4l3.2-0.2c0.2,0.8,0.6,1.3,1.2,1.7c0.6,0.4,1.4,0.5,2.4,0.5c1.1,0,1.9-0.2,2.4-0.5
		c0.5-0.3,0.8-0.7,0.8-1.1c0-0.3-0.1-0.5-0.3-0.7c-0.2-0.2-0.6-0.4-1.2-0.5c-0.4-0.1-1.3-0.3-2.7-0.5c-1.8-0.3-3-0.7-3.7-1.1
		c-1-0.6-1.5-1.4-1.5-2.3c0-0.6,0.2-1.1,0.7-1.7c0.5-0.5,1.2-0.9,2.1-1.2c0.9-0.3,2-0.4,3.2-0.4c2.1,0,3.6,0.3,4.7,1
		c1,0.6,1.6,1.5,1.6,2.6l-3.3,0.1c-0.1-0.6-0.4-1-0.9-1.3c-0.5-0.3-1.2-0.4-2.1-0.4c-1,0-1.7,0.1-2.3,0.4c-0.4,0.2-0.5,0.4-0.5,0.7
		c0,0.3,0.2,0.5,0.5,0.7c0.4,0.2,1.4,0.5,3.1,0.8c1.6,0.3,2.8,0.5,3.6,0.8c0.8,0.3,1.4,0.7,1.8,1.2c0.4,0.5,0.7,1.1,0.7,1.8
		c0,0.7-0.3,1.3-0.8,1.9c-0.5,0.6-1.3,1-2.2,1.3c-1,0.3-2.1,0.4-3.6,0.4c-2.1,0-3.7-0.3-4.8-1C184.7,18.6,184,17.6,183.8,16.4z"/>
	<path class="st0" d="M97.4,48l3.2-0.2c0.2,0.8,0.6,1.3,1.2,1.7c0.6,0.4,1.4,0.5,2.4,0.5c1.1,0,1.9-0.2,2.4-0.5
		c0.5-0.3,0.8-0.7,0.8-1.1c0-0.3-0.1-0.5-0.3-0.7c-0.2-0.2-0.6-0.4-1.2-0.5c-0.4-0.1-1.3-0.3-2.7-0.5c-1.8-0.3-3-0.7-3.7-1.1
		c-1-0.6-1.5-1.4-1.5-2.3c0-0.6,0.2-1.1,0.7-1.7c0.5-0.5,1.2-0.9,2.1-1.2c0.9-0.3,2-0.4,3.2-0.4c2.1,0,3.6,0.3,4.7,1
		c1,0.6,1.6,1.5,1.6,2.6l-3.3,0.1c-0.1-0.6-0.4-1-0.9-1.3c-0.5-0.3-1.2-0.4-2.1-0.4c-1,0-1.7,0.1-2.3,0.4c-0.4,0.2-0.5,0.4-0.5,0.7
		c0,0.3,0.2,0.5,0.5,0.7c0.4,0.2,1.4,0.5,3.1,0.8c1.6,0.3,2.8,0.5,3.6,0.8c0.8,0.3,1.4,0.7,1.8,1.2c0.4,0.5,0.7,1.1,0.7,1.8
		c0,0.7-0.3,1.3-0.8,1.9c-0.5,0.6-1.3,1-2.2,1.3c-1,0.3-2.1,0.4-3.6,0.4c-2.1,0-3.7-0.3-4.8-1C98.3,50.3,97.6,49.3,97.4,48z"/>
	<path class="st3" d="M97.4,48l3.2-0.2c0.2,0.8,0.6,1.3,1.2,1.7c0.6,0.4,1.4,0.5,2.4,0.5c1.1,0,1.9-0.2,2.4-0.5
		c0.5-0.3,0.8-0.7,0.8-1.1c0-0.3-0.1-0.5-0.3-0.7c-0.2-0.2-0.6-0.4-1.2-0.5c-0.4-0.1-1.3-0.3-2.7-0.5c-1.8-0.3-3-0.7-3.7-1.1
		c-1-0.6-1.5-1.4-1.5-2.3c0-0.6,0.2-1.1,0.7-1.7c0.5-0.5,1.2-0.9,2.1-1.2c0.9-0.3,2-0.4,3.2-0.4c2.1,0,3.6,0.3,4.7,1
		c1,0.6,1.6,1.5,1.6,2.6l-3.3,0.1c-0.1-0.6-0.4-1-0.9-1.3c-0.5-0.3-1.2-0.4-2.1-0.4c-1,0-1.7,0.1-2.3,0.4c-0.4,0.2-0.5,0.4-0.5,0.7
		c0,0.3,0.2,0.5,0.5,0.7c0.4,0.2,1.4,0.5,3.1,0.8c1.6,0.3,2.8,0.5,3.6,0.8c0.8,0.3,1.4,0.7,1.8,1.2c0.4,0.5,0.7,1.1,0.7,1.8
		c0,0.7-0.3,1.3-0.8,1.9c-0.5,0.6-1.3,1-2.2,1.3c-1,0.3-2.1,0.4-3.6,0.4c-2.1,0-3.7-0.3-4.8-1C98.3,50.3,97.6,49.3,97.4,48z"/>
	<polygon class="st0" points="117.6,51.8 117.6,42.2 112.7,42.2 112.7,40.2 125.8,40.2 125.8,42.2 120.9,42.2 120.9,51.8 	"/>
	<polygon class="st3" points="117.6,51.8 117.6,42.2 112.7,42.2 112.7,40.2 125.8,40.2 125.8,42.2 120.9,42.2 120.9,51.8 	"/>
	<path class="st0" d="M85.9,48.3v-1.6h8.3v-2h-8.3v-1.8c0-0.4,0.5-0.8,1.2-0.8h7.7v-2h-9.4c-2,0-2.8,1.1-2.8,2.2v2.8v4.4
		c0,1,0.9,2.2,2.8,2.2h9.4v-2h-7.7c-0.6,0-1.2-0.4-1.2-0.8V48.3z"/>
	<path class="st3" d="M85.9,48.3v-1.6h8.3v-2h-8.3v-1.8c0-0.4,0.5-0.8,1.2-0.8h7.7v-2h-9.4c-2,0-2.8,1.1-2.8,2.2v2.8v4.4
		c0,1,0.9,2.2,2.8,2.2h9.4v-2h-7.7c-0.6,0-1.2-0.4-1.2-0.8V48.3z"/>
	<path class="st0" d="M152.9,13.4h2.5c1.6,0,2.6,0,3-0.1c0.4-0.1,0.7-0.3,0.9-0.5c0.2-0.2,0.3-0.5,0.3-0.9c0-0.4-0.1-0.7-0.4-0.9
		c-0.3-0.2-0.7-0.4-1.3-0.5c-0.3,0-1.1,0-2.4,0h-2.6V13.4z M149.6,20.1V8.5h7c1.8,0,3,0.1,3.8,0.3c0.8,0.2,1.4,0.6,1.9,1.1
		c0.5,0.5,0.7,1.1,0.7,1.8c0,0.9-0.4,1.6-1.1,2.2c-0.7,0.6-1.8,0.9-3.3,1.1c0.7,0.3,1.3,0.6,1.8,1c0.5,0.4,1.1,1,1.9,1.9l2,2.3h-4
		l-2.4-2.5c-0.9-0.9-1.4-1.5-1.8-1.7c-0.3-0.2-0.6-0.4-1-0.5c-0.4-0.1-0.9-0.1-1.7-0.1h-0.7v4.8H149.6z"/>
	<path class="st3" d="M152.9,13.4h2.5c1.6,0,2.6,0,3-0.1c0.4-0.1,0.7-0.3,0.9-0.5c0.2-0.2,0.3-0.5,0.3-0.9c0-0.4-0.1-0.7-0.4-0.9
		c-0.3-0.2-0.7-0.4-1.3-0.5c-0.3,0-1.1,0-2.4,0h-2.6V13.4z M149.6,20.1V8.5h7c1.8,0,3,0.1,3.8,0.3c0.8,0.2,1.4,0.6,1.9,1.1
		c0.5,0.5,0.7,1.1,0.7,1.8c0,0.9-0.4,1.6-1.1,2.2c-0.7,0.6-1.8,0.9-3.3,1.1c0.7,0.3,1.3,0.6,1.8,1c0.5,0.4,1.1,1,1.9,1.9l2,2.3h-4
		l-2.4-2.5c-0.9-0.9-1.4-1.5-1.8-1.7c-0.3-0.2-0.6-0.4-1-0.5c-0.4-0.1-0.9-0.1-1.7-0.1h-0.7v4.8H149.6z"/>
	<path class="st0" d="M169.2,14.3c0,1.3,0.4,2.3,1.3,3c0.9,0.7,2,1,3.3,1c1.3,0,2.4-0.3,3.3-1c0.8-0.7,1.3-1.7,1.3-3
		c0-1.3-0.4-2.3-1.2-3c-0.8-0.7-1.9-1-3.3-1c-1.4,0-2.5,0.3-3.3,1C169.7,12,169.2,13,169.2,14.3z M165.8,14.4c0-1.2,0.2-2.2,0.7-3
		c0.4-0.6,0.9-1.1,1.5-1.6c0.6-0.5,1.4-0.8,2.1-1c1-0.3,2.2-0.5,3.5-0.5c2.4,0,4.4,0.5,5.8,1.6c1.5,1.1,2.2,2.5,2.2,4.4
		c0,1.9-0.7,3.3-2.2,4.4c-1.4,1.1-3.4,1.6-5.8,1.6c-2.4,0-4.4-0.5-5.8-1.6C166.5,17.7,165.8,16.2,165.8,14.4z"/>
	<path class="st3" d="M169.2,14.3c0,1.3,0.4,2.3,1.3,3c0.9,0.7,2,1,3.3,1c1.3,0,2.4-0.3,3.3-1c0.8-0.7,1.3-1.7,1.3-3
		c0-1.3-0.4-2.3-1.2-3c-0.8-0.7-1.9-1-3.3-1c-1.4,0-2.5,0.3-3.3,1C169.7,12,169.2,13,169.2,14.3z M165.8,14.4c0-1.2,0.2-2.2,0.7-3
		c0.4-0.6,0.9-1.1,1.5-1.6c0.6-0.5,1.4-0.8,2.1-1c1-0.3,2.2-0.5,3.5-0.5c2.4,0,4.4,0.5,5.8,1.6c1.5,1.1,2.2,2.5,2.2,4.4
		c0,1.9-0.7,3.3-2.2,4.4c-1.4,1.1-3.4,1.6-5.8,1.6c-2.4,0-4.4-0.5-5.8-1.6C166.5,17.7,165.8,16.2,165.8,14.4z"/>
	<path class="st0" d="M131.2,46.6l0-2.7c0-2.6,6.4-2.6,6.3,0v2.7H131.2z M140.9,44v7.8h-3.3v-3.3h-6.4v3.3h-3.3V47v-3
		c0-2.5,1.9-3.8,5.6-3.8l1.6,0C138.8,40.2,140.9,41.5,140.9,44z"/>
	<path class="st3" d="M131.2,46.6l0-2.7c0-2.6,6.4-2.6,6.3,0v2.7H131.2z M140.9,44v7.8h-3.3v-3.3h-6.4v3.3h-3.3V47v-3
		c0-2.5,1.9-3.8,5.6-3.8l1.6,0C138.8,40.2,140.9,41.5,140.9,44z"/>
	<path class="st0" d="M146.7,42.2v7.7h2.5c0.9,0,1.6,0,2-0.1c0.5-0.1,1-0.3,1.3-0.5c0.4-0.2,0.6-0.6,0.9-1.1
		c0.2-0.5,0.3-1.2,0.3-2.1c0-0.9-0.1-1.6-0.3-2.1c-0.2-0.5-0.5-0.9-0.9-1.1c-0.4-0.3-0.9-0.4-1.5-0.5c-0.5-0.1-1.4-0.1-2.7-0.1
		H146.7z M143.4,40.2h6.1c1.4,0,2.4,0.1,3.1,0.2c1,0.2,1.8,0.6,2.5,1.1c0.7,0.5,1.2,1.1,1.6,1.9c0.4,0.7,0.5,1.7,0.5,2.7
		c0,1-0.2,1.8-0.5,2.5c-0.4,0.8-1,1.5-1.8,2.1c-0.6,0.4-1.4,0.7-2.3,0.9c-0.7,0.2-1.7,0.2-2.9,0.2h-6.2V40.2z"/>
	<path class="st3" d="M146.7,42.2v7.7h2.5c0.9,0,1.6,0,2-0.1c0.5-0.1,1-0.3,1.3-0.5c0.4-0.2,0.6-0.6,0.9-1.1
		c0.2-0.5,0.3-1.2,0.3-2.1c0-0.9-0.1-1.6-0.3-2.1c-0.2-0.5-0.5-0.9-0.9-1.1c-0.4-0.3-0.9-0.4-1.5-0.5c-0.5-0.1-1.4-0.1-2.7-0.1
		H146.7z M143.4,40.2h6.1c1.4,0,2.4,0.1,3.1,0.2c1,0.2,1.8,0.6,2.5,1.1c0.7,0.5,1.2,1.1,1.6,1.9c0.4,0.7,0.5,1.7,0.5,2.7
		c0,1-0.2,1.8-0.5,2.5c-0.4,0.8-1,1.5-1.8,2.1c-0.6,0.4-1.4,0.7-2.3,0.9c-0.7,0.2-1.7,0.2-2.9,0.2h-6.2V40.2z"/>
	<path class="st0" d="M163.1,46c0,1.3,0.4,2.3,1.3,3c0.9,0.7,2,1,3.3,1c1.3,0,2.4-0.3,3.3-1c0.8-0.7,1.3-1.7,1.3-3
		c0-1.3-0.4-2.3-1.2-3c-0.8-0.7-1.9-1-3.3-1c-1.4,0-2.5,0.3-3.3,1C163.5,43.7,163.1,44.6,163.1,46z M159.7,46.1c0-1.2,0.2-2.2,0.7-3
		c0.4-0.6,0.9-1.1,1.5-1.6c0.6-0.5,1.4-0.8,2.1-1c1-0.3,2.2-0.5,3.5-0.5c2.4,0,4.4,0.5,5.8,1.6c1.5,1.1,2.2,2.5,2.2,4.4
		c0,1.9-0.7,3.3-2.2,4.4c-1.4,1.1-3.4,1.6-5.8,1.6c-2.4,0-4.4-0.5-5.8-1.6C160.4,49.4,159.7,47.9,159.7,46.1z"/>
	<path class="st3" d="M163.1,46c0,1.3,0.4,2.3,1.3,3c0.9,0.7,2,1,3.3,1c1.3,0,2.4-0.3,3.3-1c0.8-0.7,1.3-1.7,1.3-3
		c0-1.3-0.4-2.3-1.2-3c-0.8-0.7-1.9-1-3.3-1c-1.4,0-2.5,0.3-3.3,1C163.5,43.7,163.1,44.6,163.1,46z M159.7,46.1c0-1.2,0.2-2.2,0.7-3
		c0.4-0.6,0.9-1.1,1.5-1.6c0.6-0.5,1.4-0.8,2.1-1c1-0.3,2.2-0.5,3.5-0.5c2.4,0,4.4,0.5,5.8,1.6c1.5,1.1,2.2,2.5,2.2,4.4
		c0,1.9-0.7,3.3-2.2,4.4c-1.4,1.1-3.4,1.6-5.8,1.6c-2.4,0-4.4-0.5-5.8-1.6C160.4,49.4,159.7,47.9,159.7,46.1z"/>
	<path class="st0" d="M85.9,26.3V34h2.5c0.9,0,1.6,0,2-0.1c0.5-0.1,1-0.3,1.3-0.5c0.4-0.2,0.6-0.6,0.9-1.1c0.2-0.5,0.3-1.2,0.3-2.1
		c0-0.9-0.1-1.6-0.3-2.1c-0.2-0.5-0.5-0.9-0.9-1.1c-0.4-0.3-0.9-0.4-1.5-0.5c-0.5-0.1-1.4-0.1-2.7-0.1H85.9z M82.6,24.4h6.1
		c1.4,0,2.4,0.1,3.1,0.2c1,0.2,1.8,0.6,2.5,1.1c0.7,0.5,1.2,1.1,1.6,1.9c0.4,0.7,0.5,1.7,0.5,2.7c0,1-0.2,1.8-0.5,2.5
		c-0.4,0.8-1,1.5-1.8,2.1c-0.6,0.4-1.4,0.7-2.3,0.9C91,35.9,90.1,36,88.8,36h-6.2V24.4z"/>
	<path class="st3" d="M85.9,26.3V34h2.5c0.9,0,1.6,0,2-0.1c0.5-0.1,1-0.3,1.3-0.5c0.4-0.2,0.6-0.6,0.9-1.1c0.2-0.5,0.3-1.2,0.3-2.1
		c0-0.9-0.1-1.6-0.3-2.1c-0.2-0.5-0.5-0.9-0.9-1.1c-0.4-0.3-0.9-0.4-1.5-0.5c-0.5-0.1-1.4-0.1-2.7-0.1H85.9z M82.6,24.4h6.1
		c1.4,0,2.4,0.1,3.1,0.2c1,0.2,1.8,0.6,2.5,1.1c0.7,0.5,1.2,1.1,1.6,1.9c0.4,0.7,0.5,1.7,0.5,2.7c0,1-0.2,1.8-0.5,2.5
		c-0.4,0.8-1,1.5-1.8,2.1c-0.6,0.4-1.4,0.7-2.3,0.9C91,35.9,90.1,36,88.8,36h-6.2V24.4z"/>
</g>
</svg>
