<svg xmlns="http://www.w3.org/2000/svg" xmlns:xlink="http://www.w3.org/1999/xlink" viewBox="0 0 315.92 315.92"><defs><style>.cls-1{fill:none;}.cls-2{clip-path:url(#clip-path);}.cls-3{fill:#026c38;}.cls-4{fill:#fff;}</style><clipPath id="clip-path"><circle class="cls-1" cx="157.96" cy="157.96" r="157.96"/></clipPath></defs><title>bolivar</title><g id="Capa_2" data-name="Capa 2"><g id="Capa_1-2" data-name="Capa 1"><g id="Capa_2-2" data-name="Capa 2"><g id="Capa_1-2-2" data-name="Capa 1-2"><g class="cls-2"><circle class="cls-3" cx="157.96" cy="157.96" r="157.96"/></g></g></g><g id="Page-1"><g id="Group-49"><path id="Fill-1" class="cls-4" d="M221.92,149.62v12c1.13-.85,2.68-1.7,4.24-2.68-1.13-1.42-3.82-4.95-4.24-9.32"/><path id="Fill-3" class="cls-4" d="M235.76,133.38a26.56,26.56,0,0,1,11.29-2.4,40.57,40.57,0,0,1-2.82-7.35s-3.81-1.27-4.09-2.25a9.34,9.34,0,0,1,4.09-6.36H222.06v32.76c.28-4.66,3.67-9.88,13.7-14.4"/><path id="Fill-5" class="cls-4" d="M255,178.56c14.26-8.33,8.19-18.49,8.19-18.49s11.58,9.46-6.07,18.49ZM252.7,153c4-3.67,9-3,10.45-.7,2,3,.85,6.49-1.83,9,0,0,3.81-4.24,1.13-7.77-1.42-2-5.51-2-8.62.56s-5.93,9,1.27,10.59c-6.35.57-7.76-7.06-2.4-11.72Zm-15.53,25.56h-2.68s6.21-10.73,15.67-12.71c0-.14-8.61,3.25-13,12.71Zm-.56-33.18s1.13,8.05-4.66,14a83.35,83.35,0,0,0,4.66-14Zm-5,8.05s-7.9-8.47,12.15-13.84c-16.52,7.06-12.15,13.84-12.15,13.84Zm30.93-30.92-3.39-1.13c9.88-1.56,10,1.55,10,1.55s-2.11-.85-6.63-.42ZM255,117.28c8.62-3,14.26,1.41,14.26,1.41s-5.79-1.55-10.3-.42Zm18.5,22s-3.81-4-5.22-7.63c-1.56-3.81,0-5.79,0-5.79.84,6.92,5.22,13.42,5.22,13.42Zm12,15.53V139c-2.54-1.56-6.49-2.12-12.14-1.28,5.08-2.11,9-2.68,12.14-2.11V114.88h-37a10.35,10.35,0,0,0-5.93,5.79c-.15.42,3.67,1.84,3.67,1.84a42,42,0,0,0,3.1,8.61,10.31,10.31,0,0,1,7.06,4.23c.43.71.85,2.83.29,5.79a8.57,8.57,0,0,0,1.55,1c3.81-1.55,6.35-5.93,6.35-5.93a9.25,9.25,0,0,1-6.21,7.06,7.51,7.51,0,0,1-1.83-1.13c-1,4.8-4.24,11.16-11.87,16.66-5.64-1.83-6.21-5.08-6.21-5.08a12.32,12.32,0,0,0,6.36,3.81c6.77-5.64,9.46-12,10.3-16.38a26.83,26.83,0,0,1-6.63-7.9,22.75,22.75,0,0,0-11.58,1.69c-18.78,7.77-12.29,20.9-10.31,24a59.85,59.85,0,0,1,5.93-2.69c-5.08,2.69-8.33,5.37-10.31,7.91V178.7h44.2c9.18-9.17,15.53-17.22,19.06-23.86Z"/><path id="Fill-7" class="cls-4" d="M254.68,135.92a9,9,0,0,0-4.1-2.26,27.48,27.48,0,0,0,4.52,6.07c.29-2,0-3.39-.42-3.81"/><path id="Fill-9" class="cls-4" d="M268.94,178.7h16.52V160.77a89.14,89.14,0,0,1-16.52,17.93"/><path id="Fill-11" class="cls-4" d="M27.06,174.33a27.46,27.46,0,0,0,.14,3.39c1,0,1.84.14,2.83.14,3.53,0,7.2-.85,7.2-5.09,0-4-3.39-5.22-7.49-5.22H27.06Zm0-8.05h2.82c2.4,0,6.08-.43,6.08-4.52,0-3.53-2.55-4.8-5.65-4.8a23.13,23.13,0,0,0-3.11.14c-.14,1.69-.14,2.68-.14,4.38ZM24,161.05c0-3.39-.14-3.67-.84-4l-3.11-1v-.56c2,.14,3.81.28,5.37.28s4.23-.28,6.35-.28c4,0,7.91,1.69,7.91,6.07,0,3-3.25,4.8-6.78,5.08v.14c3.67.29,7.77,1.56,7.77,5.93,0,3.39-2.69,6.22-7.91,6.22-2.83,0-5.65-.29-7.91-.29-1.69,0-3.11.15-4.8.29v-.57l2.82-1c1-.28,1.13-.42,1.13-3.24Z"/><path id="Fill-13" class="cls-4" d="M68.15,168.25c0-6.07-1.69-11.86-7.62-11.86-5.09,0-7.77,4.24-7.77,9.46,0,7.49,2.68,12.43,8.05,12.43s7.34-5.08,7.34-10m-19.2-.7c0-7.2,4.52-12.43,11.86-12.43,6.78,0,11,4.66,11,11.3,0,7.2-4.38,13-11.58,13-7.62,0-11.29-5.93-11.29-11.86"/><path id="Fill-15" class="cls-4" d="M81.85,161.05c0-3.39-.14-3.67-.85-4l-3.11-1v-.56c1.7.14,3.53.28,5.37.28s3.67-.14,5.93-.28v.56l-3.25,1c-.85.28-.85.56-.85,4.24v16.09h7.06c1.84,0,2.12-.28,2.69-1.69L96,173.2h.42l-.28,5.93c-3.53-.14-8.47-.28-10.59-.28-2.54,0-4.94.14-7.49.28v-.57l2.83-1c1-.28,1.13-.42,1.13-3.24V161.05Z"/><path id="Fill-17" class="cls-4" d="M109.1,148.77a2,2,0,0,1,1.55-.71,1,1,0,0,1,1.13,1,1.7,1.7,0,0,1-.85,1.41l-5.5,3.82h-1.7Zm-8.33,29.79,2.82-1c.85-.28,1-.42,1-3.24,0-2.12.14-4.38.14-6.64s-.14-4.38-.14-6.64c-.14-3.39-.14-3.67-.85-4l-3.1-1v-.56c1.69.14,3.53.28,5.65.28,1.83,0,3.67-.14,5.36-.28v.56l-3.11,1c-.7.28-.7.56-.84,4,0,2.12-.14,4.38-.14,6.64s.14,4.38.14,6.64c0,2.82.14,3,1,3.24l2.82,1v.57c-1.69-.14-3.81-.28-5.37-.28-1.83,0-3.95.14-5.64.28v-.57Z"/><path id="Fill-19" class="cls-4" d="M115.74,155.69c1.69.14,3.38.28,5.08.28s3.11-.14,4.66-.28v.56l-1.27.43c-1.7.42-2,.7-2,1,0,.71,4.66,12.15,6.36,16,2.25-5.37,4.23-10.59,5.5-14.68a3.84,3.84,0,0,0,.43-1.42c0-.42-1.13-.84-2.69-1.27v-.56c1.41.14,2.83.28,4.1.28a23.42,23.42,0,0,0,3.25-.28v.56a3.43,3.43,0,0,0-2.69,2c-2.26,4.94-5.22,12.14-8.47,21.32h-.85c-2.4-6.64-6.07-15.81-8.33-21-.56-1.41-.85-1.41-2-1.83l-1-.43v-.56Z"/><path id="Fill-21" class="cls-4" d="M150.9,160.21l-4.24,9.6h8.19Zm-12,18.35a15.46,15.46,0,0,0,2.83-1.27c3.1-7.48,7.06-15.81,9.74-22.45h.85c3,7.63,6.21,15.11,9.32,22.59l3.1,1V179c-2-.14-3.81-.29-5.79-.29-1.69,0-3.24.15-4.94.29v-.57c.85-.28,2.54-.7,3.53-1.13a49.17,49.17,0,0,0-2.12-6.07c-1.55,0-3.1-.14-4.66-.14s-3,0-4.51.14a27.74,27.74,0,0,0-2.12,6.07l3.1,1.13V179c-1.41-.14-2.82-.29-4.23-.29a40.55,40.55,0,0,0-4.1.29Z"/><path id="Fill-23" class="cls-4" d="M175.46,166.28H178c3.39,0,6.49-.57,6.49-4.52,0-3.25-2.26-4.66-5.65-4.66h-3.39Zm-7.06,12.28,2.83-1c1-.28,1.13-.42,1.13-3.24V161.05c0-3.39-.14-3.67-.85-4l-3.11-1v-.56a50.49,50.49,0,0,0,5.09.28c1.83,0,3.95-.28,6.49-.28,4.8,0,7.91,2,7.91,5.64s-2.68,5.37-5.93,5.94l5.08,7.48c2.12,3.11,2.26,3.39,4.38,3.81V179a15.46,15.46,0,0,0-2.54-.14c-.85,0-1.84.14-2.68.14-2.4-4-5.65-8.62-7.91-11.58h-2.83v4.23c0,4.8.15,5.65,1,5.93l3,1v.57c-1.55-.14-4-.28-5.23-.28-1.83,0-3.95.14-5.79.28Z"/><path id="Fill-25" class="cls-4" d="M248.47,114.88a13.43,13.43,0,0,1,2.11-.71,35.94,35.94,0,0,1,16.38.43s-5.22-5.23-17.5-2.12a16.37,16.37,0,0,0-5.23,2.26h4.24Z"/><path id="Fill-27" class="cls-4" d="M221.92,164.16v-2.54c-12.43,9-.56,17.08-.56,17.08s-5.93-6.49.56-14.54"/><g id="Group-31"><path id="Fill-29" class="cls-4" d="M285.48,139c4.1,2.68,4,8.19,0,15.81v5.93c9-13.27,8.34-23.58,0-25.13Z"/></g><g id="Group-34"><path id="Fill-32" class="cls-4" d="M266.15,178.72c-3.95,3.81-8.47,7.9-13.56,12a150.23,150.23,0,0,0,16.38-12Z"/></g><path id="Fill-35" class="cls-4" d="M25.79,140.86h.28l.57,2.4a4.91,4.91,0,0,0,1.83.43c1.41,0,2.83-.71,2.83-2.4,0-2.69-5.79-2.41-5.79-5.94,0-2.25,2.11-3.38,4.09-3.38a8.25,8.25,0,0,1,2.68.56l-.14,2.54H32L31.3,133a4.22,4.22,0,0,0-1.84-.28,2.2,2.2,0,0,0-2.26,2.12c0,3,5.79,2.12,5.79,6.07,0,1.55-1.27,3.53-4.8,3.53a6.58,6.58,0,0,1-2.68-.56Z"/><path id="Fill-37" class="cls-4" d="M38.5,135.07c0-1.69,0-1.83-.43-2l-1.55-.57v-.28c1.55.14,3,.14,4.38.14,1.69,0,3.53-.14,5.08-.14v2.68H45.7l-.42-1.41c-.15-.57-.29-.57-2.41-.57H40.19c0,.71-.14,1.27-.14,2.12v2.26h2c2.26,0,2.4,0,2.68-.42l.42-1.27h.29V140h-.29l-.42-1.41c-.14-.42-.42-.42-2.68-.42h-2v2.54a15.46,15.46,0,0,0,.14,2.54c.85,0,1.7.14,2.54.14,2,0,2.26,0,2.4-.28a4.64,4.64,0,0,0,.71-2h.28c0,.57-.14,1.13-.14,1.7v1.41c-.85-.14-3.67-.14-4.8-.14-1.69,0-3.39.14-4.8.14V144l1.41-.43c.57-.14.57-.28.57-1.69v-6.78Z"/><path id="Fill-39" class="cls-4" d="M59.11,140.16c0-.29-.14-.43-.84-.71L57.14,139v-.29c.84,0,1.83.14,2.68.14s1.69-.14,2.4-.14V139l-1.13.56a.65.65,0,0,0-.42.71V144a11.63,11.63,0,0,1-3.53.56c-4.24,0-6.78-2.4-6.78-5.93,0-4.23,4-6.35,7.2-6.35a15.64,15.64,0,0,1,2.68.28v3H60a7.66,7.66,0,0,0-.85-2.12c-.14-.28-1.27-.43-2-.43-2.69,0-4.8,1.84-4.8,5.51,0,3.25,1.83,5.37,4.66,5.37a9,9,0,0,0,2.11-.29v-3.38Z"/><path id="Fill-41" class="cls-4" d="M77.33,132.53l-.85.28c-.42.14-.7.43-.7.71v5.79c0,3.53-1.84,4.94-4.52,4.94s-4.52-1.13-4.52-3.95v-5.23c0-1.55,0-2-.57-2.12l-1.27-.56v-.28a17.33,17.33,0,0,0,2.69.14c1,0,2-.14,3-.14v.28l-.85.28c-1,.43-1.13.43-1.27,1.13v5.51c0,2.4.57,3.95,3.53,3.95,2,0,3.11-1.27,3.11-3.39s0-5.22-.14-6.49c0-.28-.28-.43-.85-.71l-1-.28v-.28a13.87,13.87,0,0,0,2.4.14c.71,0,1.41-.14,2.12-.14v.42Z"/><path id="Fill-43" class="cls-4" d="M83.4,137.75h1.27c1.7,0,3.25-.28,3.25-2.25,0-1.7-1.13-2.4-2.83-2.4H83.4ZM79.73,144l1.41-.43c.57-.14.57-.28.57-1.69v-6.78c0-1.69,0-1.83-.43-2l-1.55-.57v-.28a13.78,13.78,0,0,0,2.54.14c1,0,2-.14,3.39-.14,2.4,0,4.09,1,4.09,2.82s-1.27,2.83-3.1,3.11L89.19,142c1.13,1.55,1.13,1.7,2.26,2v.28c-.42,0-.85-.14-1.27-.14a5.29,5.29,0,0,0-1.41.14,70.92,70.92,0,0,0-4-5.93H83.4v2.12c0,2.4,0,2.82.57,3l1.41.57v.28a19.21,19.21,0,0,0-2.69-.14c-1,0-2,.14-3,.14Z"/><path id="Fill-45" class="cls-4" d="M104.44,138.74c0-3.1-.85-6.07-4-6.07-2.55,0-4,2.12-4,4.8,0,3.82,1.41,6.36,4.1,6.36s3.81-2.54,3.81-5.09m-9.74-.28c0-3.67,2.26-6.21,6.07-6.21a5.45,5.45,0,0,1,5.65,5.79c0,3.67-2.26,6.63-5.93,6.63a6,6,0,0,1-5.79-6.21"/><path id="Fill-47" class="cls-4" d="M110.93,140.86h.29l.56,2.4a5,5,0,0,0,1.84.43c1.55,0,2.82-.71,2.82-2.4,0-2.69-5.79-2.41-5.79-5.94,0-2.25,2.12-3.38,4.1-3.38a8.36,8.36,0,0,1,2.68.56l-.14,2.54h-.14l-.71-2.12c-.56,0-1.13-.14-1.83-.14a2.2,2.2,0,0,0-2.26,2.12c0,3,5.79,2.12,5.79,6.07,0,1.56-1.27,3.53-4.8,3.53a6.62,6.62,0,0,1-2.69-.56Z"/></g></g></g></g></svg>