<?xml version="1.0" encoding="utf-8"?>
<!-- Generator: Adobe Illustrator 22.0.1, SVG Export Plug-In . SVG Version: 6.00 Build 0)  -->
<svg version="1.1" id="Capa_1" xmlns="http://www.w3.org/2000/svg" xmlns:xlink="http://www.w3.org/1999/xlink" x="0px" y="0px"
	 viewBox="0 0 3454 1207" style="enable-background:new 0 0 3454 1207;" xml:space="preserve">
<style type="text/css">
	.st0{fill:#F5F5FF;}
	.st1{fill:none;stroke:#9D9FBD;}
	.st2{fill:#D1D1FF;}
	.st3{fill:#FFFFFF;}
	.st4{fill:#F0F0FF;}
	.st5{fill:#F8FFFC;}
	.st6{fill:#E8E8FF;}
	.st7{fill:#E1E1FF;}
	.st8{fill:#D9D9FC;}
	.st9{fill:#D8D6FF;}
	.st10{fill:#EEEEFA;}
	.st11{fill:#D2D0FA;}
	.st12{fill:#E1E1FA;}
	.st13{fill:#D9D7FF;}
	.st14{fill:#DCDCFF;}
	.st15{fill:#FFF8EB;}
	.st16{fill:#F0F0FA;}
	.st17{fill:#E4E4FA;}
	.st18{fill:#FAFAFC;}
	.st19{fill:#D3D1FA;}
	.st20{fill:#E2E2FA;}
	.st21{fill:#D9D9FD;}
	.st22{fill:#D5D5FA;}
	.st23{fill:#DDDDF5;}
	.st24{fill:#CBCBFA;}
	.st25{fill:#D8D8FD;}
	.st26{fill:#DDDDFF;}
	.st27{fill:#E5E5FA;}
	.st28{fill:#D2D2FF;}
	.st29{fill:#F0FFF7;}
	.st30{opacity:6.000000e-02;fill:#534BFF;enable-background:new    ;}
	.st31{fill:#FCF4E3;}
	.st32{opacity:8.000000e-02;fill:#333399;enable-background:new    ;}
	.st33{fill:#D7F9EC;}
	.st34{fill:#FAFAFF;}
	.st35{fill:#F3F3FF;}
	.st36{fill:#F5FFFA;}
	.st37{fill:#F7F7FF;}
	.st38{fill:#E8E8FE;}
	.st39{fill:#D6D6EB;}
	.st40{fill:#C1C1EB;}
	.st41{fill:#EBEBEB;}
	.st42{fill:#C3C3ED;}
	.st43{fill:#CEF4E5;}
	.st44{fill:url(#Path_468_);}
	.st45{fill:#C5C5F9;}
	.st46{fill:none;}
	.st47{opacity:5.000000e-02;fill:#0A0A5C;enable-background:new    ;}
	.st48{fill:#EFE3CE;}
	.st49{fill:#E5C1B3;}
	.st50{fill:#E8CABC;}
	.st51{opacity:0.1;fill:#9D9FBD;enable-background:new    ;}
	.st52{fill:#DBB6AB;}
	.st53{fill:url(#Path_469_);}
	.st54{fill:url(#Path_470_);}
	.st55{fill:url(#Path_471_);}
	.st56{fill:url(#Path_472_);}
	.st57{fill:url(#Path_473_);}
	.st58{fill:#EEEEFF;}
	.st59{fill:#FFFDF7;}
	.st60{fill:#D6D6FF;}
	.st61{fill:#9C9EBF;}
	.st62{fill:#FFEBB3;}
	.st63{fill:#F4E1D7;}
	.st64{fill:#FDEDE4;}
	.st65{fill:#CAC8FD;}
	.st66{fill:#F1F1FF;}
	.st67{fill:#F8F8FF;}
	.st68{opacity:3.000000e-02;fill:#534BFF;enable-background:new    ;}
	.st69{fill:#8587AD;}
	.st70{fill:#B3B7FC;}
	.st71{fill:#D5D5DA;}
	.st72{fill:#8385A0;}
	.st73{fill:#A4A7D8;}
	.st74{fill:#E9DAD2;}
	.st75{fill:#9D9FBD;}
	.st76{fill:#9D98B3;}
	.st77{fill:#ACADBC;}
	.st78{fill:#E3E3FF;}
	.st79{fill:#E4E4FC;}
	.st80{fill:#403DC2;}
	.st81{fill:#DEDEFC;}
	.st82{fill:#CACAE5;}
	.st83{fill:#F7E7B7;}
	.st84{fill:#D8BBB8;}
	.st85{fill:#E2C7C3;}
	.st86{opacity:7.000000e-02;fill:#FDEDE4;enable-background:new    ;}
	.st87{fill:#8589AF;}
	.st88{opacity:0.2;fill:#7F4E46;enable-background:new    ;}
	.st89{fill:#FCC3C3;}
	.st90{opacity:3.000000e-02;fill:#0A0A5C;enable-background:new    ;}
</style>
<title>chseguros seguros de vehiculos</title>
<g id="insurance-header-Large">
	<polygon id="Path" class="st0" points="3977,857 -514,857 -514,0 3977,0 	"/>
	<polyline id="Path_1_" class="st1" points="410,281.8 367.6,256 284,290.6 284,365 	"/>
	<polygon id="Path_2_" class="st2" points="284,282 410,282 410,291 284,291 	"/>
	<polygon id="Path_3_" class="st2" points="372,256 376,256 376,400 372,400 	"/>
	<polygon id="Path_4_" class="st2" points="353,394 390,394 390,403 353,403 	"/>
	<polygon id="Path_5_" class="st2" points="348,403 396,403 396,415 348,415 	"/>
	<polygon id="Path_6_" class="st2" points="383,282 358,282 361.2,271 383,271 	"/>
	<polygon id="Path_7_" class="st2" points="376,276 390,276 390,285 376,285 	"/>
	<path id="Path_8_" class="st1" d="M294,389v-13.9c0-5.6-4.5-10.1-10-10.1s-10,4.5-10,10.1V389H294z"/>
	<polygon id="Path_9_" class="st2" points="273,383 295,383 295,392 273,392 	"/>
	<path id="Path_10_" class="st3" d="M803,647l382.1-39c27.2-2.7,54.5-3.7,81.8-2.8l434.7,13.6c25.1,0.8,50.3,0.1,75.3-2.2l441.1-40
		c48.3-4.4,99.4-2.9,145,4.1l42.6,6.6c53.4,8.3,114.1,8.8,168.6,1.5l306.6-41.1c54.7-7.3,115.7-6.8,169.2,1.6
		c46,7.2,97.8,8.6,146.6,4.1l411.6-38c188.2-20.5,365.9,59.9,365.9,59.9v71.3L803,647z"/>
	<path id="Path_11_" class="st4" d="M-514.1,647L-525,508.9c39.6-3.8,307.2-24.4,690.1,30.7l455,4.7
		c101.2-2.8,210.8,46.6,247.5,43.4l647.4-1.4c120.1,0,535-11.2,616.4-21.5l457.9-57.9c81.8-10.3,172.8-9.5,252.7,2.2
		c68.8,10.1,146.1,12.2,218.9,5.8l614.8-53.6c186.9-6,301.3,44.9,301.3,44.9l-2.7,139.9L-514.1,647z"/>
	<path id="Path_12_" class="st5" d="M2590,647l290.5-99.3c54.8-7.3,115.7-6.8,169.2,1.6c46,7.2,97.8,8.6,146.6,4.1l411.7-38
		c188.2-20.5,366,59.9,366,59.9v71.3L2590,647z"/>
	<polygon id="Path_13_" class="st3" points="3977,860 -514,860 -514,647 3977,647 	"/>
	<path id="Path_14_" class="st2" d="M110,523.9v18.7c0,0.8,0.6,1.4,1.4,1.4h59.2c0.8,0,1.4-0.6,1.4-1.4v-17.7c0-0.8,0-1.6-0.1-2.5
		c-1.2-12-11.1-21.2-23-21.5s-22.2,8.4-24,20.3c-0.1,0.7-0.7,1.2-1.4,1.2h-12.1c-0.4,0-0.7,0.1-1,0.4
		C110.1,523.2,110,523.5,110,523.9L110,523.9z"/>
	<path id="Path_15_" class="st6" d="M152,543c0,3.9,3.1,7,7,7s7-3.1,7-7c0-0.3,0-0.6-0.1-0.9c-0.4-3.5-3.4-6.1-6.9-6.1
		s-6.5,2.6-6.9,6.1C152,542.4,152,542.7,152,543L152,543z"/>
	<path id="Path_16_" class="st6" d="M115,543c0,3.9,3.1,7,7,7s7-3.1,7-7c0-0.3,0-0.6-0.1-0.9c-0.5-3.5-3.4-6.1-6.9-6.1
		s-6.5,2.6-6.9,6.1C115,542.4,115,542.7,115,543L115,543z"/>
	<path id="Path_17_" class="st3" d="M150,522h15c0-8.3-6.7-15-15-15V522z"/>
	<path id="Path_18_" class="st3" d="M146,522h-15c0-8.3,6.7-15,15-15V522z"/>
	<path id="Path_19_" class="st3" d="M155,543.5c0,1.8,1.1,3.5,2.8,4.2s3.6,0.3,4.9-1s1.7-3.2,1-4.9s-2.3-2.8-4.2-2.8
		C157,539,155,541,155,543.5L155,543.5z"/>
	<path id="Path_20_" class="st3" d="M117,543.5c0,2.5,2,4.5,4.5,4.5s4.5-2,4.5-4.5s-2-4.5-4.5-4.5c-1.2,0-2.3,0.5-3.2,1.3
		C117.5,541.2,117,542.3,117,543.5z"/>
	<circle id="Oval" class="st3" cx="159" cy="531" r="1"/>
	<path id="Path_21_" class="st3" d="M134.7,528h2.7c0.3,0,0.6-0.2,0.6-0.5s-0.2-0.5-0.6-0.5h-2.7c-0.3,0-0.5,0.1-0.6,0.2
		c-0.1,0.2-0.1,0.4,0,0.5C134.2,527.9,134.5,528,134.7,528z"/>
	<path id="Rectangle" class="st6" d="M110.2,528h1.5c0.7,0,1.2,0.6,1.2,1.2v1.5c0,0.7-0.6,1.2-1.2,1.2h-1.5c-0.7,0-1.2-0.6-1.2-1.2
		v-1.5C109,528.6,109.6,528,110.2,528z"/>
	<polygon id="Path_22_" class="st7" points="455,335 395.9,335.2 395.9,381.9 345.4,381.9 345.4,450.5 286.1,450.5 286.1,426.8 
		264,426.8 264,484.8 277.5,484.8 277.5,485 366.9,485 366.9,401.4 454.5,404.1 	"/>
	<polygon id="Path_23_" class="st8" points="411,558.5 372,558.5 372,558.5 	"/>
	<polyline id="Path_24_" class="st0" points="471,580 367,580 367,402 471,402 471,558.8 	"/>
	<polygon id="Path_25_" class="st9" points="410,414 378,414 378,429 378,416.2 410,416.2 	"/>
	<polygon id="Path_26_" class="st9" points="410,443 378,443 378,458 378,445.2 410,445.2 	"/>
	<polygon id="Path_27_" class="st9" points="410,471 378,471 378,485 378,473.1 410,473.1 	"/>
	<polygon id="Path_28_" class="st9" points="410,499 378,499 378,514 378,501.2 410,501.2 	"/>
	<polyline id="Path_29_" class="st9" points="411,527 378,527 378,542 378,529.2 411,529.2 410.6,527 	"/>
	<polygon id="Path_30_" class="st6" points="451,431 378,431 378,416 451,416 	"/>
	<polygon id="Path_31_" class="st6" points="451,460 378,460 378,445 451,445 	"/>
	<polygon id="Path_32_" class="st6" points="451,488 378,488 378,473 451,473 	"/>
	<polygon id="Path_33_" class="st6" points="451,516 378,516 378,501 451,501 	"/>
	<polygon id="Path_34_" class="st6" points="451,544 378,544 378,529 451,529 	"/>
	<path id="Shape" class="st10" d="M451,544.3h-40V576h40V544.3z M451,516h-40v11.4h40V516z M451,487.8h-40v11.4h40V487.8z
		 M451,459.5h-40v11.4h40V459.5L451,459.5z M451,431.2h-40v11.4h40V431.2z M451,402h-40v12.4h40V402L451,402z"/>
	<polygon id="Path_35_" class="st11" points="451,415 411,415 411,417 451,417 	"/>
	<polygon id="Path_36_" class="st11" points="451,443 411,443 411,445 451,445 	"/>
	<polygon id="Path_37_" class="st11" points="451,471 411,471 411,473 451,473 	"/>
	<polygon id="Path_38_" class="st11" points="451,499 411,499 411,501 451,501 	"/>
	<polygon id="Path_39_" class="st11" points="451,528 411,528 411,530 451,530 	"/>
	<polygon id="Path_40_" class="st12" points="451,416 411,416 411,431 451,431 	"/>
	<polygon id="Path_41_" class="st12" points="451,445 411,445 411,460 451,460 	"/>
	<polygon id="Path_42_" class="st12" points="451,473 411,473 411,488 451,488 	"/>
	<polygon id="Path_43_" class="st12" points="451,501 411,501 411,516 451,516 	"/>
	<polygon id="Path_44_" class="st12" points="451,529 411,529 411,544 451,544 	"/>
	<path id="Shape_1_" class="st0" d="M411.4,515.6H411V527h0.4V515.6z M411.4,487.4H411v11.4h0.4V487.4z M411.4,459.2H411v11.4h0.4
		V459.2L411.4,459.2z M411.4,431H411v11.4h0.4V431z"/>
	<polygon id="Path_45_" class="st13" points="410.7,415 410.3,415 410.3,417 410.7,417 	"/>
	<polygon id="Path_46_" class="st13" points="410.7,443 410.3,443 410.3,445 410.7,445 	"/>
	<polygon id="Path_47_" class="st13" points="410.7,471 410.3,471 410.3,473 410.7,473 	"/>
	<polygon id="Path_48_" class="st13" points="410.7,499 410.3,499 410.3,501 410.7,501 	"/>
	<polygon id="Path_49_" class="st6" points="410.7,416 410.3,416 410.3,431 410.7,431 	"/>
	<polygon id="Path_50_" class="st6" points="410.7,445 410.3,445 410.3,460 410.7,460 	"/>
	<polygon id="Path_51_" class="st6" points="410.7,473 410.3,473 410.3,488 410.7,488 	"/>
	<polygon id="Path_52_" class="st6" points="410.7,501 410.3,501 410.3,516 410.7,516 	"/>
	<polygon id="Path_53_" class="st6" points="410.7,529 410.3,529 410.3,544 410.7,544 	"/>
	<polygon id="Path_54_" class="st6" points="371,567 251,567 251,485 371,485 	"/>
	<polygon id="Path_55_" class="st14" points="367,503 340,503 340,553 367,553 	"/>
	<polygon id="Path_56_" class="st14" points="327,503 300,503 300,553 327,553 	"/>
	<polygon id="Path_57_" class="st14" points="291,503 278,503 278,505.1 288.9,505.1 288.9,553 291,553 	"/>
	<polygon id="Path_58_" class="st0" points="337,505 364,505 364,555 337,555 	"/>
	<polygon id="Path_59_" class="st15" points="298,505 325,505 325,555 298,555 	"/>
	<polygon id="Path_60_" class="st0" points="289,555 262,555 262,505 289,505 	"/>
	<polygon id="Path_61_" class="st16" points="381,495 372,495 372,497 381,497 	"/>
	<polygon id="Path_62_" class="st17" points="372,495 278,495 278,497 372,497 	"/>
	<polygon id="Path_63_" class="st2" points="381,495 251,495 251,486 381,486 	"/>
	<polygon id="Path_64_" class="st0" points="264,576 162,576 162,369 264,369 	"/>
	<polygon id="Path_65_" class="st6" points="251,388 174,388 174,378 251,378 	"/>
	<polygon id="Path_66_" class="st0" points="251.7,387.7 251.7,387.5 174.5,387.5 174.5,378.5 251.5,378.5 251.5,387.7 251.7,387.7 
		251.7,387.5 251.7,387.7 252,387.7 252,378 174,378 174,388 252,388 252,387.7 	"/>
	<polygon id="Path_67_" class="st6" points="251,407 174,407 174,397 251,397 	"/>
	<polygon id="Path_68_" class="st0" points="251.7,406.7 251.7,406.5 174.5,406.5 174.5,397.5 251.5,397.5 251.5,406.7 251.7,406.7 
		251.7,406.5 251.7,406.7 252,406.7 252,397 174,397 174,407 252,407 252,406.7 	"/>
	<polygon id="Path_69_" class="st6" points="251,427 174,427 174,417 251,417 	"/>
	<polygon id="Path_70_" class="st0" points="251.7,426.7 251.7,426.5 174.5,426.5 174.5,417.5 251.5,417.5 251.5,426.7 251.7,426.7 
		251.7,426.5 251.7,426.7 252,426.7 252,417 174,417 174,427 252,427 252,426.7 	"/>
	<polygon id="Path_71_" class="st6" points="251,447 174,447 174,437 251,437 	"/>
	<polygon id="Path_72_" class="st0" points="251.7,446.7 251.7,446.5 174.5,446.5 174.5,437.5 251.5,437.5 251.5,446.7 251.7,446.7 
		251.7,446.5 251.7,446.7 252,446.7 252,437 174,437 174,447 252,447 252,446.7 	"/>
	<polygon id="Path_73_" class="st6" points="251,466 174,466 174,456 251,456 	"/>
	<polygon id="Path_74_" class="st0" points="251.7,465.7 251.7,465.5 174.5,465.5 174.5,456.5 251.5,456.5 251.5,465.7 251.7,465.7 
		251.7,465.5 251.7,465.7 252,465.7 252,456 174,456 174,466 252,466 252,465.7 	"/>
	<polygon id="Path_75_" class="st6" points="251,486 174,486 174,476 251,476 	"/>
	<polygon id="Path_76_" class="st0" points="251.7,485.7 251.7,485.5 174.5,485.5 174.5,476.5 251.5,476.5 251.5,485.7 251.7,485.7 
		251.7,485.5 251.7,485.7 252,485.7 252,476 174,476 174,486 252,486 252,485.7 	"/>
	<polygon id="Path_77_" class="st6" points="251,505 174,505 174,495 251,495 	"/>
	<polygon id="Path_78_" class="st0" points="251.7,504.7 251.7,504.5 174.5,504.5 174.5,495.5 251.5,495.5 251.5,504.7 251.7,504.7 
		251.7,504.5 251.7,504.7 252,504.7 252,495 174,495 174,505 252,505 252,504.7 	"/>
	<polygon id="Path_79_" class="st6" points="251,525 174,525 174,515 251,515 	"/>
	<polygon id="Path_80_" class="st0" points="251.7,524.7 251.7,524.5 174.5,524.5 174.5,515.5 251.5,515.5 251.5,524.7 251.7,524.7 
		251.7,524.5 251.7,524.7 252,524.7 252,515 174,515 174,525 252,525 252,524.7 	"/>
	<polygon id="Path_81_" class="st6" points="251,544 174,544 174,534 251,534 	"/>
	<polygon id="Path_82_" class="st0" points="251.7,543.7 251.7,543.5 174.5,543.5 174.5,534.5 251.5,534.5 251.5,543.7 251.7,543.7 
		251.7,543.5 251.7,543.7 252,543.7 252,534 174,534 174,544 252,544 252,543.7 	"/>
	<polygon id="Path_83_" class="st6" points="251,564 174,564 174,554 251,554 	"/>
	<polygon id="Path_84_" class="st0" points="251.7,563.7 251.7,563.5 174.5,563.5 174.5,554.5 251.5,554.5 251.5,563.7 251.7,563.7 
		251.7,563.5 251.7,563.7 252,563.7 252,554 174,554 174,564 252,564 252,563.7 	"/>
	<polygon id="Path_85_" class="st10" points="226,369 162,369 162,576 226,576 226,564 173.5,564 173.5,553.8 226,553.8 226,544.5 
		173.5,544.5 173.5,534.2 226,534.2 226,524.9 173.5,524.9 173.5,514.6 226,514.6 226,505.3 173.5,505.3 173.5,495 226,495 
		226,485.7 173.5,485.7 173.5,475.4 226,475.4 226,466.1 173.5,466.1 173.5,455.8 226,455.8 226,446.5 173.5,446.5 173.5,436.3 
		226,436.3 226,426.9 173.5,426.9 173.5,416.7 226,416.7 226,407.3 173.5,407.3 173.5,397.1 226,397.1 226,387.8 173.5,387.8 
		173.5,377.5 226,377.5 	"/>
	<polygon id="Path_86_" class="st12" points="226,378 174,378 174,387 226,387 	"/>
	<polygon id="Path_87_" class="st10" points="226,378 174,378 174,388 226,388 226,387.5 174.5,387.5 174.5,378.5 226,378.5 	"/>
	<polygon id="Path_88_" class="st12" points="226,398 174,398 174,407 226,407 	"/>
	<polygon id="Path_89_" class="st10" points="226,397 174,397 174,407 226,407 226,406.5 174.5,406.5 174.5,397.5 226,397.5 	"/>
	<polygon id="Path_90_" class="st12" points="226,417 174,417 174,426 226,426 	"/>
	<polygon id="Path_91_" class="st10" points="226,417 174,417 174,427 226,427 226,426.5 174.5,426.5 174.5,417.5 226,417.5 	"/>
	<polygon id="Path_92_" class="st12" points="226,437 174,437 174,446 226,446 	"/>
	<polygon id="Path_93_" class="st10" points="226,437 174,437 174,447 226,447 226,446.5 174.5,446.5 174.5,437.5 226,437.5 	"/>
	<polygon id="Path_94_" class="st12" points="226,457 174,457 174,466 226,466 	"/>
	<polygon id="Path_95_" class="st10" points="226,456 174,456 174,466 226,466 226,465.5 174.5,465.5 174.5,456.5 226,456.5 	"/>
	<polygon id="Path_96_" class="st12" points="226,476 174,476 174,485 226,485 	"/>
	<polygon id="Path_97_" class="st10" points="226,476 174,476 174,486 226,486 226,485.5 174.5,485.5 174.5,476.5 226,476.5 	"/>
	<polygon id="Path_98_" class="st12" points="226,496 174,496 174,505 226,505 	"/>
	<polygon id="Path_99_" class="st10" points="226,495 174,495 174,505 226,505 226,504.5 174.5,504.5 174.5,495.5 226,495.5 	"/>
	<polygon id="Path_100_" class="st12" points="226,515 174,515 174,524 226,524 	"/>
	<polygon id="Path_101_" class="st10" points="226,515 174,515 174,525 226,525 226,524.5 174.5,524.5 174.5,515.5 226,515.5 	"/>
	<polyline id="Path_102_" class="st12" points="226,534 174,534 174,544 226,544 226,534.5 	"/>
	<polygon id="Path_103_" class="st12" points="226,554 174,554 174,563 226,563 	"/>
	<polygon id="Path_104_" class="st10" points="226,554 174,554 174,564 226,564 226,563.5 174.5,563.5 174.5,554.5 226,554.5 	"/>
	<polygon id="Path_105_" class="st18" points="162.2,550 162,550 162,576 227,576 227,575.8 162.2,575.8 	"/>
	<polygon id="Path_106_" class="st3" points="226,368.4 213,368.4 213.1,368.6 226,368.6 	"/>
	<path id="Shape_2_" class="st0" d="M226.4,524.7H226v9.3h0.4V524.7z M226.4,505.2H226v9.3h0.4V505.2z M226.4,485.6H226v9.3h0.4
		V485.6z M226.4,466.1H226v9.3h0.4V466.1z M226.4,446.6H226v9.3h0.4V446.6L226.4,446.6z M226.4,427.1H226v9.3h0.4V427.1z
		 M226.4,407.6H226v9.3h0.4V407.6z M226.4,388H226v9.3h0.4V388L226.4,388z"/>
	<polygon id="Path_107_" class="st6" points="226.7,378 226.3,378 226.3,387 226.7,387 	"/>
	<path id="Shape_3_" class="st0" d="M226.4,387.5H226v0.5h0.4V387.5z M226.4,378H226v0.5h0.4V378z"/>
	<polygon id="Path_108_" class="st6" points="226.7,398 226.3,398 226.3,407 226.7,407 	"/>
	<path id="Shape_4_" class="st0" d="M226.4,406.5H226v0.5h0.4V406.5z M226.4,397H226v0.5h0.4V397z"/>
	<polygon id="Path_109_" class="st6" points="226.7,417 226.3,417 226.3,426 226.7,426 	"/>
	<path id="Shape_5_" class="st0" d="M226.4,426.5H226v0.5h0.4V426.5z M226.4,417H226v0.5h0.4V417z"/>
	<polygon id="Path_110_" class="st6" points="226.7,437 226.3,437 226.3,446 226.7,446 	"/>
	<path id="Shape_6_" class="st0" d="M226.4,446.5H226v0.5h0.4V446.5z M226.4,437H226v0.6h0.4V437L226.4,437z"/>
	<polygon id="Path_111_" class="st6" points="226.7,457 226.3,457 226.3,466 226.7,466 	"/>
	<path id="Shape_7_" class="st0" d="M226.4,465.5H226v0.5h0.4V465.5z M226.4,456H226v0.5h0.4V456L226.4,456z"/>
	<polygon id="Path_112_" class="st6" points="226.7,476 226.3,476 226.3,485 226.7,485 	"/>
	<path id="Shape_8_" class="st0" d="M226.4,485.5H226v0.5h0.4V485.5z M226.4,476H226v0.5h0.4V476z"/>
	<polygon id="Path_113_" class="st6" points="226.7,496 226.3,496 226.3,505 226.7,505 	"/>
	<path id="Shape_9_" class="st0" d="M226.4,504.5H226v0.5h0.4V504.5z M226.4,495H226v0.5h0.4V495z"/>
	<polygon id="Path_114_" class="st6" points="226.7,515 226.3,515 226.3,524 226.7,524 	"/>
	<path id="Shape_10_" class="st0" d="M226.4,524.5H226v0.5h0.4V524.5z M226.4,515H226v0.5h0.4V515z"/>
	<polygon id="Path_115_" class="st0" points="226.7,545 226.3,545 226.3,554 226.7,554 	"/>
	<polygon id="Path_116_" class="st6" points="226.7,535 226.3,535 226.3,544 226.7,544 	"/>
	<path id="Shape_11_" class="st0" d="M226.4,543.5H226v0.5h0.4V543.5z M226.4,534H226v0.5h0.4V534z"/>
	<polygon id="Path_117_" class="st6" points="226.7,554 226.3,554 226.3,563 226.7,563 	"/>
	<path id="Shape_12_" class="st0" d="M226.4,563.5H226v0.5h0.4V563.5L226.4,563.5z M226.4,554H226v0.5h0.4V554z"/>
	<polygon id="Path_118_" class="st6" points="541,573 451,573 451,311 541,311 	"/>
	<polygon id="Path_119_" class="st12" points="508,311 452,311 452,573 508,573 	"/>
	<polygon id="Path_120_" class="st18" points="451.2,559 451,559 451,573 508,573 508,572.8 451.2,572.8 	"/>
	<polygon id="Path_121_" class="st10" points="451.6,402 451.4,402 451.4,414.3 451.6,414.3 451.6,416.5 451.6,431.2 451.4,431.2 
		451.4,442.6 451.6,442.6 451.6,444.7 451.6,459.4 451.4,459.4 451.4,470.8 451.6,470.8 451.6,473 451.6,487.7 451.4,487.7 
		451.4,499.1 451.6,499.1 451.6,501.2 451.6,515.9 451.4,515.9 451.4,527.3 451.6,527.3 451.6,529.5 451.6,544.1 451.4,544.1 
		451.4,558 451.6,558 	"/>
	<polygon id="Path_122_" class="st19" points="451.6,415 451.4,415 451.4,417 451.6,417 	"/>
	<polygon id="Path_123_" class="st19" points="451.6,443 451.4,443 451.4,445 451.6,445 	"/>
	<polygon id="Path_124_" class="st19" points="451.6,471 451.4,471 451.4,473 451.6,473 	"/>
	<polygon id="Path_125_" class="st19" points="451.6,499 451.4,499 451.4,501 451.6,501 	"/>
	<polygon id="Path_126_" class="st20" points="451.6,416 451.4,416 451.4,431 451.6,431 	"/>
	<polygon id="Path_127_" class="st20" points="451.6,445 451.4,445 451.4,460 451.6,460 	"/>
	<polygon id="Path_128_" class="st20" points="451.6,473 451.4,473 451.4,488 451.6,488 	"/>
	<polygon id="Path_129_" class="st20" points="451.6,501 451.4,501 451.4,516 451.6,516 	"/>
	<polygon id="Path_130_" class="st20" points="451.6,529 451.4,529 451.4,544 451.6,544 	"/>
	<polygon id="Path_131_" class="st18" points="451.6,558.4 451.4,558.4 451.4,558.6 451.6,558.6 	"/>
	<polygon id="Path_132_" class="st21" points="451.6,401.4 451.4,401.4 451.4,401.6 451.6,401.6 	"/>
	<path id="Shape_13_" class="st0" d="M451.2,557.8H451v0.2h0.2V557.8z M451.2,402H451v0.2h0.2V402z"/>
	<polyline id="Path_133_" class="st6" points="450,573 451.4,311 508,311 508,573 451.4,573 	"/>
	<polygon id="Path_134_" class="st2" points="463,321 471,321 471,541 463,541 	"/>
	<polygon id="Path_135_" class="st2" points="481,321 489,321 489,541 481,541 	"/>
	<polygon id="Path_136_" class="st2" points="500,321 508,321 508,541 500,541 	"/>
	<polygon id="Path_137_" class="st2" points="518,321 526,321 526,541 518,541 	"/>
	<path id="Shape_14_" class="st12" d="M277,555.3h-13V567h13V555.3z M277,496h-13v6.6h13V496L277,496z"/>
	<polygon id="Path_138_" class="st22" points="277,503 264,503 264,505 277,505 	"/>
	<polygon id="Path_139_" class="st10" points="277,505 264,505 264,555 277,555 	"/>
	<polygon id="Path_140_" class="st23" points="277,495 264,495 264,497 277,497 	"/>
	<polygon id="Path_141_" class="st24" points="277,486 264,486 264,495 277,495 	"/>
	<polygon id="Path_142_" class="st18" points="278,567.4 264,567.4 264,567.6 278,567.6 	"/>
	<polygon id="Path_143_" class="st25" points="278,485.4 264,485.4 264,485.6 278,485.6 	"/>
	<path id="Shape_15_" class="st6" d="M277.9,555.2h-0.4v11.7h-13.3v-11.7H264V567h13.9V555.2z M264.2,496H264v6.6h0.2V496L264.2,496
		z M277.9,496h-0.4v6.6h0.4V496L277.9,496z"/>
	<path id="Shape_16_" class="st26" d="M264.2,503H264v2h0.2V503z M277.9,503h-0.4v2h0.4V503L277.9,503z"/>
	<path id="Shape_17_" class="st0" d="M264.2,505H264v50h0.2V505z M277.9,505h-0.4v50h0.4V505L277.9,505z"/>
	<path id="Shape_18_" class="st27" d="M264.2,495H264v2h0.2V495z M277.9,495h-0.4v2h0.4V495L277.9,495z"/>
	<polygon id="Path_144_" class="st28" points="278,486 264,486 264,495 264.2,495 264.2,486.2 277.6,486.2 277.6,495 278,495 	"/>
	<polygon id="Path_145_" class="st0" points="263.6,485 263.4,485 263.4,567 263.6,567 263.6,566.8 263.6,555 263.6,504.9 
		263.6,502.8 263.6,496.2 263.6,494.6 263.6,485.2 	"/>
	<path id="Path_146_" class="st29" d="M-513.1,793.5c0,0,553.1,39.1,993.1,59.9l700,2l397,0.5c0,0-217.6-113.8-412.2-166.5
		C304.4,456.3-514,583.8-514,583.8L-513.1,793.5z"/>
	<polygon id="Path_147_" class="st6" points="3961,646 3398,646 3679.5,423 	"/>
	<path id="Path_148_" class="st30" d="M3595.9,646H3398l281-223v98.4c0,2.2-1.1,4.3-3,5.5c-11.6,7.4-53.5,31.5-64.6,37.8
		c-1.7,1-2.9,2.7-3.2,4.6L3595.9,646z"/>
	<path id="Path_149_" class="st31" d="M3508.9,624.1v8.6c0,0.6-0.2,1.2-0.7,1.6c-0.4,0.4-1,0.7-1.7,0.7h-106.2
		c-0.6,0-1.2-0.2-1.7-0.7c-0.4-0.4-0.7-1-0.7-1.6v-8.6c0-1.3,1.1-2.3,2.3-2.3h3v-28.1h0.2v-20.3c0-1.3,1-2.3,2.3-2.3h64.2
		c1,0,2,0.7,2.3,1.7l6,20.9h23.4c1.3,0,2.3,1,2.3,2.3v25.8h2.6C3507.8,621.8,3508.8,622.8,3508.9,624.1"/>
	<path id="Path_150_" class="st2" d="M3403,613h-8.6c-1.3,0-2.4-1-2.4-2.3v-21.4c0-1.3,1.1-2.3,2.4-2.3h8.6V613z"/>
	<path id="Path_151_" class="st2" d="M3438,634c0,6.6-5.4,12-12,12s-12-5.4-12-12s5.4-12,12-12S3438,627.4,3438,634z"/>
	<path id="Path_152_" class="st3" d="M3432,634.5c0,3.6-2.9,6.5-6.5,6.5s-6.5-2.9-6.5-6.5s2.9-6.5,6.5-6.5c1.7,0,3.4,0.7,4.6,1.9
		S3432,632.8,3432,634.5L3432,634.5z"/>
	<path id="Rectangle_1_" class="st32" d="M3411.1,577h24.8c0.6,0,1.1,0.5,1.1,1.1v15.8c0,0.6-0.5,1.1-1.1,1.1h-24.8
		c-0.6,0-1.1-0.5-1.1-1.1v-15.8C3410,577.5,3410.5,577,3411.1,577z"/>
	<path id="Path_153_" class="st32" d="M3470.1,595H3442c-0.6,0-1-0.4-1-1v-16c0-0.5,0.4-1,1-1h24c0.4,0,0.8,0.3,0.9,0.7l4.1,16
		c0.1,0.3,0,0.6-0.1,0.8C3470.6,594.8,3470.4,595,3470.1,595z"/>
	<path id="Path_154_" class="st3" d="M3420,606c0,1.1-0.9,2-2,2s-2-0.9-2-2s0.9-2,2-2S3420,604.9,3420,606z"/>
	<polygon id="Path_155_" class="st4" points="2986,646 3433,646 3209.5,469 	"/>
	<path id="Path_156_" class="st30" d="M3276,646h157l-223-177v78.1c0,1.7,0.9,3.4,2.3,4.3c9.2,5.9,42.5,24.9,51.3,30
		c1.3,0.8,2.3,2.1,2.5,3.6L3276,646z"/>
	<path id="Path_157_" class="st4" d="M3062.7,799c-10.5,0-19.8,6.6-23.2,16.5c-4.9-7.8-14.3-11.6-23.3-9.3s-15.5,10-16.1,19.3
		c-15.4-4.4-32,0.6-42.5,12.7c-8.1-17.7-29-25.4-46.7-17.3c-1.3-11.4-10.3-20.4-21.7-21.7s-22.1,5.5-25.9,16.3
		c-4.9-7.8-14.3-11.6-23.3-9.3s-15.5,10-16.1,19.3c-11.2-3.2-23.2-1.4-33.1,4.7c-9.9,6.2-16.7,16.3-18.8,27.8h364.7
		c1.8-12.8-3.5-25.6-13.8-33.3s-24-9.2-35.7-3.8C3085.6,808.5,3075.1,799.1,3062.7,799"/>
	<path id="Path_158_" class="st4" d="M3062.7,798c-10.4,0-19.7,6.6-23.2,16.5c-4.9-7.8-14.3-11.6-23.3-9.4
		c-9,2.3-15.5,10.1-16.1,19.3c-15.4-4.4-32,0.6-42.5,12.7c-8.1-17.7-29-25.5-46.7-17.4c-1.3-11.4-10.3-20.4-21.7-21.7
		s-22.1,5.5-25.9,16.3c-4.9-7.8-14.3-11.6-23.3-9.4c-9,2.3-15.5,10.1-16.1,19.3c-11.2-3.2-23.2-1.4-33.1,4.8
		c-9.9,6.2-16.7,16.3-18.8,27.8h364.7c1.8-12.8-3.5-25.6-13.8-33.3s-24-9.2-35.7-3.8C3085.6,807.4,3075.1,798,3062.7,798"/>
	<path id="Path_159_" class="st33" d="M3433.7,618c-5.2,0-9.9,3.2-11.6,8.1c-2.5-3.9-7.2-5.7-11.7-4.6c-4.5,1.1-7.7,5-8.1,9.5
		c-7.7-2.1-16,0.3-21.3,6.2c-4.1-8.7-14.5-12.5-23.4-8.5c-0.7-5.6-5.2-10-10.9-10.6s-11.1,2.7-13,8c-2.5-3.8-7.2-5.7-11.7-4.6
		c-4.5,1.1-7.7,5-8.1,9.5c-1.8-0.5-3.7-0.8-5.6-0.8c-10,0-18.6,7-20.4,16.7h182.8c0.1-0.8,0.2-1.6,0.2-2.4c0-5.9-3.1-11.4-8.1-14.6
		c-5.1-3.2-11.4-3.6-16.9-1.2c-0.7-6.1-6-10.7-12.3-10.7"/>
	<path id="Path_160_" class="st33" d="M3086.7,618c-5.2,0-9.9,3.2-11.6,8.1c-2.5-3.9-7.2-5.7-11.7-4.6c-4.5,1.1-7.7,5-8.1,9.5
		c-7.7-2.1-16,0.3-21.3,6.2c-4.1-8.7-14.5-12.5-23.4-8.5c-0.7-5.6-5.2-10-10.9-10.6s-11.1,2.7-13,8c-2.5-3.9-7.2-5.7-11.7-4.6
		c-4.5,1.1-7.7,5-8.1,9.5c-5.6-1.6-11.7-0.7-16.6,2.3s-8.4,8-9.4,13.6h182.8c0.1-0.8,0.2-1.6,0.2-2.4c0-5.9-3.1-11.4-8.2-14.6
		c-5.1-3.2-11.4-3.6-16.9-1.2C3098.1,622.6,3092.8,618,3086.7,618"/>
	<polygon id="Path_161_" class="st34" points="-513,856 3977,856 3977,1181 -513,1181 	"/>
	<polygon id="Path_162_" class="st3" points="-506,1025 620,1025 620,1058 -506,1058 	"/>
	<polygon id="Path_163_" class="st3" points="118,1033 151,1033 151,1176 118,1176 	"/>
	<path id="Path_164_" class="st3" d="M2188,1178h-33V956H1020.8v76c0,14.1-11.4,25.5-25.5,25.5H620v-33h367.8v-76.1
		c0-14.1,11.4-25.5,25.5-25.5h1146.4c15.6,0,28.3,12.7,28.3,28.3V1178z"/>
	<path id="Path_165_" class="st0" d="M108,415c12.7,0,23,10.5,23,23.4v1.6H85v-1.6C85,425.5,95.3,415,108,415L108,415z"/>
	<polygon id="Path_166_" class="st3" points="2849,1100 3975,1100 3975,1133 2849,1133 	"/>
	<polygon id="Path_167_" class="st35" points="-513,1179 3974,1179 3974,1212 -513,1212 	"/>
	<path id="Path_168_" class="st36" d="M-514,859H626c0,0-479.8-244.1-1140-160.6V859z"/>
	<path id="Path_169_" class="st35" d="M944,892H735V588.7c0-1.5,0.6-2.9,1.7-4c1.1-1.1,2.5-1.7,4-1.7h197.6c3.1,0,5.7,2.5,5.7,5.7
		L944,892L944,892z"/>
	<polygon id="Path_170_" class="st37" points="879,758 879,753 889,753 889,758 	"/>
	<polygon id="Path_171_" class="st37" points="891,758 891,753 901,753 901,758 	"/>
	<polygon id="Path_172_" class="st37" points="805,750 805,745 815,745 815,750 	"/>
	<polygon id="Path_173_" class="st37" points="856,715 856,710 866,710 866,715 	"/>
	<polygon id="Path_174_" class="st37" points="758,709 758,704 768,704 768,709 	"/>
	<polygon id="Path_175_" class="st37" points="770,709 770,704 780,704 780,709 	"/>
	<polygon id="Path_176_" class="st37" points="850,708 850,703 860,703 860,708 	"/>
	<polygon id="Path_177_" class="st37" points="862,708 862,703 872,703 872,708 	"/>
	<polygon id="Path_178_" class="st37" points="839,683 839,678 849,678 849,683 	"/>
	<polygon id="Path_179_" class="st37" points="907,675 907,670 917,670 917,675 	"/>
	<polygon id="Path_180_" class="st37" points="856,673 856,668 866,668 866,673 	"/>
	<polygon id="Path_181_" class="st37" points="900,668 900,663 910,663 910,668 	"/>
	<polygon id="Path_182_" class="st37" points="912,668 912,663 922,663 922,668 	"/>
	<polygon id="Path_183_" class="st37" points="775,668 775,663 785,663 785,668 	"/>
	<polygon id="Path_184_" class="st37" points="758,658 758,653 768,653 768,658 	"/>
	<polygon id="Path_185_" class="st37" points="817,640 817,635 827,635 827,640 	"/>
	<polygon id="Path_186_" class="st37" points="834,630 834,625 844,625 844,630 	"/>
	<polygon id="Path_187_" class="st37" points="890,625 890,620 900,620 900,625 	"/>
	<polygon id="Path_188_" class="st37" points="753,625 753,620 763,620 763,625 	"/>
	<polygon id="Path_189_" class="st38" points="860,703 850,703 850,708 860,708 	"/>
	<polygon id="Path_190_" class="st38" points="866,710 856,710 856,715 866,715 	"/>
	<polygon id="Path_191_" class="st38" points="815,737 805,737 805,742 815,742 	"/>
	<polyline id="Path_192_" class="st38" points="798,747 788,747 788,752 798,752 798,747 	"/>
	<polyline id="Path_193_" class="st38" points="755,788 745,788 745,793 755,793 755,788 	"/>
	<polyline id="Path_194_" class="st38" points="762,796 752,796 752,801 762,801 762,796 	"/>
	<polygon id="Path_195_" class="st38" points="751,861 741,861 741,866 751,866 	"/>
	<polyline id="Path_196_" class="st38" points="768,882 758,882 758,887 768,887 768,882 	"/>
	<polyline id="Path_197_" class="st38" points="933,867 923,867 923,872 933,872 933,867 	"/>
	<polyline id="Path_198_" class="st38" points="936,860 926,860 926,865 936,865 936,860 	"/>
	<polygon id="Path_199_" class="st38" points="768,653 758,653 758,658 768,658 	"/>
	<polygon id="Path_200_" class="st38" points="872,703 862,703 862,708 872,708 	"/>
	<polygon id="Path_201_" class="st38" points="910,663 900,663 900,668 910,668 	"/>
	<polygon id="Path_202_" class="st38" points="917,675 907,675 907,680 917,680 	"/>
	<polygon id="Path_203_" class="st38" points="933,786 923,786 923,791 933,791 	"/>
	<polygon id="Path_204_" class="st38" points="938,794 928,794 928,799 938,799 	"/>
	<polygon id="Path_205_" class="st38" points="866,674 856,674 856,679 866,679 	"/>
	<polygon id="Path_206_" class="st38" points="836,678 826,678 826,683 836,683 	"/>
	<polygon id="Path_207_" class="st38" points="922,663 912,663 912,668 922,668 	"/>
	<polygon id="Path_208_" class="st38" points="763,622 753,622 753,627 763,627 	"/>
	<polygon id="Path_209_" class="st38" points="844,625 834,625 834,630 844,630 	"/>
	<polygon id="Path_210_" class="st38" points="827,635 817,635 817,640 827,640 	"/>
	<polygon id="Path_211_" class="st38" points="900,622 890,622 890,627 900,627 	"/>
	<polygon id="Path_212_" class="st38" points="889,739 879,739 879,744 889,744 	"/>
	<polygon id="Path_213_" class="st38" points="901,739 891,739 891,744 901,744 	"/>
	<polygon id="Path_214_" class="st38" points="756,678 746,678 746,683 756,683 	"/>
	<polygon id="Path_215_" class="st38" points="768,678 758,678 758,683 768,683 	"/>
	<polygon id="Path_216_" class="st38" points="768,704 758,704 758,709 768,709 	"/>
	<polygon id="Path_217_" class="st38" points="780,704 770,704 770,709 780,709 	"/>
	<path id="Path_218_" class="st2" d="M944.1,607H733.9c-1.1,0-2.2-0.4-2.9-1.3c-0.7-0.8-1.1-2-0.9-3.1l4.4-25.5
		c0.4-1.8,2-3.2,3.8-3.1h201.4c1.9,0,3.5,1.3,3.8,3.1l4.4,25.5c0.2,1.1-0.2,2.2-0.9,3.1C946.3,606.6,945.2,607,944.1,607"/>
	<path id="Path_219_" class="st6" d="M777,771v121h139V780.1c0,5.5-4.5,10-9.9,10h-0.7c-0.2,0-0.5,0-0.8,0v19.4h-33.2v-20.8
		c-1.5,0.9-3.3,1.4-5.1,1.4h-0.4c-0.8,0-1.6-0.1-2.4-0.3v19.7h-33.3v-20.1c-1.2,0.5-2.4,0.7-3.6,0.7h-0.3c-1.4,0-2.8-0.3-4-0.9v20.3
		H789v-19.7c-0.7,0.2-1.5,0.2-2.2,0.2c-0.4,0-0.8,0-1.3-0.1c-4.9-0.7-8.6-4.9-8.6-9.9L777,771"/>
	<polygon id="Path_220_" class="st3" points="788,817 904,817 904,882 788,882 	"/>
	<polygon id="Path_221_" class="st3" points="822,809 789,809 789,768 822,768 	"/>
	<polygon id="Path_222_" class="st3" points="863,809 830,809 830,768 863,768 	"/>
	<polygon id="Path_223_" class="st3" points="904,809 871,809 871,768 904,768 	"/>
	<path id="Path_224_" class="st2" d="M786,790c-5.5,0-10-4.4-10-9.9v-9c0-3.2,1.3-6.3,3.6-8.6s5.4-3.5,8.7-3.5h7.7v21.1
		c0,2.6-1.1,5.1-2.9,7S788.7,790,786,790"/>
	<path id="Path_225_" class="st2" d="M806,790c-5.5,0-10-4.4-10-9.9V759h20v21.1C816,785.6,811.5,790,806,790"/>
	<path id="Path_226_" class="st2" d="M826,790c-5.5,0-10-4.4-10-9.9V759h20v21.1C836,785.6,831.5,790,826,790"/>
	<path id="Path_227_" class="st2" d="M846,790c-5.5,0-10-4.4-10-9.9V759h20v21.1C856,785.6,851.5,790,846,790"/>
	<path id="Path_228_" class="st2" d="M866,790c-5.5,0-10-4.4-10-9.9V759h20v21.1C876,785.6,871.5,790,866,790"/>
	<path id="Path_229_" class="st2" d="M886,790c-5.5,0-10-4.4-10-9.9V759h20v21.1C896,785.6,891.5,790,886,790"/>
	<path id="Path_230_" class="st2" d="M906,790c-5.5,0-10-4.4-10-9.9V759h7.7c6.8,0,12.3,5.4,12.3,12.1v9
		C916,785.6,911.5,790,906,790"/>
	<path id="Path_231_" class="st39" d="M785,790.5c0.3,0.1,0.7,0.1,1,0.1C785.7,790.5,785.3,790.5,785,790.5"/>
	<path id="Path_232_" class="st40" d="M796,779h-20c0,5.6,3.8,10.2,8.7,10.9c0.4,0.1,0.9,0.1,1.3,0.1C791.5,790,796,785.1,796,779"
		/>
	<path id="Path_233_" class="st41" d="M802,789.1c1.2,0.6,2.6,0.9,3.9,0.9h0.1C804.6,789.9,803.3,789.6,802,789.1"/>
	<path id="Path_234_" class="st41" d="M796.4,780v0.6v0.6c0,0,0.1,0.5,0.1,0.8c-0.1-0.5-0.1-0.9-0.1-1.4V780"/>
	<path id="Path_235_" class="st40" d="M796.5,780L796.5,780c-0.1,0.3-0.1,0.7,0,1c0-0.2,0-0.3,0-0.5V780"/>
	<path id="Path_236_" class="st40" d="M816,779h-20v0.7c0,0.5,0,1.1,0.1,1.6c0.6,3.4,2.8,6.3,5.8,7.8c1.3,0.6,2.7,0.9,4.1,0.9
		C811.5,790,816,785,816,779"/>
	<path id="Path_237_" class="st41" d="M836.1,779v0.7c0,0.5,0,1-0.1,1.5c0.8,5,4.9,8.6,9.8,8.8h0.2c-5.5-0.1-9.9-4.7-9.9-10.3V779z"
		/>
	<path id="Path_238_" class="st40" d="M835.6,780h-0.3c0,0.7,0.1,1.3,0.2,2c0.1-0.4,0.1-0.9,0.1-1.3V780z"/>
	<path id="Path_239_" class="st40" d="M855,779h-19v0.7c0,5.6,4.2,10.2,9.5,10.3C850.8,789.9,855,785,855,779"/>
	<path id="Path_240_" class="st39" d="M822,789.1c1.2,0.6,2.5,0.9,3.9,0.9h0.1C824.6,790,823.2,789.6,822,789.1"/>
	<path id="Path_241_" class="st41" d="M816.1,779v0.7c0,0.4,0,0.8-0.1,1.1c0.5,3.5,2.8,6.6,6,8.1c-3.6-1.7-5.9-5.3-5.9-9.2V779"/>
	<path id="Path_242_" class="st40" d="M816.6,779h-0.2c0,0.7,0,1.3,0.1,2c0-0.4,0.1-0.8,0.1-1.2L816.6,779L816.6,779z"/>
	<path id="Path_243_" class="st40" d="M836,779h-20v0.7c0,5.6,4.5,10.2,10,10.3C831.5,789.9,836,785,836,779"/>
	<path id="Path_244_" class="st39" d="M863,789.3L863,789.3c0.9,0.3,1.8,0.4,2.7,0.4h0.3C865,789.7,864,789.5,863,789.3"/>
	<path id="Path_245_" class="st41" d="M856.1,780v0.7c0,0.6,0,1.1-0.1,1.7c0.7,3.7,3.4,6.6,7,7.7V790c-4.1-1.2-6.9-5-6.9-9.2V780z"
		/>
	<path id="Path_246_" class="st40" d="M855.7,780h-0.4c0,0.7,0.1,1.3,0.2,2c0.1-0.5,0.2-0.9,0.2-1.4V780z"/>
	<path id="Path_247_" class="st40" d="M875,779h-19v0.7c0,4.5,2.8,8.5,7,9.8c0.8,0.3,1.7,0.4,2.6,0.4C870.8,789.9,875,785,875,779"
		/>
	<path id="Path_248_" class="st41" d="M876.2,779v0.7c0,0.7-0.1,1.4-0.2,2.1c1,4.7,5,8.1,9.7,8.2h0.3c-5.5-0.2-9.8-4.7-9.8-10.2V779
		"/>
	<path id="Path_249_" class="st40" d="M875.8,779h-0.5c0,1,0.1,2,0.3,3c0.1-0.7,0.2-1.5,0.2-2.2V779"/>
	<path id="Path_250_" class="st40" d="M895,779h-19v0.7c0,5.6,4.2,10.1,9.5,10.3C890.8,789.8,895,785,895,779"/>
	<path id="Path_251_" class="st39" d="M904,790.5L904,790.5l0.7,0.1h0.3C904.7,790.5,904.3,790.5,904,790.5"/>
	<path id="Path_252_" class="st41" d="M895.2,779v0.7c0,0.8-0.1,1.5-0.2,2.3c1,4.3,4.6,7.5,9,8v-0.1c-5-0.7-8.7-5.1-8.8-10.2V779"/>
	<path id="Path_253_" class="st40" d="M895.8,779h-0.6c0,1,0.1,2,0.4,3c0.2-0.7,0.2-1.5,0.2-2.3L895.8,779L895.8,779z"/>
	<path id="Path_254_" class="st40" d="M915,779h-19v0.7c0,5.1,3.6,9.4,8.4,10.2c0.4,0.1,0.7,0.1,1.1,0.1
		C910.8,789.8,915,785,915,779"/>
	<polygon id="Path_255_" class="st10" points="943.6,607 943.4,607 943.4,617 943.6,617 	"/>
	<path id="Shape_19_" class="st0" d="M735,606v11V606z M944,606h-0.5v0.2h0.1v10.4h-0.1v0.4h0.5V606z"/>
	<polygon id="Path_256_" class="st28" points="944,606.4 735,606.4 735,606.6 735,606.6 943.5,606.6 944,606.6 	"/>
	<polygon id="Path_257_" class="st6" points="757,638 781,638 781,668 757,668 	"/>
	<polygon id="Path_258_" class="st3" points="757,635 781,635 781,665 757,665 	"/>
	<polygon id="Path_259_" class="st6" points="806,638 830,638 830,668 806,668 	"/>
	<polygon id="Path_260_" class="st3" points="806,635 830,635 830,665 806,665 	"/>
	<polygon id="Path_261_" class="st6" points="757,694 781,694 781,724 757,724 	"/>
	<polygon id="Path_262_" class="st3" points="757,691 781,691 781,721 757,721 	"/>
	<polygon id="Path_263_" class="st6" points="806,694 830,694 830,724 806,724 	"/>
	<polygon id="Path_264_" class="st15" points="806,691 830,691 830,721 806,721 	"/>
	<polygon id="Path_265_" class="st6" points="850,638 874,638 874,668 850,668 	"/>
	<polygon id="Path_266_" class="st3" points="850,635 874,635 874,665 850,665 	"/>
	<polygon id="Path_267_" class="st6" points="899,638 923,638 923,668 899,668 	"/>
	<polygon id="Path_268_" class="st15" points="899,635 923,635 923,665 899,665 	"/>
	<polygon id="Path_269_" class="st6" points="850,694 874,694 874,724 850,724 	"/>
	<polygon id="Path_270_" class="st3" points="850,691 874,691 874,721 850,721 	"/>
	<polygon id="Path_271_" class="st6" points="899,694 923,694 923,724 899,724 	"/>
	<polygon id="Path_272_" class="st0" points="899,691 923,691 923,721 899,721 	"/>
	<polygon id="Path_273_" class="st2" points="90,811 101,811 101,859 90,859 	"/>
	<polygon id="Path_274_" class="st42" points="90,811 101,811 101,819 90,819 	"/>
	<circle id="Oval_1_" class="st43" cx="95" cy="776" r="35"/>
	
		<linearGradient id="Path_468_" gradientUnits="userSpaceOnUse" x1="2221.7998" y1="0.3049" x2="2222.7998" y2="0.3049" gradientTransform="matrix(70 0 0 41 -155465.9844 779)">
		<stop  offset="0" style="stop-color:#33CC99;stop-opacity:0.1"/>
		<stop  offset="1" style="stop-color:#33CC99;stop-opacity:0.2"/>
	</linearGradient>
	<path id="Path_275_" class="st44" d="M95,801.3c-17.4,0-32.2-12.9-34.6-30.3c-0.2,1.7-0.4,3.4-0.4,5.1
		c-0.2,12.8,6.4,24.7,17.3,31.1s24.4,6.4,35.3,0s17.5-18.3,17.3-31.1c0-1.7-0.1-3.4-0.4-5.1C127.2,788.4,112.4,801.3,95,801.3
		L95,801.3z"/>
	<path id="Path_276_" class="st3" d="M986,415.9v3.1c0,1.1-0.9,2-2,2H870c-1.1,0-2-0.9-2-2v-3.1c0-0.6,0.1-1.2,0.2-1.8
		c0.7-4,3.5-7.4,7.4-8.6c3.9-1.3,8.2-0.3,11.2,2.5c4.2-7.9,13.8-11.4,22.1-7.9c5.3-9.4,15.3-15.2,26.2-15.1
		c10.8,0.1,20.8,6,25.9,15.5c5.1-2.5,11.1-2.4,16.1,0.3c5,2.7,8.3,7.7,8.9,13.3C986,414.7,986,415.3,986,415.9L986,415.9z"/>
	<path id="Path_277_" class="st2" d="M1045,438h16v12c0,2.2-1.8,4-4,4h-8c-2.2,0-4-1.8-4-4V438L1045,438z"/>
	<path id="Path_278_" class="st45" d="M1048.8,412v-12h-4.8v12c0,2.2,1.9,4,4.2,4h4.8C1050.7,416,1048.8,414.2,1048.8,412z"/>
	<path id="Path_279_" class="st46" d="M1089.9,339.2c0,7.9-2.6,15.7-7.4,22c-5,6.4-9.7,13-13.9,19.9l-6,9.9h-18.2l-6-9.9
		c-4.2-6.8-8.7-13.3-13.6-19.5c-5.4-6.9-8.1-15.4-7.6-24.1c1-19.7,17.6-35,37.3-34.5C1074.2,303.5,1089.9,319.6,1089.9,339.2
		L1089.9,339.2z"/>
	<path id="Path_280_" class="st2" d="M1055,340.3c1.3,0.1,2.7,0.2,4,0.4C1057.7,340.5,1056.3,340.4,1055,340.3L1055,340.3z"/>
	<path id="Path_281_" class="st2" d="M1032,361h54c-3.7-11.9-14.6-20-27-20C1046.7,341,1035.7,349.1,1032,361L1032,361z"/>
	<path id="Path_282_" class="st2" d="M1053,340.4c-0.7,0-1.4,0-2.1,0c-1,0.1-1.9,0.2-2.9,0.3c1-0.1,1.9-0.2,2.9-0.3H1053z"/>
	<path id="Path_283_" class="st2" d="M1053,340.5h2C1054.3,340.5,1053.7,340.5,1053,340.5z"/>
	<path id="Path_284_" class="st2" d="M1044,341.9c1-0.3,2-0.5,3-0.8C1046,341.3,1045,341.6,1044,341.9z"/>
	<path id="Path_285_" class="st2" d="M1047.7,429h14.5l5.9-9.9c1.8-3.1,3.8-6.1,5.9-9.1h-35C1043.2,418.9,1047.7,429,1047.7,429
		L1047.7,429z"/>
	<path id="Path_286_" class="st2" d="M1028,379c0.2,6.2,1.7,12.4,4.3,18h50.7c3.5-5.4,5.5-11.6,6-18H1028z"/>
	<path id="Path_287_" class="st2" d="M1037,417c0.5,0.6,1,1.2,1.4,1.8l1.6,2.2l-1.6-2.2C1038,418.2,1037.5,417.6,1037,417z"/>
	<path id="Path_288_" class="st31" d="M1028,375.7c-0.1,1.5-0.1,2.9,0,4.3h61.9c0.1-0.8,0.1-1.7,0.1-2.5c0-5.7-1.3-11.4-3.9-16.5
		h-54.2C1029.6,365.6,1028.3,370.6,1028,375.7L1028,375.7z"/>
	<path id="Path_289_" class="st31" d="M1034.1,399.3c1.3,2.5,3.2,6.5,5.2,10.7h35.4c2.6-3.8,5.3-7.4,8-11.1c0.5-0.6,0.9-1.3,1.3-1.9
		h-51C1033.3,397.8,1033.7,398.5,1034.1,399.3L1034.1,399.3z"/>
	<path id="Path_290_" class="st47" d="M1032,410c1.7,2.3,3.4,4.6,5,7C1035.4,414.6,1033.8,412.3,1032,410z"/>
	<path id="Path_291_" class="st47" d="M1047,340.6c0.7-0.1,1.3-0.2,2-0.3C1048.3,340.4,1047.7,340.5,1047,340.6z"/>
	<path id="Path_292_" class="st47" d="M1017,379c0.4,6.4,2.5,12.6,6,18C1019.5,391.6,1017.4,385.4,1017,379L1017,379z"/>
	<path id="Path_293_" class="st47" d="M1044,342c-10,2.9-18.3,9.7-23,19C1025.7,351.7,1034,344.9,1044,342L1044,342z"/>
	<path id="Path_294_" class="st47" d="M1044,429l-5-8L1044,429z"/>
	<path id="Path_295_" class="st2" d="M1021,361h11.3c5.3-10.4,15.2-17.7,26.7-19.6c-1.2-0.2-2.5-0.3-3.8-0.4c-0.6,0-1.2,0-1.8,0
		h-0.2c-0.7,0-1.3,0-2,0c-0.9,0.1-1.8,0.1-2.7,0.3c-0.6,0.1-1.2,0.2-1.7,0.3c-1.1,0.2-2.2,0.4-3.2,0.7
		C1033.8,345.1,1025.6,351.9,1021,361L1021,361z"/>
	<path id="Path_296_" class="st45" d="M1021,361h11.3c5.3-10.4,15.2-17.7,26.7-19.6c-1.2-0.2-2.5-0.3-3.8-0.4c-0.6,0-1.2,0-1.8,0
		h-0.2c-0.7,0-1.3,0-2,0c-0.9,0.1-1.8,0.1-2.7,0.3c-0.6,0.1-1.2,0.2-1.7,0.3c-1.1,0.2-2.2,0.4-3.2,0.7
		C1033.8,345.1,1025.6,351.9,1021,361L1021,361z"/>
	<path id="Path_297_" class="st2" d="M1023.1,397h9.9c-2.7-5.6-4.2-11.8-4.5-18H1017C1017.4,385.4,1019.5,391.6,1023.1,397
		L1023.1,397z"/>
	<path id="Path_298_" class="st45" d="M1023.1,397h9.9c-2.7-5.6-4.2-11.8-4.5-18H1017C1017.4,385.4,1019.5,391.6,1023.1,397
		L1023.1,397z"/>
	<path id="Path_299_" class="st2" d="M1032,410c1.7,2.3,3.3,4.7,4.8,7.1c0.4,0.7,0.9,1.3,1.3,2l1.4,2.3l4.8,7.6h3.7
		c0,0-4.8-10.1-9.1-19H1032z"/>
	<path id="Path_300_" class="st45" d="M1032,410c1.7,2.3,3.3,4.7,4.8,7.1c0.4,0.7,0.9,1.3,1.3,2l1.4,2.3l4.8,7.6h3.7
		c0,0-4.8-10.1-9.1-19H1032z"/>
	<path id="Path_301_" class="st31" d="M1016.5,377c0-0.7,0-1.3,0-2C1016.5,375.7,1016.5,376.3,1016.5,377z"/>
	<path id="Path_302_" class="st47" d="M1016.5,377c0-0.7,0-1.3,0-2C1016.5,375.7,1016.5,376.3,1016.5,377z"/>
	<path id="Path_303_" class="st31" d="M1016.5,377c0,1,0,2,0.1,3C1016.5,379,1016.5,378,1016.5,377z"/>
	<path id="Path_304_" class="st47" d="M1016.5,377c0,1,0,2,0.1,3C1016.5,379,1016.5,378,1016.5,377z"/>
	<path id="Path_305_" class="st31" d="M1021,361c-2,3.5-3.4,7.2-4,11C1017.6,368.2,1019,364.5,1021,361L1021,361z"/>
	<path id="Path_306_" class="st47" d="M1021,361c-2,3.5-3.4,7.2-4,11C1017.6,368.2,1019,364.5,1021,361L1021,361z"/>
	<path id="Path_307_" class="st31" d="M1028.2,375.7c0.2-5.1,1.5-10.1,3.8-14.7h-11.2c-1.7,3.5-2.9,7.3-3.4,11.2
		c-0.2,1.1-0.3,2.3-0.3,3.5v1.7c0,0.9,0,1.7,0.1,2.6h11.2C1028.2,378.6,1028.2,377.2,1028.2,375.7L1028.2,375.7z"/>
	<path id="Path_308_" class="st48" d="M1028.2,375.7c0.2-5.1,1.5-10.1,3.8-14.7h-11.2c-1.7,3.5-2.9,7.3-3.4,11.2
		c-0.2,1.1-0.3,2.3-0.3,3.5v1.7c0,0.9,0,1.7,0.1,2.6h11.2C1028.2,378.6,1028.2,377.2,1028.2,375.7L1028.2,375.7z"/>
	<path id="Path_309_" class="st31" d="M1024.5,399.3c-0.5-0.7-1.1-1.5-1.5-2.3C1023.5,397.8,1024,398.5,1024.5,399.3
		c2.6,3.5,5.1,7.1,7.5,10.7C1029.6,406.3,1027.1,402.8,1024.5,399.3z"/>
	<path id="Path_310_" class="st47" d="M1024.5,399.3c-0.5-0.7-1.1-1.5-1.5-2.3C1023.5,397.8,1024,398.5,1024.5,399.3
		c2.6,3.5,5.1,7.1,7.5,10.7C1029.6,406.3,1027.1,402.8,1024.5,399.3z"/>
	<path id="Path_311_" class="st31" d="M1024.6,399.3c2.7,3.5,5.3,7.1,7.7,10.7h6.7c-2-4.3-3.9-8.2-5.2-10.7
		c-0.4-0.7-0.8-1.5-1.1-2.3h-9.7C1023.5,397.8,1024,398.5,1024.6,399.3z"/>
	<path id="Path_312_" class="st48" d="M1024.6,399.3c2.7,3.5,5.3,7.1,7.7,10.7h6.7c-2-4.3-3.9-8.2-5.2-10.7
		c-0.4-0.7-0.8-1.5-1.1-2.3h-9.7C1023.5,397.8,1024,398.5,1024.6,399.3z"/>
	<path id="Path_313_" class="st3" d="M1190,418.1v3.6c0,1.3-1,2.3-2.3,2.3h-132.4c-1.3,0-2.3-1-2.3-2.3v-3.6c0-0.7,0.1-1.4,0.2-2.1
		c0.8-4.7,4.1-8.6,8.6-10.1s9.5-0.4,13,2.9c4.8-9.3,16-13.3,25.7-9.3c6.2-11,17.8-17.7,30.4-17.6s24.1,7,30.1,18.1
		c5.9-2.9,12.9-2.8,18.6,0.4c5.8,3.2,9.6,9,10.3,15.5C1190,416.7,1190,417.4,1190,418.1L1190,418.1z"/>
	<polygon id="Path_314_" class="st49" points="894,946 918,946 918,969 894,969 	"/>
	<polygon id="Path_315_" class="st49" points="914,946 918,946 918,969 914,969 	"/>
	<polygon id="Path_316_" class="st50" points="918,946 942,946 942,969 918,969 	"/>
	<polygon id="Path_317_" class="st50" points="911,924 935,924 935,947 911,947 	"/>
	<polygon id="Path_318_" class="st49" points="938,931 909,931 911.6,924 935.4,924 	"/>
	<polygon id="Path_319_" class="st51" points="911,946 935,946 935,947 911,947 	"/>
	<polygon id="Path_320_" class="st49" points="930,960.7 929.6,961 929.2,960.7 928.7,961 928.3,960.7 927.9,961 927.4,960.7 
		927,961 927,946 930,946 	"/>
	<polygon id="Path_321_" class="st52" points="908,961 907,960.5 906.3,961 905.6,960.5 905,961 905,946 908,946 	"/>
	<polygon id="Path_322_" class="st2" points="3396,491 3400,491 3400,509 3396,509 	"/>
	<polygon id="Path_323_" class="st42" points="3396,491 3400,491 3400,494 3396,494 	"/>
	<ellipse id="Oval_2_" class="st33" cx="3398" cy="481" rx="13" ry="10"/>
	
		<linearGradient id="Path_469_" gradientUnits="userSpaceOnUse" x1="2167.3076" y1="-0.1667" x2="2168.3096" y2="-0.1667" gradientTransform="matrix(26 0 0 12 -52965 488)">
		<stop  offset="0" style="stop-color:#33CC99;stop-opacity:0.1"/>
		<stop  offset="1" style="stop-color:#33CC99;stop-opacity:0.2"/>
	</linearGradient>
	<path id="Path_324_" class="st53" d="M3398,489c-6.6,0-12-3.9-12.9-9c-0.1,0.5-0.1,1-0.1,1.5c0,5.8,5.8,10.5,13,10.5
		s13-4.7,13-10.5c0-0.5,0-1-0.1-1.5C3410,485.1,3404.6,489,3398,489L3398,489z"/>
	<polygon id="Path_325_" class="st2" points="3374,487 3379,487 3379,509 3374,509 	"/>
	<polygon id="Path_326_" class="st42" points="3374,487 3379,487 3379,491 3374,491 	"/>
	<circle id="Oval_3_" class="st33" cx="3377" cy="471" r="16"/>
	
		<linearGradient id="Path_470_" gradientUnits="userSpaceOnUse" x1="2183.563" y1="7.958422e-02" x2="2184.563" y2="7.958422e-02" gradientTransform="matrix(32.0002 0 0 19 -66513.5 476.9629)">
		<stop  offset="0" style="stop-color:#33CC99;stop-opacity:0.1"/>
		<stop  offset="1" style="stop-color:#33CC99;stop-opacity:0.2"/>
	</linearGradient>
	<path id="Path_327_" class="st54" d="M3377,483c-8,0-14.7-5.9-15.8-14c-0.1,0.8-0.2,1.5-0.2,2.3c-0.1,5.9,2.9,11.4,7.9,14.4
		s11.2,3,16.2,0s8-8.5,7.9-14.4c0-0.8-0.1-1.5-0.2-2.3C3391.7,477,3385,483,3377,483L3377,483z"/>
	<polygon id="Path_328_" class="st2" points="3449.5,487.5 3454.5,487.4 3454.8,509.5 3449.8,509.5 	"/>
	<polygon id="Path_329_" class="st42" points="3449.5,487.5 3454.5,487.4 3454.6,491.1 3449.5,491.1 	"/>
	<circle id="Oval_4_" class="st33" cx="3452" cy="471" r="16"/>
	
		<linearGradient id="Path_471_" gradientUnits="userSpaceOnUse" x1="2183.5657" y1="7.941922e-02" x2="2184.5659" y2="7.184964e-02" gradientTransform="matrix(32.0002 0 0 19 -66438.5 477)">
		<stop  offset="0" style="stop-color:#33CC99;stop-opacity:0.1"/>
		<stop  offset="1" style="stop-color:#33CC99;stop-opacity:0.2"/>
	</linearGradient>
	<path id="Path_330_" class="st55" d="M3452.1,483.3c-8,0.1-14.8-5.8-16-13.9c-0.1,0.8-0.1,1.6-0.1,2.3c0.1,9.1,7.4,16.4,16.2,16.2
		c8.8-0.1,15.9-7.6,15.8-16.7c0-0.8-0.1-1.6-0.2-2.3C3466.8,477.1,3460.1,483.2,3452.1,483.3L3452.1,483.3z"/>
	<g id="Group-2" transform="translate(1105.000000, 763.000000)">
		<polygon id="Path_331_" class="st2" points="59.1,60.6 65.7,60.6 65.7,91.1 59.1,91.1 		"/>
		<polygon id="Path_332_" class="st42" points="59.1,60.8 65.7,60.8 65.7,65.8 59.1,65.8 		"/>
		<ellipse id="Oval_5_" class="st43" cx="62.2" cy="44" rx="21.9" ry="16.9"/>
		
			<linearGradient id="Path_472_" gradientUnits="userSpaceOnUse" x1="-7.5672" y1="8.253826e-02" x2="-6.5672" y2="8.253826e-02" gradientTransform="matrix(43.71 0 0 19.29 371.0599 49.5578)">
			<stop  offset="0" style="stop-color:#33CC99;stop-opacity:0.1"/>
			<stop  offset="1" style="stop-color:#33CC99;stop-opacity:0.2"/>
		</linearGradient>
		<path id="Path_333_" class="st56" d="M62.2,56c-11,0-20.1-6.3-21.6-14.5c-0.2,0.8-0.2,1.6-0.2,2.4c0,9.3,9.8,16.9,21.9,16.9
			S84,53.3,84,44c0-0.8-0.1-1.6-0.2-2.4C82.3,49.8,73.2,56,62.2,56L62.2,56z"/>
		<polygon id="Path_334_" class="st2" points="23.1,54.1 31.5,54.1 31.5,91.1 23.1,91.1 		"/>
		<polygon id="Path_335_" class="st42" points="23.1,54.1 31.5,54.1 31.5,60.3 23.1,60.3 		"/>
		<circle id="Oval_6_" class="st43" cx="27.1" cy="27.1" r="27.1"/>
		
			<linearGradient id="Path_473_" gradientUnits="userSpaceOnUse" x1="2.3683" y1="0.2435" x2="3.3683" y2="0.2435" gradientTransform="matrix(54.1416 0 0 30.9534 -128.2006 31.2685)">
			<stop  offset="0" style="stop-color:#33CC99;stop-opacity:0.1"/>
			<stop  offset="1" style="stop-color:#33CC99;stop-opacity:0.2"/>
		</linearGradient>
		<path id="Path_336_" class="st57" d="M27.1,46.5c-13.5,0-24.9-9.9-26.8-23.2C-1.2,33.8,3.5,44.2,12.4,50s20.4,5.7,29.3,0
			s13.7-16.2,12.1-26.7C52,36.6,40.6,46.5,27.1,46.5L27.1,46.5z"/>
	</g>
	<path id="Path_337_" class="st58" d="M1478,923.2v3.8h-99v-65h18.9c21,0,40.2,11.8,49.7,30.5C1464.4,892.6,1478,906.3,1478,923.2"
		/>
	<polygon id="Path_338_" class="st58" points="1250,818 1419,818 1419,927 1250,927 	"/>
	<path id="Path_339_" class="st59" d="M1397,894.6v-21.1c0-0.3,0.2-0.5,0.5-0.5h4.7c15.1,0,25.9,8.4,32.7,21.3
		c0.1,0.2,0.1,0.3,0,0.5c-0.1,0.1-0.2,0.2-0.4,0.2h-37C1397.2,895,1397,894.8,1397,894.6"/>
	<path id="Path_340_" class="st60" d="M1307,927c0,8.1-4.9,15.4-12.3,18.5c-7.5,3.1-16.1,1.4-21.8-4.3c-5.7-5.7-7.4-14.3-4.3-21.8
		s10.4-12.3,18.5-12.3c5.3,0,10.4,2.1,14.1,5.9C1304.9,916.6,1307,921.7,1307,927"/>
	<path id="Path_341_" class="st60" d="M1457,927c0,11-9,20-20,20s-20-9-20-20s9-20,20-20S1457,916,1457,927"/>
	<path id="Path_342_" class="st58" d="M1298,927.5c0,4.2-2.6,8.1-6.5,9.7c-3.9,1.6-8.4,0.7-11.4-2.3s-3.9-7.5-2.3-11.4
		s5.5-6.5,9.7-6.5C1293.3,917,1298,921.7,1298,927.5"/>
	<path id="Path_343_" class="st58" d="M1448,927.5c0,4.2-2.6,8.1-6.5,9.7c-3.9,1.6-8.4,0.7-11.4-2.3s-3.9-7.5-2.3-11.4
		s5.5-6.5,9.7-6.5C1443.3,917,1448,921.7,1448,927.5"/>
	<path id="Path_344_" class="st6" d="M1320.3,931h83.4c2.4,0,4.3-2,4.3-4.5s-1.9-4.5-4.3-4.5h-83.4c-2.4,0-4.3,2-4.3,4.5
		S1317.9,931,1320.3,931"/>
	<path id="Path_345_" class="st60" d="M1320.3,929.1h83.4c2,0,3.7-1.3,4.2-3.1c0.3,1.2,0,2.5-0.8,3.5s-2.1,1.5-3.4,1.5h-83.4
		c-1.3,0-2.6-0.6-3.4-1.5c-0.8-1-1.1-2.2-0.8-3.5C1316.6,927.8,1318.3,929.1,1320.3,929.1"/>
	<path id="Path_346_" class="st61" d="M1403.8,874l4.9,8.6c3.8,6.3-1.7,9.8-1.7,9.8c1.3,3.2-7.2,3.9-6.6-0.4
		c-3.9,0.4-6.1-4.9-4.6-6.6c0,0-2.4-5.7,1.1-9.8C1396.9,875.5,1404.8,874.3,1403.8,874"/>
	<path id="Path_347_" class="st62" d="M1416.9,889.9l-0.7,5.1H1400c0,0-1-11.2,8-11h2.5C1418,883.6,1416.9,890,1416.9,889.9"/>
	<path id="Path_348_" class="st46" d="M1410,887c-0.5,0-1.1-0.2-1.5-0.6c-0.4-0.4-0.6-0.9-0.6-1.5V882h4v2.9
		C1412,886,1411.2,887,1410,887"/>
	<path id="Path_349_" class="st63" d="M1412,883v2.1c0,1-0.9,1.8-2,1.8c-0.5,0-1.1-0.2-1.4-0.6c-0.4-0.3-0.6-0.8-0.6-1.3v-2.1
		c0.6,0.1,1.2,0.2,1.9,0.2c0.6,0,1.2,0,1.7-0.2L1412,883"/>
	<path id="Path_350_" class="st64" d="M1411.8,882.9c-2.4,0.4-4.8-0.1-6.7-1.5c-1.9-1.4-3.2-3.4-3.6-5.7l-1.4-9.2l16.9-6.5l1.9,12.2
		C1419.8,877,1416.7,881.7,1411.8,882.9"/>
	<path id="Path_351_" class="st64" d="M1431.4,889.4c0.5,0.8,1,1.7,1.6,2.6l-18-2.4V886L1431.4,889.4z"/>
	<path id="Path_352_" class="st61" d="M1396.8,876c0,0-2.4-5.7,1.1-10.1c-2.3-7.5,4.6-11.2,7.3-11.6c8.9-1.6,11.8,3.3,12.7,6
		c0.3,1.1-0.2,2.2-1.2,2.6c-1.8,0.7-3.8,0.8-4.6-1c0.4,2.7-2.1,5.4-6.1,3.5c-0.8,0.8-2,1.1-3.1,0.8l-1.8,9.1L1396.8,876z"/>
	<path id="Path_353_" class="st64" d="M1404,872.4c0.1,0.9-0.2,1.8-0.7,2.5s-1.3,1.1-2.1,1.2c-1.7,0-3.1-1.5-3.1-3.4
		c-0.1-0.9,0.2-1.8,0.7-2.5s1.3-1.1,2.1-1.2C1402.5,869,1403.9,870.5,1404,872.4"/>
	<path id="Path_354_" class="st63" d="M1401,871c0.6,0,1,0.4,1,1c0,0.5-0.4,1-1,1s-1-0.4-1-1C1400,871.5,1400.4,871,1401,871
		L1401,871z"/>
	<path id="Path_355_" class="st61" d="M1413.5,866.7c0-0.2-0.2-0.4-0.3-0.6s-0.4-0.2-0.6-0.1c-0.4,0.1-0.6,0.6-0.5,1.1l0.5,2.2
		c0,0.2,0.2,0.4,0.4,0.6c0.2,0.1,0.4,0.2,0.6,0.1c0.4-0.1,0.6-0.6,0.5-1.1L1413.5,866.7"/>
	<path id="Path_356_" class="st61" d="M1409.4,871c-0.2,0.1-0.4,0-0.6-0.1s-0.3-0.3-0.3-0.6l-0.5-2.2c-0.1-0.5,0.1-0.9,0.5-1.1
		c0.2-0.1,0.4,0,0.6,0.1s0.3,0.3,0.4,0.6l0.5,2.2C1410.1,870.3,1409.8,870.8,1409.4,871"/>
	<path id="Path_357_" class="st61" d="M1414.9,874v0.2c0.1,0.2,0.1,0.5,0.1,0.8c0.1,1-0.3,2.1-1.1,2.8c-0.8,0.8-1.8,1.2-2.9,1.2
		c-2,0-3.7-1.4-4-3.2v-0.2L1414.9,874"/>
	<polygon id="Path_358_" class="st62" points="1402,892 1417,892 1417,895 1402,895 	"/>
	<polygon id="Path_359_" class="st62" points="1412.2,885 1418.4,885.8 1419,891 1411,891 	"/>
	<g id="Group-3" transform="translate(3245.000000, 895.000000)">
		<path id="Path_360_" class="st3" d="M26.4,131.1c0,4.2,2.5,8,6.4,9.6s8.4,0.7,11.3-2.3c3-3,3.9-7.5,2.3-11.3
			c-1.6-3.9-5.4-6.4-9.6-6.4C31.1,120.7,26.4,125.4,26.4,131.1L26.4,131.1z"/>
		<path id="Path_361_" class="st3" d="M36.8,120.7c-5.7,0-10.4,4.7-10.4,10.4s4.7,10.4,10.4,10.4s10.4-4.7,10.4-10.4
			c0-2.8-1.1-5.4-3.1-7.4C42.3,121.8,39.6,120.7,36.8,120.7"/>
		<g id="Group">
			<path id="Path_362_" class="st3" d="M5.9,106v5.1c0,1.3-0.6,2.5-1.7,3.3s-2.5,0.9-3.7,0.4v-6.5c0-2.1,0.2-4.1,0.7-6.1
				c0.3,0,0.5-0.1,0.8-0.1C4.1,102.1,5.9,103.8,5.9,106L5.9,106z"/>
			<path id="Path_363_" class="st3" d="M61.5,127c0.1,1.1,0.2,2.1,0.2,3.2v0.8h-5.2v0.1h-39V131h-5v-0.8c0-1.1,0.1-2.1,0.2-3.2
				c1.6-12.3,12-21.4,24.4-21.4S59.9,114.7,61.5,127L61.5,127z"/>
			<path id="Path_364_" class="st3" d="M89.1,97.2c0,1.6-1.3,2.9-2.9,2.9h-7.8c-1.6,0-2.9-1.3-2.9-2.9s1.3-2.9,2.9-2.9h7.8
				C87.8,94.4,89.1,95.6,89.1,97.2L89.1,97.2z"/>
			<path id="Path_365_" class="st3" d="M154,82.2h-45.8v8h-7.6v-8H54v-4.1c7-8.6,16.6-14.7,27.4-17.4c6.3-1.6,12.8-2.6,19.2-3V52
				h7.6v5.5h0.3c12.3,0,24.6,1.7,36.5,5.2l9.1,15.5L154,82.2z"/>
			<path id="Path_366_" class="st3" d="M179.9,130.2v0.9h-5.2v0.1h-39.1v-0.1h-5v-0.9c0-1.1,0.1-2.1,0.2-3.2
				c1.6-12.3,12.1-21.4,24.4-21.4c12.4,0,22.8,9.2,24.4,21.4C179.8,128.1,179.8,129.2,179.9,130.2L179.9,130.2z"/>
			<path id="Path_367_" class="st3" d="M37.1,105.6c-12.4,0-22.8,9.2-24.4,21.4c-0.1,1.1-0.2,2.1-0.2,3.2v0.9h49.2v-0.9
				c0-1.1-0.1-2.1-0.2-3.2C59.9,114.8,49.5,105.6,37.1,105.6"/>
			<path id="Path_368_" class="st3" d="M17.5,130.2c0,10.8,8.8,19.6,19.6,19.6s19.6-8.8,19.6-19.6c0-0.9-0.1-1.7-0.2-2.6
				c-1.3-9.7-9.6-17-19.4-17s-18.1,7.3-19.4,17C17.5,128.5,17.4,129.4,17.5,130.2L17.5,130.2z"/>
			<path id="Path_369_" class="st3" d="M155.2,105.6c-12.4,0-22.8,9.2-24.4,21.4c-0.1,1.1-0.2,2.1-0.2,3.2v0.9h49.2v-0.9
				c0-1.1-0.1-2.1-0.2-3.2C178,114.8,167.6,105.6,155.2,105.6"/>
			<path id="Path_370_" class="st3" d="M135.6,130.2c0.2,10.6,8.9,19.1,19.6,19.1s19.3-8.5,19.6-19.1c0-0.9-0.1-1.7-0.2-2.6
				c-1.3-9.7-9.6-17-19.4-17s-18.1,7.3-19.4,17C135.6,128.5,135.5,129.4,135.6,130.2L135.6,130.2z"/>
			<path id="Path_371_" class="st3" d="M144.9,62.7c0,0-31.2-10.2-63.5-1.9C70.6,63.4,61,69.6,54,78.2v4.1h100v-4.1L144.9,62.7z"/>
			<polygon id="Path_372_" class="st3" points="100.6,51.9 108.2,51.9 108.2,90.3 100.6,90.3 			"/>
			<path id="Path_373_" class="st3" d="M78.4,100.1h7.8c1.6,0,2.9-1.3,2.9-2.9s-1.3-2.9-2.9-2.9h-7.8c-1.6,0-2.9,1.3-2.9,2.9
				C75.6,98.8,76.8,100.1,78.4,100.1L78.4,100.1z"/>
			<path id="Path_374_" class="st3" d="M193.1,78.3l-2,0.1C191.7,78.2,192.4,78.2,193.1,78.3z"/>
			<path id="Path_375_" class="st3" d="M190.3,55H190l0.1-3.9h0.2c7.2,0,16.8-12.6,19.1-22.6l3.8,0.9C210.9,39.8,200.2,55,190.3,55"
				/>
			<path id="Path_376_" class="st3" d="M196.9,79.2h-19L177.8,58c0-5.2,4.3-9.5,9.5-9.5s9.5,4.3,9.5,9.5L196.9,79.2z"/>
			<path id="Path_377_" class="st3" d="M187.6,51.5c-1.4,0-2.5-1.2-2.5-2.5v-3.4h4.9V49C190,50.4,188.9,51.5,187.6,51.5"/>
			<path id="Path_378_" class="st3" d="M189.9,46l-0.5,0.1c-0.7,0.1-1.4,0.2-2.1,0.2c-0.8,0-1.5-0.1-2.3-0.2v3
				c0,1.4,1.1,2.5,2.4,2.5c0.7,0,1.3-0.3,1.8-0.8s0.7-1.2,0.7-1.8L189.9,46"/>
			<path id="Path_379_" class="st3" d="M189.4,46.1c-6.1,1.2-11.9-3-13.1-9.4l-1.8-11.9l21.4-8.4l2.4,15.8
				C199.5,38.6,195.5,44.8,189.4,46.1"/>
			<path id="Path_380_" class="st3" d="M193.4,25.9c-0.1-0.3-0.2-0.5-0.5-0.7c-0.2-0.1-0.5-0.2-0.8-0.1c-0.6,0.2-0.9,0.8-0.7,1.3
				L192,29c0.1,0.3,0.2,0.5,0.5,0.7s0.5,0.2,0.8,0.1c0.6-0.2,0.9-0.8,0.7-1.3L193.4,25.9z"/>
			<path id="Path_381_" class="st3" d="M188.3,30.8c-0.3,0.1-0.6,0-0.8-0.1s-0.4-0.4-0.5-0.7l-0.6-2.6c-0.1-0.6,0.2-1.1,0.7-1.3
				c0.3-0.1,0.6,0,0.8,0.1s0.4,0.4,0.5,0.7l0.6,2.5C189.2,30,188.9,30.6,188.3,30.8L188.3,30.8z"/>
			<path id="Path_382_" class="st3" d="M172.5,25.8l0.2,0.9l1.4,7.2c0.2,0.8,0.7,1.5,1.5,1.9s1.6,0.4,2.4,0c1.4-0.8,2.2-1.8,2.1-2.8
				l-1.1-8l13.6-3.6l0.3-3l3.9,2.4l3.9-2c-3.4-7.8-9.1-9.4-15.3-9.4c-1.2,0-2.4,0.2-3.6,0.5C174.7,11.8,170.6,18.9,172.5,25.8"/>
			<path id="Path_383_" class="st3" d="M182.9,32c0.1,1.1-0.3,2.2-1,3s-1.7,1.3-2.8,1.4c-2.2,0-4.1-1.8-4.2-4c-0.1-1.1,0.2-2.2,1-3
				s1.7-1.3,2.8-1.4C180.9,28,182.8,29.7,182.9,32"/>
			<path id="Path_384_" class="st3" d="M191.4,41c-1.4,0.3-2.8-0.1-4-0.9s-1.9-2.1-2.1-3.5l-0.1-0.3l10.2-2.1l0.1,0.3
				C196.1,37.5,194.3,40.4,191.4,41"/>
			<path id="Path_385_" class="st3" d="M189,29.5l-0.6-2.5"/>
			<path id="Path_386_" class="st3" d="M178.7,31.3c-0.5,0-0.9,0.4-0.9,0.9c0,0.5,0.4,0.9,0.9,0.9s0.9-0.4,0.9-0.9
				c0-0.2-0.1-0.5-0.3-0.6C179.1,31.4,178.9,31.3,178.7,31.3"/>
			<circle id="Oval_7_" class="st3" cx="178.4" cy="7.1" r="6.9"/>
			<polygon id="Path_387_" class="st3" points="190.2,49 197.1,46.2 199.2,54.4 195.7,57 			"/>
			<path id="Shape_20_" class="st3" d="M186.2,75.8c-5,0-8.5-1.3-10.5-3.9c-4.4-5.7,0.8-15,1-15.4l3.4,1.9c-1.2,2-3.7,8-1.3,11.1
				c1.4,1.8,5.8,4.1,20.2,0.3l1,3.8C195.5,75,190.9,75.7,186.2,75.8L186.2,75.8z M180.1,58.5l-1.7-1L180.1,58.5z"/>
			<path id="Path_388_" class="st3" d="M184.9,48.8c0,0-7.9-1-11.7,11.1l9.5,5.8L184.9,48.8z"/>
			<path id="Path_389_" class="st3" d="M215.6,27.1c0,2.3-1.8,4.1-4.1,4.1s-4.1-1.8-4.1-4.1s1.8-4.1,4.1-4.1S215.6,24.8,215.6,27.1
				L215.6,27.1z"/>
			<path id="Path_390_" class="st3" d="M201.2,44.1c-1.1,1.4-2.4,2.6-3.8,3.8l1.1,4c1.5-1.1,2.8-2.3,4.1-3.6L201.2,44.1"/>
			<path id="Shape_21_" class="st3" d="M190,48.9c0.1,1.4-1,2.5-2.4,2.6c-0.4,0-0.8-0.1-1.1-0.3c-0.2-0.1-0.4-0.2-0.5-0.4l11,16.1
				v-9c0-0.6,0-1.1-0.2-1.7l-0.9,0.7l-5.6-8H190 M185.2,48.7H185l-0.1,0.5l0.4,0.7c-0.1-0.2-0.2-0.5-0.2-0.7c0-0.1,0-0.2,0-0.3
				L185.2,48.7"/>
			<path id="Shape_22_" class="st3" d="M190,48.9c0,1.4-1,2.5-2.4,2.6c-0.4,0-0.8-0.1-1.1-0.3c0.3,0.2,0.7,0.3,1.1,0.3
				C189,51.4,190.1,50.3,190,48.9L190,48.9z M185.1,46v2.8V49c0,0.1,0,0.2,0,0.3c0-0.1,0-0.2,0-0.3V46L185.1,46z M190,45.9l-0.5,0.1
				L190,45.9z"/>
			<path id="Path_391_" class="st3" d="M189.9,46l-0.5,0.1c-0.7,0.1-1.4,0.2-2.1,0.2c-0.8,0-1.5-0.1-2.3-0.2v3c0,0.1,0,0.2,0,0.3
				c0,0.3,0.1,0.5,0.2,0.7l0.6,0.8c0.2,0.2,0.3,0.3,0.5,0.4c0.3,0.2,0.7,0.3,1.1,0.3c0.7,0,1.3-0.3,1.8-0.8s0.7-1.2,0.7-1.8v-0.1V46
				"/>
			<path id="Path_392_" class="st3" d="M195.6,35.2c0.2,2.7-1.5,5.2-4.2,5.8c-0.3,0.1-0.7,0.1-1,0.1c-2.2,0-4.2-1.5-4.9-3.6
				c-2.1,1.4-3.7,3.4-4.8,5.7l0.9,1.4c1,0.7,2.2,1.1,3.4,1.4c0.7,0.2,1.5,0.3,2.3,0.2c0.7,0,1.4-0.1,2.1-0.2l0.5-0.1
				c4.7-1.3,8.2-5.4,8.6-10.3v-0.1C197.5,35.4,196.5,35.3,195.6,35.2"/>
			<path id="Path_393_" class="st3" d="M194.2,35.2c-3.1-0.1-6.1,0.7-8.7,2.4c0.7,2.1,2.6,3.5,4.9,3.6c0.3,0,0.7,0,1-0.1
				c2.6-0.6,4.4-3.1,4.2-5.8C195.1,35.2,194.6,35.2,194.2,35.2"/>
			<polygon id="Path_394_" class="st3" points="197.1,46.2 190.2,49 190.2,49 195.7,57 196.7,56.3 199.2,54.4 198.6,51.9 
				197.5,47.9 			"/>
			<path id="Path_395_" class="st3" d="M184.5,48.8L184.5,48.8l0.3,0.6l0.1-0.5C184.8,48.8,184.7,48.8,184.5,48.8"/>
			<path id="Rectangle_2_" class="st3" d="M197.2,69l5.1-14.8c0.4-1.1,1.6-1.7,2.7-1.3l5.9,2c1.1,0.4,1.7,1.6,1.3,2.7L207,72.4
				c-0.4,1.1-1.6,1.7-2.7,1.3l-5.9-2C197.4,71.3,196.8,70.1,197.2,69z"/>
			<path id="Path_396_" class="st3" d="M204.6,70.8c0,2.3-1.8,4.1-4.1,4.1s-4.1-1.8-4.1-4.1s1.8-4.1,4.1-4.1
				C202.8,66.7,204.6,68.5,204.6,70.8z"/>
		</g>
		<path id="Path_397_" class="st65" d="M37.1,105.6c-12.4,0-22.8,9.2-24.4,21.4c-0.1,1.1-0.2,2.1-0.2,3.2v0.9h5c0-0.3,0-0.6,0-0.9
			c0-0.9,0.1-1.7,0.2-2.6c1.3-9.7,9.6-17,19.4-17s18.1,7.3,19.4,17c0.1,0.8,0.2,1.7,0.2,2.6v0.9h5.2v-0.9c0-1.1-0.1-2.1-0.2-3.2
			C60,114.8,49.6,105.6,37.1,105.6"/>
		<path id="Shape_23_" class="st66" d="M36.8,141.5c-5.7,0-10.4-4.7-10.4-10.4s4.7-10.4,10.4-10.4s10.4,4.7,10.4,10.4
			c0,2.8-1.1,5.4-3.1,7.4C42.3,140.4,39.6,141.5,36.8,141.5 M37,110.7c-9.8,0-18.1,7.3-19.4,17c-0.1,0.8-0.2,1.7-0.2,2.5v0.9v0.1
			c0.5,10.5,9.1,18.7,19.5,18.7s19.1-8.2,19.5-18.7v-0.1c0-0.3,0-0.6,0-0.9c0-0.9-0.1-1.7-0.2-2.5C55.1,118,46.8,110.7,37,110.7"/>
		<path id="Shape_24_" class="st67" d="M100.6,57.7c-6.5,0.4-12.9,1.4-19.2,3C70.6,63.4,61,69.5,54,78.2v4.1h46.7L100.6,57.7
			 M108.5,57.5h-0.3v24.8H154v-4.1l-9.1-15.5C133.1,59.2,120.8,57.5,108.5,57.5"/>
		<path id="Shape_25_" class="st2" d="M185.5,104.7c-1.9,0-1.8-1.6-1.8-3.5V90.6c0-0.8-0.3-1.6-0.8-2.2l-4.9-9.3l-9.7-18.5
			c-1.3-2.2-3.2-3.9-5.6-4.7c-0.8-0.3-1.6-0.6-2.4-0.8c-5.2-1.5-10.1-2.7-14.8-3.8c-1.8-0.4-3.5-0.8-5.3-1.1
			c-1.2-0.2-2.3-0.4-3.4-0.6l-3.4-0.6c-1.1-0.2-2.2-0.3-3.3-0.5s-1.9-0.3-2.9-0.4c-2.4-0.3-4.7-0.6-7-0.7c-0.9-0.1-1.7-0.1-2.6-0.2
			c-1.5-0.1-2.9-0.2-4.4-0.2c-1,0-1.9-0.1-2.8-0.1h-2.8c-26.5,0-43.6,7.7-54.2,15.4c-0.4,0.2-0.7,0.5-1,0.8c-3.6,2.7-7,5.9-9.9,9.3
			l-0.8,1c-1.3,1.7-2.2,2.9-2.6,3.4c-0.4,0.5-12,3.5-23,8.1c-0.5,0.2-0.9,0.4-1.4,0.6h-0.1c-0.4,0.2-0.8,0.4-1.2,0.6l-0.3,0.2
			l-0.9,0.6l-0.2,0l-1,0.7l-0.3,0.2c-0.3,0.2-0.7,0.5-1,0.8c-0.4,0.3-0.8,0.6-1.1,1s-0.7,0.7-1.1,1.1c-0.3,0.4-0.7,0.7-1,1.1
			c-1,1.1-1.8,2.4-2.6,3.7c-0.1,0.2-0.2,0.4-0.3,0.6c-0.3,0.5-0.5,1-0.7,1.5c-0.1,0.2-0.2,0.5-0.3,0.7s-0.1,0.3-0.2,0.5
			c-0.1,0.2-0.2,0.4-0.3,0.7c-0.3,0.7-0.5,1.4-0.7,2.2c-0.1,0.2-0.1,0.4-0.2,0.6v0.1c0.3,0,0.5-0.1,0.8-0.1c2.2,0,3.9,1.8,3.9,3.9
			v5.1c0,1.3-0.6,2.5-1.7,3.3c-1.1,0.7-2.5,0.9-3.7,0.4v13c0,1.9,1.6,3.5,3.5,3.5h13.5v-0.1h-5v-0.9c0-1.1,0.1-2.1,0.2-3.2
			c1.6-12.3,12-21.4,24.4-21.4s22.8,9.2,24.4,21.4c0.1,1.1,0.2,2.1,0.2,3.2v0.9h-5.2v0.1h79v-0.1h-5v-0.9c0-1.1,0.1-2.1,0.2-3.2
			c1.6-12.3,12.1-21.4,24.4-21.4c12.4,0,22.8,9.2,24.4,21.4c0.1,1.1,0.2,2.1,0.2,3.2v0.9h-5.2v0.1h10.8c0.9,0,1.8-0.4,2.5-1
			c0.7-0.7,1-1.5,1-2.5v-19.6c0-0.9-0.4-1.8-1-2.5C187.3,105.1,186.4,104.7,185.5,104.7L185.5,104.7z M54,82.2v-4.1
			c7-8.6,16.6-14.7,27.4-17.4c6.3-1.6,12.8-2.6,19.2-3v24.5H54z M86.3,100.1h-7.8c-1.6,0-2.9-1.3-2.9-2.9s1.3-2.9,2.9-2.9h7.8
			c1.6,0,2.9,1.3,2.9,2.9C89.2,98.8,87.9,100.1,86.3,100.1L86.3,100.1z M154,82.2h-45.8V57.5h0.3c12.3,0,24.6,1.7,36.5,5.2l9.1,15.5
			v4H154z"/>
		<path id="Path_398_" class="st67" d="M86.2,94.4h-7.8c-1.6,0-2.9,1.3-2.9,2.9s1.3,2.9,2.9,2.9h7.8c1.6,0,2.9-1.3,2.9-2.9
			C89.1,95.6,87.8,94.4,86.2,94.4"/>
	</g>
	<path id="Path_399_" class="st0" d="M3049,683.4c0,0-14.5,6.4-29.2,0c-22.7-9.9-32.8,0-32.8,0c9.9-3.1,20.7-1.9,29.7,3.4
		C3033.4,696.7,3046,694.1,3049,683.4L3049,683.4z"/>
	<path id="Path_400_" class="st0" d="M3001,731.4c0,0-14.5,6.4-29.2,0c-22.7-9.9-32.8,0-32.8,0c9.9-3.1,20.7-1.9,29.7,3.4
		C2985.5,744.7,2998,742.1,3001,731.4L3001,731.4z"/>
	<path id="Path_401_" class="st68" d="M2450,698.4c0,0-14.5,6.4-29.2,0c-22.7-9.9-32.8,0-32.8,0c9.9-3.1,20.7-1.9,29.7,3.4
		C2434.5,711.7,2447,709.1,2450,698.4L2450,698.4z"/>
	<path id="Path_402_" class="st68" d="M2205,676.6c0,0,14.5-6.4,29.2,0c22.7,9.9,32.8,0,32.8,0c-9.9,3.1-20.7,1.9-29.7-3.4
		C2220.5,663.3,2208,665.9,2205,676.6L2205,676.6z"/>
	<path id="Path_403_" class="st68" d="M2097,678.4c0,0-14.5,6.4-29.2,0c-22.7-9.9-32.8,0-32.8,0c9.9-3.1,20.7-1.9,29.7,3.4
		C2081.4,691.7,2094,689.1,2097,678.4L2097,678.4z"/>
	<path id="Path_404_" class="st68" d="M2126,748.6c0,0,14.5-6.4,29.2,0c22.7,9.9,32.8,0,32.8,0c-9.9,3.1-20.7,1.9-29.7-3.4
		C2141.5,735.3,2129,737.9,2126,748.6L2126,748.6z"/>
	<path id="Path_405_" class="st68" d="M1917,751.4c0,0-14.5,6.4-29.2,0c-22.7-9.9-32.8,0-32.8,0c9.9-3.1,20.7-1.9,29.7,3.4
		C1901.5,764.7,1914,762.1,1917,751.4L1917,751.4z"/>
	<path id="Path_406_" class="st68" d="M1342,695.4c0,0-14.5,6.4-29.2,0c-22.7-9.9-32.8,0-32.8,0c9.9-3.1,20.7-1.9,29.7,3.4
		C1326.5,708.7,1339,706.1,1342,695.4L1342,695.4z"/>
	<path id="Path_407_" class="st68" d="M1682,694.4c0,0-14.5,6.4-29.2,0c-22.7-9.9-32.8,0-32.8,0c9.9-3.1,20.7-1.9,29.7,3.4
		C1666.5,707.7,1679,705.1,1682,694.4L1682,694.4z"/>
	<path id="Path_408_" class="st68" d="M1790,692.6c0,0,14.5-6.4,29.2,0c22.7,9.9,32.8,0,32.8,0c-9.9,3.1-20.7,1.9-29.7-3.4
		C1805.5,679.3,1793,681.9,1790,692.6L1790,692.6z"/>
	<path id="Path_409_" class="st68" d="M1666,811.4c0,0-14.5,6.4-29.2,0c-22.7-9.9-32.8,0-32.8,0c9.9-3.1,20.7-1.9,29.7,3.4
		C1650.5,824.7,1662.9,822.1,1666,811.4L1666,811.4z"/>
	<path id="Path_410_" class="st68" d="M1539,752.6c0,0,14.5-6.4,29.2,0c22.7,9.9,32.8,0,32.8,0c-9.9,3.1-20.7,1.9-29.7-3.4
		C1554.5,739.3,1542,741.9,1539,752.6L1539,752.6z"/>
	<path id="Path_411_" class="st68" d="M2067,797.3c0,0-18,7.8-36.2,0c-28.1-12-40.8,0-40.8,0c12.3-3.8,25.7-2.3,36.8,4.2
		C2047.7,813.5,2063.2,810.3,2067,797.3L2067,797.3z"/>
	<path id="Path_412_" class="st0" d="M3096,772.4c0,0,18.9-8.2,38.1,0c29.6,12.7,42.9,0,42.9,0c-13,4-27,2.4-38.8-4.4
		C3116.3,755.2,3099.9,758.6,3096,772.4L3096,772.4z"/>
	<path id="Path_413_" class="st68" d="M2846,690.2c0,0,8.9-4.1,17.9,0c13.9,6.3,20.1,0,20.1,0c-6.1,2-12.7,1.2-18.2-2.2
		C2855.5,681.6,2847.9,683.3,2846,690.2L2846,690.2z"/>
	<path id="Path_414_" class="st68" d="M3193,734.5c0,0,8.4-3.6,17,0c13.2,5.6,19,0,19,0c-5.8,1.8-12,1-17.2-2
		C3202,726.9,3194.8,728.4,3193,734.5L3193,734.5z"/>
	<path id="Path_415_" class="st0" d="M3329,683.4c0,0-14.5,6.4-29.2,0c-22.7-9.9-32.8,0-32.8,0c9.9-3.1,20.7-1.9,29.7,3.4
		C3313.5,696.7,3326,694.1,3329,683.4L3329,683.4z"/>
	<path id="Path_416_" class="st0" d="M3376,742.4c0,0,18.9-8.2,38.1,0c29.6,12.7,42.9,0,42.9,0c-13,4-27,2.4-38.8-4.4
		C3396.3,725.2,3379.9,728.6,3376,742.4L3376,742.4z"/>
	<path id="Path_417_" class="st3" d="M857.2,1002h-16.4c-0.2,0-0.4-0.1-0.6-0.2c-0.1-0.2-0.2-0.4-0.2-0.6V993h10.3
		c4.3,0,7.7,3.7,7.7,8.2C858,1001.6,857.6,1002,857.2,1002"/>
	<polygon id="Path_418_" class="st3" points="858,1002 840,1002 840,1000 858,1000 	"/>
	<path id="Path_419_" class="st3" d="M844.2,1002h-16.4c-0.4,0-0.8-0.4-0.8-0.8V993h10.3c4.3,0,7.7,3.7,7.7,8.2
		C845,1001.6,844.6,1002,844.2,1002"/>
	<polygon id="Path_420_" class="st3" points="845,1002 827,1002 827,1000 845,1000 	"/>
	<path id="Path_421_" class="st69" d="M840.5,993.3L840.5,993.3l-0.1,0.4l0.2,0.1C840.6,993.6,840.5,993.4,840.5,993.3"/>
	<path id="Path_422_" class="st69" d="M857.5,1000.5L857.5,1000.5L857.5,1000.5z"/>
	<path id="Path_423_" class="st70" d="M858.6,1000.5h-0.2H858.6z"/>
	<path id="Path_424_" class="st70" d="M858,1001c0,0.5-0.4,1-1,1h1V1001z"/>
	<path id="Path_425_" class="st71" d="M850.1,993L850.1,993c4.2,0,7.8,3.6,7.9,8C858,996.6,854.4,993,850.1,993"/>
	<path id="Path_426_" class="st72" d="M850.3,993h-1.8c-0.5,2-2.2,3.4-4.1,3.4H844c0.9,1.3,1.4,2.9,1.4,4.6H858v-0.1
		C857.9,996.5,854.5,993,850.3,993"/>
	<path id="Path_427_" class="st73" d="M857.8,1000H845v2h11.7c0.7,0,1.3-0.7,1.3-1.5v-0.5H857.8z"/>
	<path id="Path_428_" class="st69" d="M837.3,993h-2c-0.5,2-2.1,3.4-4.1,3.5c-1.9,0.1-3.7-1.3-4.2-3.2v7.7h18c0-1.6-0.5-3.2-1.4-4.6
		c-1.7-0.1-3.1-1.3-3.7-3l-0.2-0.1C838.9,993.1,838.1,993,837.3,993"/>
	<polygon id="Path_429_" class="st70" points="845,1000 844.8,1000 827.2,1000 827,1000 827,1002 845,1002 	"/>
	<path id="Path_430_" class="st2" d="M844.5,996c-2.5,0-4.5-1.9-4.5-4.3V958h9v33.7C849,994.1,847,996,844.5,996"/>
	<path id="Path_431_" class="st2" d="M831.5,996c-2.5,0-4.5-1.9-4.5-4.2V958h9v33.7C836,994.1,834,996,831.5,996"/>
	<polygon id="Path_432_" class="st35" points="827,926 848,926 848,946 827,946 	"/>
	<polygon id="Path_433_" class="st2" points="848,961 827,961 827,946 848,946 	"/>
	<path id="Path_434_" class="st35" d="M853,927h-29c0-3.4,1.3-6.8,3.7-9.2s5.7-3.8,9-3.8h3.4C847.3,914,853,919.8,853,927"/>
	<path id="Path_435_" class="st64" d="M839.5,918c-1.4,0-2.6-1.2-2.5-2.5v-3.4l5-0.1v3.4C842.1,916.8,840.9,917.9,839.5,918"/>
	<path id="Path_436_" class="st74" d="M842,912l-0.3,0.1c-0.8,0.2-1.5,0.2-2.3,0.2s-1.6-0.1-2.4-0.3v3.3c0,1.4,1.1,2.6,2.5,2.7
		c1.4-0.1,2.5-1.3,2.5-2.7V912"/>
	<path id="Path_437_" class="st64" d="M841.3,911.8c-5.9,1.2-11.7-2.7-12.9-8.8l-4.4-22.4l21.4-4.5l4.4,22.4
		C851,904.5,847.2,910.5,841.3,911.8"/>
	<path id="Path_438_" class="st3" d="M832.8,887.5c0,0,9.6,1.3,12.5-5.4c0,0,1.8,0.4,3.7,10.1c0,0,1-2.6,0.9-8.9
		c0,0,5.6-4.8,3.8-13.9l-5.8,2.3c0,0,1.7-10.1-4.5-13.7l-6.7,7.9c0,0-8.8-2.3-14.4,8.8l-4.9-0.1c0,0-2,8.2,3.2,9.7
		c0,0-1.4,8,2.9,13.5l-2.1,5.7l5.1,0.5l4.7-5.2C831.1,898.8,836.2,894.9,832.8,887.5"/>
	<path id="Path_439_" class="st75" d="M843.4,858l-6.7,7.8c-0.6-0.1-1.3-0.2-2-0.2c-2.9,0-8.5,1.1-12.4,9l-4.9-0.1
		c-0.3,1.1-0.4,2.3-0.4,3.4c0,2.4,0.6,5.4,3.6,6.3c-0.2,1-0.2,2.1-0.2,3.1c0,2.8,0.5,7.1,3.1,10.3l-2.1,5.7l5.1,0.5l4.7-5.2
		c1.8-1.6,2.9-4,2.8-6.4c0-1.7-0.4-3.3-1.2-4.8c0.6,0.1,1.2,0.1,1.9,0.1c3,0,8.6-0.7,10.6-5.5c0,0,1.8,0.4,3.7,10.1
		c0,0,0.9-2.3,0.9-7.8c0-0.3,0-0.7,0-1.1c2.8-2.8,4.3-6.5,4.2-10.4c0-1.2-0.1-2.4-0.3-3.5l-5.8,2.3c0.1-1,0.2-2,0.2-3
		C848.1,865.4,847.4,860.3,843.4,858"/>
	<path id="Path_440_" class="st64" d="M833,901.4c-0.1,1-0.6,2-1.4,2.7c-0.8,0.7-1.9,1-3,0.9c-2.3-0.3-3.9-2.2-3.6-4.4
		c0.1-1,0.6-2,1.4-2.7c0.8-0.7,1.9-1,3-0.9C831.6,897.3,833.2,899.2,833,901.4L833,901.4z"/>
	<path id="Path_441_" class="st3" d="M844.3,892.9c-0.1-0.3-0.3-0.5-0.5-0.7s-0.6-0.2-0.9-0.1c-0.6,0.2-1,0.8-0.8,1.4l0.7,2.7
		c0.1,0.3,0.3,0.5,0.5,0.7c0.3,0.2,0.6,0.2,0.9,0.1c0.6-0.2,1-0.8,0.8-1.4L844.3,892.9z"/>
	<path id="Path_442_" class="st3" d="M839.1,898c-0.3,0.1-0.6,0-0.9-0.1s-0.4-0.4-0.5-0.7l-0.7-2.7c-0.2-0.6,0.2-1.2,0.8-1.4
		c0.6-0.1,1.2,0.2,1.4,0.8l0.7,2.7C840.1,897.2,839.8,897.8,839.1,898"/>
	<path id="Path_443_" class="st75" d="M843.2,892c-0.1,0-0.2,0-0.3,0c-0.5,0.2-0.8,0.6-0.8,1.1c0,0.1,0,0.2,0,0.3l0.7,2.7
		c0.1,0.5,0.6,0.9,1.1,0.9c0.1,0,0.2,0,0.3,0c0.5-0.1,0.8-0.6,0.8-1.1c0-0.1,0-0.2,0-0.3l-0.7-2.7C844.2,892.4,843.7,892,843.2,892"
		/>
	<path id="Path_444_" class="st75" d="M838.1,893c-0.1,0-0.2,0-0.3,0c-0.5,0.1-0.9,0.6-0.8,1.1c0,0.1,0,0.2,0,0.3l0.7,2.7
		c0.1,0.5,0.6,0.9,1.1,0.9h0.3c0.5-0.1,0.9-0.6,0.8-1.1c0-0.1,0-0.2,0-0.3l-0.7-2.7C839.2,893.4,838.7,893,838.1,893"/>
	<path id="Path_445_" class="st64" d="M829,944h-1.1c-1.6,0-2.9-1.5-2.9-3.3V926h4V944z"/>
	<path id="Path_446_" class="st76" d="M845.8,901l-9.8,2.2l0.1,0.3c0.4,2.6,2.4,4.5,4.9,4.5c0.3,0,0.7,0,1-0.1
		c2.4-0.6,4.1-2.9,4-5.5c0-0.4,0-0.7-0.1-1L845.8,901"/>
	<polygon id="Path_447_" class="st76" points="872.2,899.5 874.8,900.4 867.8,921.2 865.2,920.3 	"/>
	<circle id="Oval_8_" class="st77" cx="850" cy="916" r="6"/>
	<polygon id="Path_448_" class="st2" points="853.8,907.7 867.9,908.7 867.2,918.6 853.1,917.5 	"/>
	<polygon id="Path_449_" class="st50" points="836,916 870,916 870,949 836,949 	"/>
	<polygon id="Path_450_" class="st49" points="872,926 833,926 835.6,916 869.4,916 	"/>
	<polygon id="Path_451_" class="st64" points="848,940 848,944 828,944 828,940 	"/>
	<path id="Path_452_" class="st64" d="M844,942.5c0,1.4,0.8,2.7,2.2,3.2c1.3,0.5,2.8,0.2,3.8-0.8s1.3-2.5,0.8-3.8s-1.8-2.2-3.2-2.2
		C845.6,939,844,940.6,844,942.5"/>
	<path id="Path_453_" class="st2" d="M3307.2,794h61.6c0.2,0,0.3-0.1,0.3-0.2l3.9-11.3c0-0.1,0-0.2-0.1-0.3s-0.2-0.1-0.3-0.1h-69.3
		c-0.1,0-0.2,0-0.3,0.1s-0.1,0.2-0.1,0.3l3.9,11.3C3306.9,793.9,3307.1,794,3307.2,794"/>
	<path id="Path_454_" class="st78" d="M3331.6,727c-0.1,0-0.2,0.1-0.3,0.2l-29.3,49.3c-0.1,0.1-0.1,0.2,0,0.4s0.2,0.2,0.3,0.2h29.3
		c0.2,0,0.3-0.2,0.3-0.4v-49.3c0-0.1,0-0.2-0.1-0.3C3331.8,727,3331.7,727,3331.6,727"/>
	<path id="Path_455_" class="st78" d="M3337.4,727c-0.2,0-0.4,0.2-0.4,0.4v49.3c0,0.2,0.2,0.4,0.4,0.4h40.3c0.1,0,0.3-0.1,0.3-0.2
		c0.1-0.1,0-0.3,0-0.4l-40.3-49.3C3337.6,727,3337.5,727,3337.4,727"/>
	<path id="Path_456_" class="st34" d="M3370.5,795h-65l-2.5,7.5c0,0.1,0,0.2,0,0.3c0.1,0.1,0.2,0.2,0.3,0.2h69.3
		c0.1,0,0.2-0.1,0.3-0.2c0.1-0.1,0.1-0.2,0-0.3L3370.5,795z"/>
	<path id="Path_457_" class="st34" d="M3373.7,807h-29.3c-0.2,0-0.3,0.2-0.3,0.4v49.3c0,0.1,0,0.2,0.1,0.3s0.2,0.1,0.2,0.1
		c0.1,0,0.2-0.1,0.3-0.2l29.3-49.3c0.1-0.1,0.1-0.2,0-0.4S3373.8,807,3373.7,807"/>
	<path id="Path_458_" class="st34" d="M3338.6,808h-40.3c-0.1,0-0.3,0.1-0.3,0.2c-0.1,0.1,0,0.3,0,0.4l40.3,49.3
		c0.1,0.1,0.2,0.1,0.3,0.1s0.2,0,0.2-0.1s0.1-0.2,0.1-0.2v-49.3C3339,808.2,3338.8,808,3338.6,808"/>
	<path id="Path_459_" class="st2" d="M3050.4,654h49.2c0.1,0,0.2-0.1,0.3-0.2l3.1-9.4c0-0.1,0-0.2,0-0.3c-0.1-0.1-0.1-0.1-0.2-0.1
		h-55.4c-0.1,0-0.2,0-0.2,0.1c-0.1,0.1-0.1,0.2,0,0.3l3.1,9.4C3050.1,653.9,3050.3,654,3050.4,654"/>
	<path id="Path_460_" class="st78" d="M3070.7,600c-0.1,0-0.2,0.1-0.2,0.1l-23.4,39.4c0,0.1-0.1,0.2,0,0.3s0.1,0.1,0.2,0.1h23.4
		c0.2,0,0.3-0.1,0.3-0.3v-39.4C3071,600.1,3070.9,600,3070.7,600"/>
	<path id="Path_461_" class="st78" d="M3075.3,600c-0.2,0-0.3,0.1-0.3,0.3v39.4c0,0.1,0,0.1,0.1,0.2s0.1,0.1,0.2,0.1h31.5
		c0.1,0,0.2-0.1,0.2-0.2c0-0.1,0-0.2,0-0.3l-31.5-39.4C3075.4,600,3075.4,600,3075.3,600"/>
	<path id="Path_462_" class="st34" d="M3101.1,654H3050l-2,5.6c0,0.1,0,0.2,0,0.2c0.1,0.1,0.1,0.1,0.2,0.1h54.5c0.1,0,0.2,0,0.2-0.1
		c0.1-0.1,0.1-0.2,0-0.2L3101.1,654"/>
	<path id="Path_463_" class="st34" d="M3104.7,664h-23.5c-0.1,0-0.1,0-0.2,0.1s-0.1,0.1-0.1,0.2v39.4c0,0.2,0.1,0.3,0.3,0.3
		c0.1,0,0.2-0.1,0.2-0.1l23.5-39.4c0.1-0.1,0.1-0.2,0-0.3S3104.8,664,3104.7,664"/>
	<path id="Path_464_" class="st34" d="M3075.7,664h-31.4c-0.1,0-0.2,0.1-0.3,0.2s0,0.2,0,0.3l31.4,39.4c0.1,0.1,0.1,0.1,0.2,0.1
		c0.2,0,0.3-0.1,0.3-0.3v-39.4C3076,664.1,3075.9,664,3075.7,664"/>
	<path id="Path_465_" class="st3" d="M3029,409.5v3.3c0,0.6-0.2,1.1-0.6,1.5c-0.4,0.4-0.9,0.6-1.5,0.6h-121.8
		c-0.6,0-1.1-0.2-1.5-0.6s-0.6-0.9-0.6-1.5v-3.3c0-0.7,0.1-1.3,0.2-2c0.7-4.4,3.8-8,8-9.4s8.8-0.3,11.9,2.7
		c4.4-8.6,14.7-12.4,23.6-8.6c5.7-10.2,16.4-16.4,28-16.3s22.2,6.5,27.7,16.8c5.4-2.7,11.8-2.6,17.1,0.4c5.3,2.9,8.9,8.3,9.5,14.4
		C3029,408.2,3029,408.9,3029,409.5L3029,409.5z"/>
	<path id="Path_466_" class="st2" d="M2986.6,416.8c-2.3-7.2-4.5-14.3-6.7-21.5l0.1-0.2h4.9c0.3,0,0.6,0.1,0.7,0.4
		c3.7,5.9,7.3,11.7,11,17.6l2.5,3.9c0.1,0.3,0.4,0.4,0.7,0.4h14.5c1.1,0,2.2,0.3,3.1,1.1c1,0.9,1.5,2.2,1.4,3.5s-0.8,2.5-2,3.2
		c-0.8,0.4-1.7,0.7-2.5,0.6h-14.6c-0.3,0-0.7,0.1-0.8,0.4c-4.4,7-8.9,14.2-13.4,21.3c-0.2,0.4-0.5,0.6-0.9,0.5h-4.8l-0.2-0.2
		l6.8-21.6c0-0.1,0-0.3-0.1-0.4s-0.2-0.2-0.3-0.2h-14.4c-0.3,0-0.6,0.1-0.7,0.4c-1.2,1.6-2.4,3.2-3.7,4.8l-0.5,0.3h-3.8l-0.2-0.2
		c0.3-1,0.6-2,0.8-2.9c0.6-2,1.2-4.2,1.8-6.3c0.1-0.2,0.1-0.5,0-0.7c-0.9-3-1.7-6-2.6-9.1l0.1-0.2h3.6c0.2,0,0.4,0.2,0.6,0.4
		c1.2,1.6,2.4,3.2,3.7,4.9c0.2,0.2,0.4,0.4,0.7,0.4h14.3c0.2,0.1,0.3,0,0.4-0.1S2986.7,416.9,2986.6,416.8L2986.6,416.8z"/>
	<path id="Path_467_" class="st79" d="M2941.5,1148.5L2941.5,1148.5L2941.5,1148.5z"/>
	<path id="Path_492_" class="st80" d="M2951.5,1182.5L2951.5,1182.5L2951.5,1182.5z"/>
	<path id="Path_504_" class="st81" d="M693,1004.8v12.8c0,1.9-1.5,3.5-3.4,3.5H529.4c-1.9,0-3.4-1.5-3.4-3.5v-12.8
		c0-1.9,1.5-3.5,3.4-3.5h4.3v-41.7h0.3v-30.2c0-0.9,0.4-1.8,1-2.4c0.6-0.6,1.5-1,2.4-1h94.3c1.5,0,2.9,1,3.3,2.5l8.8,31.1h38.5
		c0.9,0,1.8,0.4,2.4,1c0.6,0.6,1,1.5,1,2.4v38.2h3.8c0.9,0,1.8,0.4,2.4,1C692.7,1003,693,1003.8,693,1004.8L693,1004.8z"/>
	<path id="Path_505_" class="st82" d="M520.9,951H534v38h-13.1c-1.6,0-2.9-1.3-2.9-2.9v-32.3C518,952.3,519.3,951,520.9,951
		L520.9,951z"/>
	<circle id="Oval_22_" class="st58" cx="566.5" cy="1019.5" r="17.5"/>
	<circle id="Oval_23_" class="st58" cx="645.5" cy="1019.5" r="17.5"/>
	<circle id="Oval_24_" class="st3" cx="645.5" cy="1019.5" r="9.5"/>
	<circle id="Oval_25_" class="st3" cx="566.5" cy="1019.5" r="9.5"/>
	<path id="Rectangle_12_" class="st3" d="M544.4,935h37.2c0.8,0,1.4,0.6,1.4,1.4v24.2c0,0.8-0.6,1.4-1.4,1.4h-37.2
		c-0.8,0-1.4-0.6-1.4-1.4v-24.2C543,935.6,543.6,935,544.4,935z"/>
	<path id="Path_506_" class="st3" d="M632.6,962h-41.2c-0.8,0-1.4-0.6-1.4-1.4v-24.1c0-0.8,0.6-1.4,1.4-1.4h35.2
		c0.6,0,1.2,0.4,1.4,1.1l6,24.1c0.1,0.4,0,0.9-0.3,1.2C633.4,961.8,633,962,632.6,962L632.6,962z"/>
	<path id="Rectangle_13_" class="st3" d="M678.1,977h8.8c2.3,0,4.1,1.8,4.1,4.1v4.8c0,2.3-1.8,4.1-4.1,4.1h-8.8
		c-2.3,0-4.1-1.8-4.1-4.1v-4.8C674,978.8,675.8,977,678.1,977z"/>
	<path id="Rectangle_14_" class="st6" d="M613.9,976h8.3c1.6,0,2.9,1.3,2.9,2.9v0.3c0,1.6-1.3,2.9-2.9,2.9h-8.3
		c-1.6,0-2.9-1.3-2.9-2.9v-0.3C611,977.3,612.3,976,613.9,976z"/>
	<path id="Path_507_" class="st83" d="M617.9,956.5l-0.8,5.5H598c0,0-1.2-12.2,9.4-11.9h2.9C619.2,949.5,617.9,956.5,617.9,956.5
		L617.9,956.5z"/>
	<path id="Path_508_" class="st84" d="M609.5,952c-0.9,0-1.5-0.8-1.5-1.7V948h3v2.3C611,951.2,610.4,952,609.5,952z"/>
	<polygon id="Path_509_" class="st85" points="598,960 602,960 602,977 598,977 	"/>
	<polygon id="Path_510_" class="st85" points="632.4,954.4 633,957 615,955.9 615,952 	"/>
	<circle id="Oval_26_" class="st84" cx="601" cy="978" r="3"/>
	<polygon id="Path_511_" class="st83" points="599,958 619,958 619,962 599,962 	"/>
	<circle id="Oval_27_" class="st86" cx="546" cy="940" r="1"/>
	<polygon id="Path_512_" class="st81" points="534,953 543,953 543,966 534,966 	"/>
	<path id="Path_513_" class="st83" d="M612.4,949l7.2,1.1c0.6,2.3,0.6,4.7-0.2,6.9H611L612.4,949z"/>
	<path id="Path_514_" class="st85" d="M611.4,948.8c-2.2,0.5-4.6,0.2-6.5-1.1c-2-1.2-3.3-3.2-3.9-5.4l-2-11.5l16.3-4.8l2.5,12.2
		C618.9,942.9,616,947.6,611.4,948.8"/>
	<path id="Path_515_" class="st75" d="M597.3,935.4c0,0,1.2,10.5,2,10.8c2.2,0.9,6.4,1.5,6.3-0.6c-0.2-2.4-1.9-6.8-2-7.2l-1-3.8
		l10.2-3.2l0.7-1.7l1.5,1.2l2.9-1.7c-2.9-5.8-10-6.9-13.7-5.7c-5.3,1.7-7.9,6-7.2,11.6"/>
	<path id="Path_516_" class="st85" d="M606,939.8c0.1,0.8-0.1,1.5-0.6,2.2c-0.5,0.6-1.2,1-2,1.1c-1.7,0.1-3.2-1.1-3.3-2.7
		c-0.1-0.8,0.1-1.5,0.6-2.2c0.5-0.6,1.2-1,2-1.1C604.4,936.9,605.9,938.1,606,939.8"/>
	<path id="Path_517_" class="st84" d="M604,939.9c0,0.3,0,0.5-0.2,0.7s-0.4,0.3-0.7,0.4c-0.3,0-0.5-0.1-0.8-0.2
		c-0.2-0.2-0.3-0.4-0.4-0.7c0-0.3,0-0.5,0.2-0.7s0.4-0.3,0.7-0.4c0.3,0,0.5,0.1,0.8,0.2C603.9,939.4,604,939.7,604,939.9"/>
	<path id="Path_518_" class="st75" d="M610.8,937l-0.6-2"/>
	<path id="Path_519_" class="st87" d="M614.1,943.9c-0.7,0.2-1.4,0-2-0.4s-1-1.1-1.1-1.9v-0.2l4.9-1.5v0.2
		C616.3,941.8,615.5,943.5,614.1,943.9L614.1,943.9z"/>
	<path id="Rectangle_15_" class="st87" d="M610.7,934.7L610.7,934.7c0.3-0.1,0.7,0.1,0.7,0.4l0.5,1.9c0.1,0.3-0.1,0.6-0.4,0.7l0,0
		c-0.3,0.1-0.6-0.1-0.7-0.4l-0.5-1.9C610.2,935.1,610.4,934.8,610.7,934.7z"/>
	<path id="Rectangle_16_" class="st87" d="M613.7,934L613.7,934c0.3-0.1,0.7,0.1,0.7,0.4l0.5,1.9c0.1,0.3-0.1,0.6-0.4,0.7l0,0
		c-0.3,0.1-0.6-0.1-0.7-0.4l-0.5-1.9C613.1,934.4,613.3,934.1,613.7,934z"/>
	<polygon id="Path_520_" class="st81" points="543,926 585,926 585,935 543,935 	"/>
	<polygon id="Path_521_" class="st81" points="533,962 594,962 594,989 533,989 	"/>
	<path id="Path_522_" class="st75" d="M566,961h-14.9c-0.4,0-0.7-0.3-0.7-0.7l-0.4-5.6c0-3.7,4.3-6.8,7.9-6.8c3.6,0,7.8,3,7.9,6.6
		L566,961z"/>
	<path id="Path_523_" class="st64" d="M561,946l-0.4,0.1c-0.6,0.1-1.2,0.2-1.7,0.2c-0.6,0-1.3-0.1-1.9-0.2v2.6c0,1.2,0.9,2.2,2,2.3
		c1.1-0.1,2-1.1,1.9-2.3L561,946"/>
	<path id="Path_524_" class="st64" d="M563,946.7c-1.9,1.2-4.2,1.6-6.4,1.1s-4.1-1.9-5.3-3.8l-4.4-7.5l12.9-11.5l5.8,10
		C568.2,938.9,567,944.2,563,946.7"/>
	<path id="Path_525_" class="st87" d="M560.5,932.3c-0.3-0.3-0.8-0.4-1.2-0.2c-0.4,0.3-0.5,0.7-0.2,1.1l1.3,1.5
		c0.1,0.2,0.3,0.3,0.5,0.3s0.5,0,0.6-0.1c0.4-0.3,0.5-0.7,0.2-1L560.5,932.3z"/>
	<path id="Path_526_" class="st87" d="M557.7,936.9c-0.4,0.2-0.9,0.1-1.2-0.2l-1.3-1.5c-0.3-0.3-0.2-0.8,0.2-1s0.9-0.1,1.2,0.2
		l1.3,1.5C558.1,936.2,558,936.6,557.7,936.9L557.7,936.9z"/>
	<path id="Path_527_" class="st87" d="M562.3,942.4c-0.9,0.5-1.9,0.7-2.9,0.4s-1.8-0.9-2.3-1.7L557,941l6.2-4l0.1,0.2
		C564.5,938.9,564.1,941.3,562.3,942.4L562.3,942.4z"/>
	<path id="Path_528_" class="st75" d="M549.3,934.9c0,0,1.7,2.7,0.7,3.7s-4,0.4-4.5-1.5c0,0-5.3-0.3-2.8-4c0,0,0.3-5.6,5.3-5.3
		c0,0,1.1-9,7.6-6.3c0,0,2.8-0.8,3.4,1c0,0,3.3,1,3,3.3c0,0,0,4.6-4.4,3.3c0,1.4-1.2,2.5-2.6,2.6C555,931.8,551.6,937.7,549.3,934.9
		L549.3,934.9z"/>
	<path id="Path_529_" class="st64" d="M552.7,939.8c0.3,0.7,0.4,1.5,0.1,2.3c-0.3,0.7-0.8,1.3-1.6,1.7c-1.6,0.6-3.3-0.1-4-1.6
		c-0.3-0.7-0.4-1.5-0.1-2.3c0.3-0.7,0.8-1.3,1.6-1.7C550.3,937.6,552,938.3,552.7,939.8"/>
	<path id="Path_530_" class="st88" d="M550.3,940c-0.1,0-0.2,0.1-0.3,0.3c-0.1,0.1-0.1,0.3,0,0.4c0.1,0.2,0.2,0.3,0.4,0.3
		s0.4,0,0.5-0.2c0.1-0.1,0.1-0.3,0.1-0.5c0-0.1-0.1-0.2-0.3-0.3C550.6,940,550.4,940,550.3,940"/>
	<path id="Path_531_" class="st0" d="M574,958.2c1.9,1.9,2.4,0.8,3,3.8h-10c0.5-3,0.9-1.8,2.6-4L574,958.2z"/>
	<path id="Path_532_" class="st2" d="M569.1,958.6c1.3,0.4,4.4,0.6,5.8,0c0.3-0.3,0-0.6,0-0.9c0-0.4-0.3-0.7-0.8-0.7H570
		c-0.4,0-0.8,0.3-0.8,0.7S568.8,958.5,569.1,958.6L569.1,958.6z"/>
	<path id="Path_533_" class="st0" d="M573.4,957.9L572,958c-1.3,0.1-1.9-0.7-2-1.8c-0.1-0.5,0.1-1.1,0.5-1.5s1-0.7,1.6-0.7h0.4
		c0.6-0.1,1.2,0.1,1.7,0.5s0.8,0.8,0.8,1.4C575.1,956.9,574.6,957.8,573.4,957.9L573.4,957.9z"/>
	<path id="Path_534_" class="st89" d="M570.7,952.2l2-0.2l0.4,4.1c0.1,0.5-0.3,1-0.9,1.1s-1-0.3-1.1-0.9L570.7,952.2z"/>
	<path id="Path_535_" class="st3" d="M575.9,948.2l-10.8,1.8l-0.1-2.1l3.9-1.1c0.9-0.2,1.9-0.4,2.8-0.5l4.3-0.3L575.9,948.2z"/>
	<path id="Path_536_" class="st0" d="M576.5,949c0.4,1,0.8,2.1,1.4,3c0.3,0.5-0.9,0-0.9,0.3c0.1,0.5,0.4,1.1,0.7,1.6
		c0.2,0.3-0.8-0.1-0.9,0.3c0,0.2,0.6,1,0.6,1.2s-1,0.1-1.2,0.3s0.4,0.6,0.1,0.8c-1.2,0.5-2.5,0.3-3.5-0.4c-0.4,0.8-1.5,1.2-2.4,0.8
		c-1.7-0.6-2.2-3.8-2.2-3.8c-0.2-1.1-0.2-2.2-0.2-3.3c0-1.8,0.6-3.3,3-3.5l1.7-0.2c0.9-0.2,1.8,0,2.6,0.5
		C576,947.2,576.5,948.1,576.5,949L576.5,949z"/>
	<path id="Path_537_" class="st0" d="M566.3,950.5c0,1.2-0.1,2.3-0.3,3.5c-0.1,0.6,0.8-0.3,0.9,0.1c0,0.6,0,1.2-0.1,1.8
		c-0.1,0.4,0.6-0.4,0.9,0.1c0.1,0.2-0.2,1.2-0.2,1.3c0.1,0.1,1-0.2,1.2,0s-0.2,0.8,0.2,0.8c1.2,0.1,2.3-0.5,2.9-1.5
		c0.6,0.7,1.7,0.7,2.4,0.1c1.3-1,0.8-4.5,0.8-4.5c-0.2-1.1-0.5-2.3-0.8-3.4c-0.5-1.8-1.6-3.1-3.7-2.6l-1.5,0.3
		c-0.8,0.1-1.6,0.6-2.1,1.3C566.2,948.6,566.1,949.5,566.3,950.5L566.3,950.5z"/>
	<path id="Path_538_" class="st3" d="M575,950.5c0,0.5,0.2,1.5-0.4,1.5s-1.5-0.1-1.6-0.6c0-0.5,0-1.2,0.5-1.3
		C574.1,950,574.9,949.9,575,950.5z"/>
	<path id="Path_539_" class="st87" d="M573,955.5c0.1,0.3-0.4,0.5-0.9,0.5s-1,0-1.1-0.3c-0.1-0.2,0.1-0.4,0.4-0.6
		c0.3-0.1,0.7-0.2,1-0.1S572.9,955.3,573,955.5L573,955.5z"/>
	<circle id="Oval_28_" class="st87" cx="573" cy="951" r="1"/>
	<circle id="Oval_29_" class="st87" cx="569" cy="952" r="1"/>
	<path id="Path_540_" class="st0" d="M566,947.2c-2.7-0.9-2.1,1.7-2.9,4.1C561.9,956.5,569.7,948.1,566,947.2z"/>
	<path id="Path_541_" class="st0" d="M575.8,945.3c-2,1.7,0.2,2.7,1.5,4.8C580.6,954.2,578.4,942.9,575.8,945.3z"/>
	<path id="Path_542_" class="st90" d="M570,961.3c0,0.2-0.1,0.5-0.2,0.7h-0.3c-0.8,0-2.5,0.1-2.5-0.7c0-0.7,0.8-1.2,1.6-1.2l0.1-0.2
		C569.5,960.1,570,960.6,570,961.3L570,961.3z"/>
	<path id="Path_543_" class="st90" d="M575,961.3c0,0.2,0,0.4,0.2,0.6l0.2-0.1l0.1,0.1c0.8,0,2.5,0.1,2.5-0.7c0-0.7-0.8-1.2-1.6-1.2
		l-0.1-0.2C575.5,960.1,575,960.7,575,961.3L575,961.3z"/>
	<path id="Path_544_" class="st0" d="M569,961.2c0,0.6-0.7,0.8-1.5,0.8s-1.5-0.2-1.5-0.8c-0.1-0.4,0.2-0.8,0.7-1s1.1-0.2,1.6,0
		S569,960.8,569,961.2z"/>
	<path id="Path_545_" class="st0" d="M578,961.1c0,0.6-0.7,0.9-1.5,0.9s-1.5-0.2-1.5-0.9c0-0.6,0.7-1.1,1.5-1.1S578,960.5,578,961.1
		z"/>
</g>
</svg>
